ISO-10303-21;
HEADER;
FILE_DESCRIPTION (( 'STEP AP214' ),
    '1' );
FILE_NAME ('¼Ó¹¤Á¬¸Ë1.STEP',
    '2025-04-14T04:06:14',
    ( '' ),
    ( '' ),
    'SwSTEP 2.0',
    'SolidWorks 2025',
    '' );
FILE_SCHEMA (( 'AUTOMOTIVE_DESIGN' ));
ENDSEC;

DATA;
#1 = DIRECTION ( 'NONE',  ( 0.000000000000000000, 0.000000000000000000, -1.000000000000000000 ) ) ;
#2 = DIRECTION ( 'NONE',  ( -1.000000000000000000, -0.000000000000000000, -0.000000000000000000 ) ) ;
#3 = VECTOR ( 'NONE', #929, 1000.000000000000000 ) ;
#4 = APPLICATION_PROTOCOL_DEFINITION ( 'draft international standard', 'automotive_design', 1998, #594 ) ;
#5 = AXIS2_PLACEMENT_3D ( 'NONE', #713, #735, #223 ) ;
#6 = CARTESIAN_POINT ( 'NONE',  ( -3.000000000000000000, 0.000000000000000000, 0.000000000000000000 ) ) ;
#7 = FACE_BOUND ( 'NONE', #85, .T. ) ;
#8 = LINE ( 'NONE', #1080, #966 ) ;
#9 = EDGE_CURVE ( 'NONE', #24, #867, #1227, .T. ) ;
#10 = DIRECTION ( 'NONE',  ( 0.000000000000000000, 0.000000000000000000, -1.000000000000000000 ) ) ;
#11 = CARTESIAN_POINT ( 'NONE',  ( -3.000000000000000000, 110.0000000000000000, 2.999999999999997335 ) ) ;
#12 = ORIENTED_EDGE ( 'NONE', *, *, #706, .T. ) ;
#13 =( NAMED_UNIT ( * ) PLANE_ANGLE_UNIT ( ) SI_UNIT ( $, .RADIAN. ) );
#14 = CIRCLE ( 'NONE', #592, 17.00000000000001066 ) ;
#15 = CARTESIAN_POINT ( 'NONE',  ( 3.000000000000000000, 0.000000000000000000, -2.999999999999987566 ) ) ;
#16 = DIRECTION ( 'NONE',  ( 1.000000000000000000, 0.000000000000000000, 0.000000000000000000 ) ) ;
#17 = ORIENTED_EDGE ( 'NONE', *, *, #749, .F. ) ;
#18 = ORIENTED_EDGE ( 'NONE', *, *, #122, .T. ) ;
#19 = EDGE_CURVE ( 'NONE', #476, #1146, #1111, .T. ) ;
#20 = DIRECTION ( 'NONE',  ( 0.000000000000000000, 0.000000000000000000, 1.000000000000000000 ) ) ;
#21 = AXIS2_PLACEMENT_3D ( 'NONE', #1061, #95, #1176 ) ;
#22 = DIRECTION ( 'NONE',  ( 0.000000000000000000, 0.000000000000000000, -1.000000000000000000 ) ) ;
#23 = VERTEX_POINT ( 'NONE', #265 ) ;
#24 = VERTEX_POINT ( 'NONE', #165 ) ;
#25 = EDGE_CURVE ( 'NONE', #261, #421, #272, .T. ) ;
#26 = CARTESIAN_POINT ( 'NONE',  ( -18.03600000000000136, 16.27882059609969900, 24.00000000000000000 ) ) ;
#27 = ORIENTED_EDGE ( 'NONE', *, *, #1109, .T. ) ;
#28 = CYLINDRICAL_SURFACE ( 'NONE', #1210, 12.00000000000000000 ) ;
#29 = ORIENTED_EDGE ( 'NONE', *, *, #994, .F. ) ;
#30 = CARTESIAN_POINT ( 'NONE',  ( 7.000000000000000000, 160.0000000000000000, 6.550000000000000711 ) ) ;
#31 = PLANE ( 'NONE',  #53 ) ;
#32 = EDGE_CURVE ( 'NONE', #839, #452, #1268, .T. ) ;
#33 = DIRECTION ( 'NONE',  ( 1.000000000000000000, 0.000000000000000000, 0.000000000000000000 ) ) ;
#34 = ORIENTED_EDGE ( 'NONE', *, *, #879, .T. ) ;
#35 = ORIENTED_EDGE ( 'NONE', *, *, #708, .F. ) ;
#36 = CIRCLE ( 'NONE', #1104, 17.00000000000001066 ) ;
#37 = EDGE_CURVE ( 'NONE', #1108, #563, #248, .T. ) ;
#38 = FACE_BOUND ( 'NONE', #976, .T. ) ;
#39 = AXIS2_PLACEMENT_3D ( 'NONE', #1129, #602, #699 ) ;
#40 = LINE ( 'NONE', #1243, #422 ) ;
#41 = PRODUCT_DEFINITION ( 'æœ', '', #1189, #1009 ) ;
#42 = DIRECTION ( 'NONE',  ( 0.000000000000000000, 0.5613386412448176932, 0.8275862068965516016 ) ) ;
#43 = VECTOR ( 'NONE', #1089, 1000.000000000000000 ) ;
#44 = ORIENTED_EDGE ( 'NONE', *, *, #105, .F. ) ;
#45 = PLANE ( 'NONE',  #39 ) ;
#46 = ADVANCED_FACE ( 'NONE', ( #200 ), #593, .F. ) ;
#47 = DIRECTION ( 'NONE',  ( -1.000000000000000000, -0.000000000000000000, -0.000000000000000000 ) ) ;
#48 = ORIENTED_EDGE ( 'NONE', *, *, #1167, .F. ) ;
#49 = CARTESIAN_POINT ( 'NONE',  ( -3.000000000000000000, 16.27882059609969900, -12.00000000000000000 ) ) ;
#50 = ORIENTED_EDGE ( 'NONE', *, *, #347, .F. ) ;
#51 = FACE_BOUND ( 'NONE', #1168, .T. ) ;
#52 = ORIENTED_EDGE ( 'NONE', *, *, #373, .T. ) ;
#53 = AXIS2_PLACEMENT_3D ( 'NONE', #608, #222, #1208 ) ;
#54 = CIRCLE ( 'NONE', #712, 1.549999999999999378 ) ;
#55 = CYLINDRICAL_SURFACE ( 'NONE', #260, 6.550000000000000711 ) ;
#56 = ORIENTED_EDGE ( 'NONE', *, *, #1212, .T. ) ;
#57 = DIRECTION ( 'NONE',  ( 0.000000000000000000, 0.000000000000000000, 1.000000000000000000 ) ) ;
#58 = ORIENTED_EDGE ( 'NONE', *, *, #19, .F. ) ;
#59 = CARTESIAN_POINT ( 'NONE',  ( 2.999999986629780402, -8.749999816813550879, 2.999999986629780402 ) ) ;
#60 = DIRECTION ( 'NONE',  ( 1.000000000000000000, 0.000000000000000000, 0.000000000000000000 ) ) ;
#61 = EDGE_CURVE ( 'NONE', #24, #969, #880, .T. ) ;
#62 = ORIENTED_EDGE ( 'NONE', *, *, #334, .T. ) ;
#63 = LINE ( 'NONE', #1226, #188 ) ;
#64 = AXIS2_PLACEMENT_3D ( 'NONE', #1067, #1113, #1099 ) ;
#65 = VERTEX_POINT ( 'NONE', #286 ) ;
#66 = DIRECTION ( 'NONE',  ( 0.000000000000000000, 0.000000000000000000, 1.000000000000000000 ) ) ;
#67 = CIRCLE ( 'NONE', #514, 3.000000000000000000 ) ;
#68 = VECTOR ( 'NONE', #655, 1000.000000000000000 ) ;
#69 = DIRECTION ( 'NONE',  ( 0.000000000000000000, 0.000000000000000000, 1.000000000000000000 ) ) ;
#70 = VERTEX_POINT ( 'NONE', #984 ) ;
#71 = DIRECTION ( 'NONE',  ( 1.000000000000000000, 0.000000000000000000, 0.000000000000000000 ) ) ;
#72 = ORIENTED_EDGE ( 'NONE', *, *, #276, .T. ) ;
#73 = DIRECTION ( 'NONE',  ( 0.000000000000000000, 0.000000000000000000, -1.000000000000000000 ) ) ;
#74 = DIRECTION ( 'NONE',  ( 1.000000000000000000, 0.000000000000000000, 0.000000000000000000 ) ) ;
#75 = CIRCLE ( 'NONE', #811, 1.549999999999999822 ) ;
#76 = ORIENTED_EDGE ( 'NONE', *, *, #501, .T. ) ;
#77 = VECTOR ( 'NONE', #931, 1000.000000000000000 ) ;
#78 = CARTESIAN_POINT ( 'NONE',  ( 3.000000000000000000, -8.750000000000000000, 0.000000000000000000 ) ) ;
#79 = ADVANCED_FACE ( 'NONE', ( #1261 ), #299, .T. ) ;
#80 = EDGE_LOOP ( 'NONE', ( #757, #580, #416, #113 ) ) ;
#81 = DIRECTION ( 'NONE',  ( -1.000000000000000000, -0.000000000000000000, -0.000000000000000000 ) ) ;
#82 = EDGE_CURVE ( 'NONE', #65, #1247, #680, .T. ) ;
#83 = AXIS2_PLACEMENT_3D ( 'NONE', #444, #631, #1022 ) ;
#84 = CARTESIAN_POINT ( 'NONE',  ( 1.415941433679299921, 4.375000000000000000, -7.577722283113839552 ) ) ;
#85 = EDGE_LOOP ( 'NONE', ( #50, #1059 ) ) ;
#86 = FACE_OUTER_BOUND ( 'NONE', #536, .T. ) ;
#87 = EDGE_CURVE ( 'NONE', #993, #1193, #432, .T. ) ;
#88 = DIRECTION ( 'NONE',  ( -1.000000000000000000, 0.000000000000000000, 0.000000000000000000 ) ) ;
#89 = ORIENTED_EDGE ( 'NONE', *, *, #898, .T. ) ;
#90 = CARTESIAN_POINT ( 'NONE',  ( -3.000000000000000000, 4.375000000000000000, -9.127722283113840263 ) ) ;
#91 = AXIS2_PLACEMENT_3D ( 'NONE', #394, #789, #570 ) ;
#92 = CARTESIAN_POINT ( 'NONE',  ( 2.999999999999999112, 110.0000000000000000, -3.000000000000002665 ) ) ;
#93 = VERTEX_POINT ( 'NONE', #960 ) ;
#94 = FACE_BOUND ( 'NONE', #120, .T. ) ;
#95 = DIRECTION ( 'NONE',  ( 1.000000000000000000, 0.000000000000000000, 0.000000000000000000 ) ) ;
#96 =( LENGTH_UNIT ( ) NAMED_UNIT ( * ) SI_UNIT ( .MILLI., .METRE. ) );
#97 = CARTESIAN_POINT ( 'NONE',  ( 2.999999999999999112, 110.0000000000000000, 2.999999999999997335 ) ) ;
#98 = ORIENTED_EDGE ( 'NONE', *, *, #221, .F. ) ;
#99 = LINE ( 'NONE', #481, #1171 ) ;
#100 = AXIS2_PLACEMENT_3D ( 'NONE', #6, #483, #381 ) ;
#101 = VECTOR ( 'NONE', #471, 1000.000000000000000 ) ;
#102 = EDGE_CURVE ( 'NONE', #177, #780, #124, .T. ) ;
#103 = CARTESIAN_POINT ( 'NONE',  ( -3.000000000000000000, 30.00000000000000000, 1.604619215278546562E-14 ) ) ;
#104 = FACE_BOUND ( 'NONE', #447, .T. ) ;
#105 = EDGE_CURVE ( 'NONE', #436, #963, #8, .T. ) ;
#106 = CARTESIAN_POINT ( 'NONE',  ( -3.000000000000000000, 12.04159457879229933, -12.00000000000000000 ) ) ;
#107 = CARTESIAN_POINT ( 'NONE',  ( 1.549999999999999600, 4.375000094646334325, 9.127722283113822499 ) ) ;
#108 = DIRECTION ( 'NONE',  ( -1.000000000000000000, -0.000000000000000000, -0.000000000000000000 ) ) ;
#109 = DIRECTION ( 'NONE',  ( 0.000000000000000000, 0.000000000000000000, 1.000000000000000000 ) ) ;
#110 = FACE_OUTER_BOUND ( 'NONE', #288, .T. ) ;
#111 = EDGE_CURVE ( 'NONE', #897, #1169, #864, .T. ) ;
#112 = DIRECTION ( 'NONE',  ( 1.000000000000000000, 0.000000000000000000, 0.000000000000000000 ) ) ;
#113 = ORIENTED_EDGE ( 'NONE', *, *, #195, .T. ) ;
#114 = DIRECTION ( 'NONE',  ( 0.000000000000000000, 0.000000000000000000, 1.000000000000000000 ) ) ;
#115 = ORIENTED_EDGE ( 'NONE', *, *, #154, .T. ) ;
#116 = ADVANCED_FACE ( 'NONE', ( #398 ), #305, .T. ) ;
#117 = AXIS2_PLACEMENT_3D ( 'NONE', #755, #939, #1138 ) ;
#118 = CARTESIAN_POINT ( 'NONE',  ( -3.000000000000000000, 30.00000000000000355, -2.999999999999987566 ) ) ;
#119 = DIRECTION ( 'NONE',  ( -0.7071067811865477948, 4.317745980395088701E-08, 0.7071067811865459074 ) ) ;
#120 = EDGE_LOOP ( 'NONE', ( #659, #1115 ) ) ;
#121 = ORIENTED_EDGE ( 'NONE', *, *, #1236, .F. ) ;
#122 = EDGE_CURVE ( 'NONE', #306, #969, #389, .T. ) ;
#123 = LINE ( 'NONE', #904, #484 ) ;
#124 = CIRCLE ( 'NONE', #146, 6.550000000000000711 ) ;
#125 = CIRCLE ( 'NONE', #1024, 6.550000000000000711 ) ;
#126 = CARTESIAN_POINT ( 'NONE',  ( -3.000000000000000000, 0.000000000000000000, 0.000000000000000000 ) ) ;
#127 = VERTEX_POINT ( 'NONE', #314 ) ;
#128 = UNCERTAINTY_MEASURE_WITH_UNIT (LENGTH_MEASURE( 1.000000000000000082E-05 ), #770, 'distance_accuracy_value', 'NONE');
#129 = DIRECTION ( 'NONE',  ( 0.000000000000000000, 0.000000000000000000, 1.000000000000000000 ) ) ;
#130 = DIRECTION ( 'NONE',  ( -1.000000000000000000, -0.000000000000000000, -0.000000000000000000 ) ) ;
#131 = CARTESIAN_POINT ( 'NONE',  ( 2.999999995394410313, 4.374999944857320244, 4.577722287719430128 ) ) ;
#132 = ORIENTED_EDGE ( 'NONE', *, *, #1098, .F. ) ;
#133 = FACE_BOUND ( 'NONE', #825, .T. ) ;
#134 = ADVANCED_FACE ( 'NONE', ( #701 ), #475, .T. ) ;
#135 = DIRECTION ( 'NONE',  ( 1.000000000000000000, 0.000000000000000000, 0.000000000000000000 ) ) ;
#136 = ORIENTED_EDGE ( 'NONE', *, *, #599, .T. ) ;
#137 = EDGE_CURVE ( 'NONE', #479, #640, #704, .T. ) ;
#138 = CARTESIAN_POINT ( 'NONE',  ( 3.000000000000000000, 0.000000000000000000, 0.000000000000000000 ) ) ;
#139 = ORIENTED_EDGE ( 'NONE', *, *, #404, .F. ) ;
#140 = VECTOR ( 'NONE', #207, 1000.000000000000114 ) ;
#141 = CARTESIAN_POINT ( 'NONE',  ( 3.000000000000000000, 4.375000000000000000, -7.577722283113839552 ) ) ;
#142 = AXIS2_PLACEMENT_3D ( 'NONE', #141, #497, #743 ) ;
#143 = DIRECTION ( 'NONE',  ( 1.000000000000000000, 0.000000000000000000, 0.000000000000000000 ) ) ;
#144 = EDGE_LOOP ( 'NONE', ( #932, #1053, #902, #809 ) ) ;
#145 = CARTESIAN_POINT ( 'NONE',  ( 1.550000000000000044, 4.375000094646332549, -6.027722283113847723 ) ) ;
#146 = AXIS2_PLACEMENT_3D ( 'NONE', #968, #88, #777 ) ;
#147 = AXIS2_PLACEMENT_3D ( 'NONE', #543, #254, #1036 ) ;
#148 = LINE ( 'NONE', #539, #3 ) ;
#149 = DIRECTION ( 'NONE',  ( 1.000000000000000000, 0.000000000000000000, 0.000000000000000000 ) ) ;
#150 = EDGE_LOOP ( 'NONE', ( #467, #1182, #201, #376 ) ) ;
#151 = CARTESIAN_POINT ( 'NONE',  ( 7.000000000000000000, 0.000000000000000000, 0.000000000000000000 ) ) ;
#152 = VERTEX_POINT ( 'NONE', #975 ) ;
#153 = DIRECTION ( 'NONE',  ( -1.000000000000000000, -0.000000000000000000, -0.000000000000000000 ) ) ;
#154 = EDGE_CURVE ( 'NONE', #980, #719, #99, .T. ) ;
#155 = FACE_OUTER_BOUND ( 'NONE', #736, .T. ) ;
#156 = EDGE_LOOP ( 'NONE', ( #928, #48, #801, #721 ) ) ;
#157 = CARTESIAN_POINT ( 'NONE',  ( -3.000000000000000000, -8.750000000000000000, 0.000000000000000000 ) ) ;
#158 = ORIENTED_EDGE ( 'NONE', *, *, #445, .T. ) ;
#159 = DIRECTION ( 'NONE',  ( 1.000000000000000000, 0.000000000000000000, -0.000000000000000000 ) ) ;
#160 = CONICAL_SURFACE ( 'NONE', #332, 1.415941433679299921, 0.7853981633974490562 ) ;
#161 = DIRECTION ( 'NONE',  ( 0.000000000000000000, 0.000000000000000000, -1.000000000000000000 ) ) ;
#162 = ORIENTED_EDGE ( 'NONE', *, *, #1220, .F. ) ;
#163 = FACE_OUTER_BOUND ( 'NONE', #601, .T. ) ;
#164 = CIRCLE ( 'NONE', #885, 2.549999999999999822 ) ;
#165 = CARTESIAN_POINT ( 'NONE',  ( 3.000000000000000000, 50.00000000000000000, 3.000000000000011990 ) ) ;
#166 = CARTESIAN_POINT ( 'NONE',  ( 3.000000000000000000, 16.27882059609969900, 24.00000000000000000 ) ) ;
#167 = ADVANCED_FACE ( 'NONE', ( #782 ), #681, .F. ) ;
#168 = DIRECTION ( 'NONE',  ( 1.000000000000000000, 0.000000000000000000, 0.000000000000000000 ) ) ;
#169 = EDGE_LOOP ( 'NONE', ( #999, #583, #985, #98 ) ) ;
#170 = CYLINDRICAL_SURFACE ( 'NONE', #705, 2.549999999999999822 ) ;
#171 = EDGE_CURVE ( 'NONE', #23, #982, #1093, .T. ) ;
#172 = ORIENTED_EDGE ( 'NONE', *, *, #774, .F. ) ;
#173 = CYLINDRICAL_SURFACE ( 'NONE', #1249, 1.550000000000000266 ) ;
#174 = CONICAL_SURFACE ( 'NONE', #793, 1.415941433679299921, 0.7853981633974490562 ) ;
#175 = CARTESIAN_POINT ( 'NONE',  ( 12.99999999999999822, 50.00000000000000000, 1.237225175534340487E-14 ) ) ;
#176 = EDGE_CURVE ( 'NONE', #980, #1027, #1023, .T. ) ;
#177 = VERTEX_POINT ( 'NONE', #1209 ) ;
#178 = DIRECTION ( 'NONE',  ( 0.000000000000000000, 0.000000000000000000, -1.000000000000000000 ) ) ;
#179 = VECTOR ( 'NONE', #47, 1000.000000000000000 ) ;
#180 = EDGE_CURVE ( 'NONE', #716, #669, #1107, .T. ) ;
#181 = ORIENTED_EDGE ( 'NONE', *, *, #537, .T. ) ;
#182 = CARTESIAN_POINT ( 'NONE',  ( 2.999999999999999112, 90.00000000000000000, -2.999999999999987566 ) ) ;
#183 = DIRECTION ( 'NONE',  ( 0.000000000000000000, 0.000000000000000000, 1.000000000000000000 ) ) ;
#184 = ORIENTED_EDGE ( 'NONE', *, *, #537, .F. ) ;
#185 = CYLINDRICAL_SURFACE ( 'NONE', #995, 2.549999999999999822 ) ;
#186 = DIRECTION ( 'NONE',  ( 0.000000000000000000, 0.000000000000000000, 1.000000000000000000 ) ) ;
#187 = ORIENTED_EDGE ( 'NONE', *, *, #105, .T. ) ;
#188 = VECTOR ( 'NONE', #247, 1000.000000000000000 ) ;
#189 = DIRECTION ( 'NONE',  ( 0.000000000000000000, 0.000000000000000000, 1.000000000000000000 ) ) ;
#190 = ORIENTED_EDGE ( 'NONE', *, *, #61, .F. ) ;
#191 = SURFACE_SIDE_STYLE ('',( #1155 ) ) ;
#192 = DIRECTION ( 'NONE',  ( 0.000000000000000000, 0.000000000000000000, 1.000000000000000000 ) ) ;
#193 = ORIENTED_EDGE ( 'NONE', *, *, #889, .T. ) ;
#194 = APPLICATION_PROTOCOL_DEFINITION ( 'draft international standard', 'automotive_design', 1998, #1202 ) ;
#195 = EDGE_CURVE ( 'NONE', #716, #127, #919, .T. ) ;
#196 = EDGE_CURVE ( 'NONE', #1108, #277, #1197, .T. ) ;
#197 = DIRECTION ( 'NONE',  ( -1.000000000000000000, -0.000000000000000000, -0.000000000000000000 ) ) ;
#198 = AXIS2_PLACEMENT_3D ( 'NONE', #313, #503, #216 ) ;
#199 = DIRECTION ( 'NONE',  ( 0.000000000000000000, 0.000000000000000000, 1.000000000000000000 ) ) ;
#200 = FACE_OUTER_BOUND ( 'NONE', #342, .T. ) ;
#201 = ORIENTED_EDGE ( 'NONE', *, *, #292, .F. ) ;
#202 = DIRECTION ( 'NONE',  ( -1.000000000000000000, 0.000000000000000000, 0.000000000000000000 ) ) ;
#203 = CIRCLE ( 'NONE', #718, 3.000000000000000000 ) ;
#204 = DIRECTION ( 'NONE',  ( 0.000000000000000000, 1.000000000000000000, 0.000000000000000000 ) ) ;
#205 = AXIS2_PLACEMENT_3D ( 'NONE', #1263, #274, #251 ) ;
#206 = EDGE_LOOP ( 'NONE', ( #458, #511, #325, #1154 ) ) ;
#207 = DIRECTION ( 'NONE',  ( -0.7071067811865473507, 4.317746021282912915E-08, 0.7071067811865463515 ) ) ;
#208 = EDGE_CURVE ( 'NONE', #127, #476, #1065, .T. ) ;
#209 = CIRCLE ( 'NONE', #923, 3.000000000000000000 ) ;
#210 = LINE ( 'NONE', #991, #326 ) ;
#211 = EDGE_LOOP ( 'NONE', ( #517, #56, #1259, #1100 ) ) ;
#212 = ADVANCED_FACE ( 'NONE', ( #629 ), #615, .T. ) ;
#213 = CYLINDRICAL_SURFACE ( 'NONE', #555, 1.549999999999999822 ) ;
#214 = ORIENTED_EDGE ( 'NONE', *, *, #171, .F. ) ;
#215 = ORIENTED_EDGE ( 'NONE', *, *, #1255, .F. ) ;
#216 = DIRECTION ( 'NONE',  ( 0.000000000000000000, 0.000000000000000000, 1.000000000000000000 ) ) ;
#217 = ADVANCED_FACE ( 'NONE', ( #435 ), #213, .F. ) ;
#218 = CARTESIAN_POINT ( 'NONE',  ( 1.549999999999999822, 4.374999905353665675, -9.127722283113824275 ) ) ;
#219 = EDGE_LOOP ( 'NONE', ( #387, #224, #470, #856 ) ) ;
#220 = ORIENTED_EDGE ( 'NONE', *, *, #298, .T. ) ;
#221 = EDGE_CURVE ( 'NONE', #355, #65, #324, .T. ) ;
#222 = DIRECTION ( 'NONE',  ( 0.000000000000000000, 0.000000000000000000, 1.000000000000000000 ) ) ;
#223 = DIRECTION ( 'NONE',  ( 0.000000000000000000, 0.000000000000000000, 1.000000000000000000 ) ) ;
#224 = ORIENTED_EDGE ( 'NONE', *, *, #37, .T. ) ;
#225 = ORIENTED_EDGE ( 'NONE', *, *, #445, .F. ) ;
#226 = CIRCLE ( 'NONE', #142, 3.000000000000000000 ) ;
#227 = AXIS2_PLACEMENT_3D ( 'NONE', #106, #600, #1170 ) ;
#228 = CARTESIAN_POINT ( 'NONE',  ( 3.000000000000000000, 16.27882059609969900, -12.00000000000000000 ) ) ;
#229 = DIRECTION ( 'NONE',  ( 0.000000000000000000, 0.000000000000000000, 1.000000000000000000 ) ) ;
#230 = ORIENTED_EDGE ( 'NONE', *, *, #1123, .T. ) ;
#231 = DIRECTION ( 'NONE',  ( -1.000000000000000000, -0.000000000000000000, -0.000000000000000000 ) ) ;
#232 = EDGE_CURVE ( 'NONE', #452, #1211, #660, .T. ) ;
#233 = DIRECTION ( 'NONE',  ( -1.000000000000000000, -0.000000000000000000, -0.000000000000000000 ) ) ;
#234 = DIRECTION ( 'NONE',  ( 1.000000000000000000, 0.000000000000000000, 0.000000000000000000 ) ) ;
#235 = EDGE_LOOP ( 'NONE', ( #291, #1218, #561, #742 ) ) ;
#236 = FACE_BOUND ( 'NONE', #810, .T. ) ;
#237 = CIRCLE ( 'NONE', #874, 2.549999999999999822 ) ;
#238 = COLOUR_RGB ( '',0.7921568627450980005, 0.8196078431372548767, 0.9333333333333333481 ) ;
#239 = LINE ( 'NONE', #634, #1071 ) ;
#240 = CARTESIAN_POINT ( 'NONE',  ( 3.000000000000000000, 16.27882059609969900, -24.00000000000000000 ) ) ;
#241 = VECTOR ( 'NONE', #738, 1000.000000000000000 ) ;
#242 = DIRECTION ( 'NONE',  ( -1.000000000000000000, 0.000000000000000000, 0.000000000000000000 ) ) ;
#243 = AXIS2_PLACEMENT_3D ( 'NONE', #1016, #242, #343 ) ;
#244 = AXIS2_PLACEMENT_3D ( 'NONE', #386, #779, #767 ) ;
#245 = FACE_OUTER_BOUND ( 'NONE', #571, .T. ) ;
#246 = ORIENTED_EDGE ( 'NONE', *, *, #292, .T. ) ;
#247 = DIRECTION ( 'NONE',  ( -1.000000000000000000, -0.000000000000000000, -0.000000000000000000 ) ) ;
#248 = CIRCLE ( 'NONE', #91, 1.549999999999999378 ) ;
#249 = ADVANCED_FACE ( 'NONE', ( #341 ), #814, .F. ) ;
#250 = CARTESIAN_POINT ( 'NONE',  ( 3.000000000000000000, 0.000000000000000000, 3.000000000000011990 ) ) ;
#251 = DIRECTION ( 'NONE',  ( 1.000000000000000000, 0.000000000000000000, -0.000000000000000000 ) ) ;
#252 = DIRECTION ( 'NONE',  ( 0.000000000000000000, 0.000000000000000000, -1.000000000000000000 ) ) ;
#253 = ORIENTED_EDGE ( 'NONE', *, *, #722, .T. ) ;
#254 = DIRECTION ( 'NONE',  ( -1.000000000000000000, 0.000000000000000000, 0.000000000000000000 ) ) ;
#255 = DIRECTION ( 'NONE',  ( 0.000000000000000000, 0.5613386412448176932, 0.8275862068965516016 ) ) ;
#256 = DIRECTION ( 'NONE',  ( 0.000000000000000000, 0.000000000000000000, 1.000000000000000000 ) ) ;
#257 = VECTOR ( 'NONE', #972, 1000.000000000000000 ) ;
#258 = VECTOR ( 'NONE', #910, 1000.000000000000000 ) ;
#259 = DIRECTION ( 'NONE',  ( 0.000000000000000000, 0.000000000000000000, -1.000000000000000000 ) ) ;
#260 = AXIS2_PLACEMENT_3D ( 'NONE', #1229, #759, #69 ) ;
#261 = VERTEX_POINT ( 'NONE', #992 ) ;
#262 = VECTOR ( 'NONE', #875, 1000.000000000000000 ) ;
#263 = PRESENTATION_LAYER_ASSIGNMENT (  '', '', ( #308 ) ) ;
#264 = CARTESIAN_POINT ( 'NONE',  ( 12.99999999999999822, 69.99999999999998579, 3.000000000000011990 ) ) ;
#265 = CARTESIAN_POINT ( 'NONE',  ( 2.999999999999999112, 129.9999999999999716, -3.000000000000002665 ) ) ;
#266 = LINE ( 'NONE', #1254, #916 ) ;
#267 = ADVANCED_FACE ( 'NONE', ( #330 ), #28, .F. ) ;
#268 = EDGE_CURVE ( 'NONE', #277, #837, #724, .T. ) ;
#269 = DIRECTION ( 'NONE',  ( -1.000000000000000000, -0.000000000000000000, -0.000000000000000000 ) ) ;
#270 = ORIENTED_EDGE ( 'NONE', *, *, #1005, .T. ) ;
#271 = LINE ( 'NONE', #636, #1096 ) ;
#272 = CIRCLE ( 'NONE', #922, 3.000000000000000000 ) ;
#273 = ORIENTED_EDGE ( 'NONE', *, *, #111, .T. ) ;
#274 = DIRECTION ( 'NONE',  ( 0.000000000000000000, 0.000000000000000000, 1.000000000000000000 ) ) ;
#275 = CARTESIAN_POINT ( 'NONE',  ( -3.000000000000000000, 160.0000000000000000, 0.000000000000000000 ) ) ;
#276 = EDGE_CURVE ( 'NONE', #719, #955, #164, .T. ) ;
#277 = VERTEX_POINT ( 'NONE', #407 ) ;
#278 = VERTEX_POINT ( 'NONE', #218 ) ;
#279 = CARTESIAN_POINT ( 'NONE',  ( 3.000000000000000000, 0.000000000000000000, -17.00000000000000000 ) ) ;
#280 = EDGE_LOOP ( 'NONE', ( #132, #361, #89, #544 ) ) ;
#281 = CARTESIAN_POINT ( 'NONE',  ( -3.000000000000000000, 50.00000000000000000, 3.000000000000011990 ) ) ;
#282 = VECTOR ( 'NONE', #1006, 1000.000000000000114 ) ;
#283 = ORIENTED_EDGE ( 'NONE', *, *, #970, .F. ) ;
#284 = DIRECTION ( 'NONE',  ( 1.000000000000000000, 0.000000000000000000, 0.000000000000000000 ) ) ;
#285 = VECTOR ( 'NONE', #303, 1000.000000000000000 ) ;
#286 = CARTESIAN_POINT ( 'NONE',  ( -3.000000000000000000, 90.00000000000000000, 3.000000000000011990 ) ) ;
#287 = CARTESIAN_POINT ( 'NONE',  ( -3.000000000000000000, -8.750000000000000000, 0.000000000000000000 ) ) ;
#288 = EDGE_LOOP ( 'NONE', ( #612, #443, #870, #273 ) ) ;
#289 = DIRECTION ( 'NONE',  ( 0.000000000000000000, 0.000000000000000000, -1.000000000000000000 ) ) ;
#290 = DIRECTION ( 'NONE',  ( 1.000000000000000000, 0.000000000000000000, -0.000000000000000000 ) ) ;
#291 = ORIENTED_EDGE ( 'NONE', *, *, #1194, .T. ) ;
#292 = EDGE_CURVE ( 'NONE', #662, #70, #1007, .T. ) ;
#293 = VERTEX_POINT ( 'NONE', #131 ) ;
#294 = AXIS2_PLACEMENT_3D ( 'NONE', #1204, #913, #720 ) ;
#295 = DIRECTION ( 'NONE',  ( -1.000000000000000000, 0.000000000000000000, 0.000000000000000000 ) ) ;
#296 = ORIENTED_EDGE ( 'NONE', *, *, #61, .T. ) ;
#297 = SURFACE_STYLE_USAGE ( .BOTH. , #191 ) ;
#298 = EDGE_CURVE ( 'NONE', #1215, #278, #728, .T. ) ;
#299 = PLANE ( 'NONE',  #227 ) ;
#300 = EDGE_LOOP ( 'NONE', ( #158, #510, #542, #710, #768, #645, #702, #230 ) ) ;
#301 =( NAMED_UNIT ( * ) SI_UNIT ( $, .STERADIAN. ) SOLID_ANGLE_UNIT ( ) );
#302 = DIRECTION ( 'NONE',  ( -1.000000000000000000, -0.000000000000000000, -0.000000000000000000 ) ) ;
#303 = DIRECTION ( 'NONE',  ( 0.000000000000000000, 1.000000000000000000, 0.000000000000000000 ) ) ;
#304 = AXIS2_PLACEMENT_3D ( 'NONE', #275, #202, #464 ) ;
#305 = PLANE ( 'NONE',  #395 ) ;
#306 = VERTEX_POINT ( 'NONE', #509 ) ;
#307 = CARTESIAN_POINT ( 'NONE',  ( 0.000000000000000000, 0.000000000000000000, 0.000000000000000000 ) ) ;
#308 = STYLED_ITEM ( 'NONE', ( #781 ), #488 ) ;
#309 = EDGE_CURVE ( 'NONE', #261, #941, #1132, .T. ) ;
#310 = CARTESIAN_POINT ( 'NONE',  ( 3.000000000000000000, 0.000000000000000000, 0.000000000000000000 ) ) ;
#311 = AXIS2_PLACEMENT_3D ( 'NONE', #751, #1134, #159 ) ;
#312 = EDGE_CURVE ( 'NONE', #278, #1169, #63, .T. ) ;
#313 = CARTESIAN_POINT ( 'NONE',  ( 7.000000000000000000, 4.375000000000000000, -7.577722283113839552 ) ) ;
#314 = CARTESIAN_POINT ( 'NONE',  ( 3.000000000000000000, 9.542756901161899563, 14.06896551724140032 ) ) ;
#315 = AXIS2_PLACEMENT_3D ( 'NONE', #1142, #657, #1044 ) ;
#316 = ORIENTED_EDGE ( 'NONE', *, *, #25, .F. ) ;
#317 = CYLINDRICAL_SURFACE ( 'NONE', #1011, 11.99999999999999822 ) ;
#318 = ADVANCED_FACE ( 'NONE', ( #163 ), #170, .F. ) ;
#319 = DIRECTION ( 'NONE',  ( -1.000000000000000000, -0.000000000000000000, -0.000000000000000000 ) ) ;
#320 = VERTEX_POINT ( 'NONE', #562 ) ;
#321 = EDGE_LOOP ( 'NONE', ( #687, #905 ) ) ;
#322 = ORIENTED_EDGE ( 'NONE', *, *, #807, .F. ) ;
#323 = DIRECTION ( 'NONE',  ( 0.000000000000000000, 1.000000000000000000, 0.000000000000000000 ) ) ;
#324 = LINE ( 'NONE', #1191, #335 ) ;
#325 = ORIENTED_EDGE ( 'NONE', *, *, #852, .T. ) ;
#326 = VECTOR ( 'NONE', #130, 1000.000000000000000 ) ;
#327 =( GEOMETRIC_REPRESENTATION_CONTEXT ( 3 ) GLOBAL_UNCERTAINTY_ASSIGNED_CONTEXT ( ( #128 ) ) GLOBAL_UNIT_ASSIGNED_CONTEXT ( ( #770, #1060, #967 ) ) REPRESENTATION_CONTEXT ( 'NONE', 'WORKASPACE' ) );
#328 = DIRECTION ( 'NONE',  ( 0.000000000000000000, 0.000000000000000000, -1.000000000000000000 ) ) ;
#329 = ORIENTED_EDGE ( 'NONE', *, *, #798, .T. ) ;
#330 = FACE_OUTER_BOUND ( 'NONE', #1230, .T. ) ;
#331 = EDGE_LOOP ( 'NONE', ( #1019, #523, #441, #139 ) ) ;
#332 = AXIS2_PLACEMENT_3D ( 'NONE', #1056, #450, #73 ) ;
#333 = FACE_OUTER_BOUND ( 'NONE', #729, .T. ) ;
#334 = EDGE_CURVE ( 'NONE', #479, #843, #953, .T. ) ;
#335 = VECTOR ( 'NONE', #808, 1000.000000000000000 ) ;
#336 = CARTESIAN_POINT ( 'NONE',  ( -3.000000000000000000, 0.000000000000000000, 0.000000000000000000 ) ) ;
#337 = DIRECTION ( 'NONE',  ( 0.000000000000000000, -1.000000000000000000, 0.000000000000000000 ) ) ;
#338 = ORIENTED_EDGE ( 'NONE', *, *, #404, .T. ) ;
#339 = CARTESIAN_POINT ( 'NONE',  ( -3.000000000000000000, 0.000000000000000000, -17.00000000000000000 ) ) ;
#340 = DIRECTION ( 'NONE',  ( 0.000000000000000000, 0.000000000000000000, 1.000000000000000000 ) ) ;
#341 = FACE_OUTER_BOUND ( 'NONE', #965, .T. ) ;
#342 = EDGE_LOOP ( 'NONE', ( #1025, #1125, #1094, #771 ) ) ;
#343 = DIRECTION ( 'NONE',  ( 0.000000000000000000, 0.000000000000000000, 1.000000000000000000 ) ) ;
#344 = EDGE_CURVE ( 'NONE', #938, #293, #434, .T. ) ;
#345 = AXIS2_PLACEMENT_3D ( 'NONE', #1121, #284, #289 ) ;
#346 = CARTESIAN_POINT ( 'NONE',  ( 3.000000000000000000, 160.0000000000000000, -12.00000000000000000 ) ) ;
#347 = EDGE_CURVE ( 'NONE', #740, #413, #125, .T. ) ;
#348 = ORIENTED_EDGE ( 'NONE', *, *, #892, .F. ) ;
#349 = CARTESIAN_POINT ( 'NONE',  ( -3.000000000000000000, -8.750000000000000000, -1.549999999999999822 ) ) ;
#350 = ORIENTED_EDGE ( 'NONE', *, *, #798, .F. ) ;
#351 = LINE ( 'NONE', #986, #765 ) ;
#352 = EDGE_CURVE ( 'NONE', #726, #1133, #209, .T. ) ;
#353 = CARTESIAN_POINT ( 'NONE',  ( -3.000000000000000000, 2.081899558550500280E-15, 17.00000000000000000 ) ) ;
#354 = ORIENTED_EDGE ( 'NONE', *, *, #37, .F. ) ;
#355 = VERTEX_POINT ( 'NONE', #556 ) ;
#356 = DIRECTION ( 'NONE',  ( 0.000000000000000000, 0.000000000000000000, -1.000000000000000000 ) ) ;
#357 = VECTOR ( 'NONE', #204, 1000.000000000000000 ) ;
#358 = VERTEX_POINT ( 'NONE', #349 ) ;
#359 = FACE_OUTER_BOUND ( 'NONE', #557, .T. ) ;
#360 = DIRECTION ( 'NONE',  ( 0.000000000000000000, -1.000000000000000000, 0.000000000000000000 ) ) ;
#361 = ORIENTED_EDGE ( 'NONE', *, *, #689, .T. ) ;
#362 = CARTESIAN_POINT ( 'NONE',  ( -3.000000000000000000, 110.0000000000000000, -3.000000000000002665 ) ) ;
#363 = ORIENTED_EDGE ( 'NONE', *, *, #439, .F. ) ;
#364 = DIRECTION ( 'NONE',  ( 0.000000000000000000, -1.000000000000000000, 0.000000000000000000 ) ) ;
#365 = PRODUCT ( '\X2\52a05de58fde6746\X0\1', '\X2\52a05de58fde6746\X0\1', '', ( #896 ) ) ;
#366 = DIRECTION ( 'NONE',  ( -1.000000000000000000, -0.000000000000000000, -0.000000000000000000 ) ) ;
#367 = AXIS2_PLACEMENT_3D ( 'NONE', #855, #1075, #183 ) ;
#368 = ORIENTED_EDGE ( 'NONE', *, *, #1098, .T. ) ;
#369 = DIRECTION ( 'NONE',  ( 0.000000000000000000, -0.5613386412448169160, 0.8275862068965521567 ) ) ;
#370 = ORIENTED_EDGE ( 'NONE', *, *, #1004, .T. ) ;
#371 = DIRECTION ( 'NONE',  ( -0.7071067811865473507, -4.317746103058562004E-08, -0.7071067811865463515 ) ) ;
#372 = VECTOR ( 'NONE', #81, 1000.000000000000000 ) ;
#373 = EDGE_CURVE ( 'NONE', #320, #1211, #1020, .T. ) ;
#374 = CIRCLE ( 'NONE', #425, 12.00000000000000000 ) ;
#375 = CARTESIAN_POINT ( 'NONE',  ( 12.99999999999999822, 69.99999999999998579, -2.999999999999987566 ) ) ;
#376 = ORIENTED_EDGE ( 'NONE', *, *, #651, .F. ) ;
#377 = CARTESIAN_POINT ( 'NONE',  ( 2.999999999999999112, 50.00000000000000000, -2.999999999999987566 ) ) ;
#378 = VECTOR ( 'NONE', #831, 1000.000000000000000 ) ;
#379 = ORIENTED_EDGE ( 'NONE', *, *, #9, .F. ) ;
#380 = LINE ( 'NONE', #643, #372 ) ;
#381 = DIRECTION ( 'NONE',  ( 0.000000000000000000, 0.000000000000000000, -1.000000000000000000 ) ) ;
#382 = VERTEX_POINT ( 'NONE', #145 ) ;
#383 = CARTESIAN_POINT ( 'NONE',  ( 2.999999999999999112, 90.00000000000000000, 1.237225175534340802E-14 ) ) ;
#384 = DIRECTION ( 'NONE',  ( 0.000000000000000000, 0.000000000000000000, 1.000000000000000000 ) ) ;
#385 = DIRECTION ( 'NONE',  ( -1.000000000000000000, -0.000000000000000000, -0.000000000000000000 ) ) ;
#386 = CARTESIAN_POINT ( 'NONE',  ( 1.550000000000000044, 4.375000000000000000, -7.577722283113839552 ) ) ;
#387 = ORIENTED_EDGE ( 'NONE', *, *, #708, .T. ) ;
#388 = CARTESIAN_POINT ( 'NONE',  ( -3.000000000000000000, 50.00000000000000000, -2.999999999999987566 ) ) ;
#389 = LINE ( 'NONE', #1188, #357 ) ;
#390 = CARTESIAN_POINT ( 'NONE',  ( -3.000000000000000000, 16.27882059609969900, -24.00000000000000000 ) ) ;
#391 = ORIENTED_EDGE ( 'NONE', *, *, #1103, .F. ) ;
#392 = AXIS2_PLACEMENT_3D ( 'NONE', #518, #1228, #10 ) ;
#393 = DIRECTION ( 'NONE',  ( -1.000000000000000000, -0.000000000000000000, -0.000000000000000000 ) ) ;
#394 = CARTESIAN_POINT ( 'NONE',  ( 1.549999999999999378, 4.375000000000000000, 7.577722283113839552 ) ) ;
#395 = AXIS2_PLACEMENT_3D ( 'NONE', #696, #109, #290 ) ;
#396 = DIRECTION ( 'NONE',  ( 1.000000000000000000, 0.000000000000000000, 0.000000000000000000 ) ) ;
#397 = FACE_BOUND ( 'NONE', #1085, .T. ) ;
#398 = FACE_OUTER_BOUND ( 'NONE', #678, .T. ) ;
#399 = ADVANCED_FACE ( 'NONE', ( #838 ), #748, .F. ) ;
#400 = DIRECTION ( 'NONE',  ( 0.000000000000000000, 1.000000000000000000, 0.000000000000000000 ) ) ;
#401 = DIRECTION ( 'NONE',  ( 0.000000000000000000, 0.000000000000000000, -1.000000000000000000 ) ) ;
#402 = CARTESIAN_POINT ( 'NONE',  ( 12.99999999999999822, 50.00000000000000000, 3.000000000000011990 ) ) ;
#403 = AXIS2_PLACEMENT_3D ( 'NONE', #1145, #366, #161 ) ;
#404 = EDGE_CURVE ( 'NONE', #1133, #726, #67, .T. ) ;
#405 = FACE_OUTER_BOUND ( 'NONE', #150, .T. ) ;
#406 = VERTEX_POINT ( 'NONE', #377 ) ;
#407 = CARTESIAN_POINT ( 'NONE',  ( -3.000000000000000000, 4.375000000000000000, 9.127722283113838486 ) ) ;
#408 = ORIENTED_EDGE ( 'NONE', *, *, #1047, .T. ) ;
#409 = ORIENTED_EDGE ( 'NONE', *, *, #439, .T. ) ;
#410 = AXIS2_PLACEMENT_3D ( 'NONE', #1217, #504, #531 ) ;
#411 = CYLINDRICAL_SURFACE ( 'NONE', #690, 17.00000000000000000 ) ;
#412 = CARTESIAN_POINT ( 'NONE',  ( 7.000000000000000000, 4.375000000000000000, 9.127722283113838486 ) ) ;
#413 = VERTEX_POINT ( 'NONE', #448 ) ;
#414 = ORIENTED_EDGE ( 'NONE', *, *, #460, .F. ) ;
#415 = CARTESIAN_POINT ( 'NONE',  ( -3.000000000000000000, 160.0000000000000000, 12.00000000000000000 ) ) ;
#416 = ORIENTED_EDGE ( 'NONE', *, *, #180, .F. ) ;
#417 = CIRCLE ( 'NONE', #1136, 3.000000000000000000 ) ;
#418 = CIRCLE ( 'NONE', #244, 1.549999999999999378 ) ;
#419 = EDGE_CURVE ( 'NONE', #891, #358, #788, .T. ) ;
#420 = CARTESIAN_POINT ( 'NONE',  ( -18.03600000000000136, 16.27882059609969900, -24.00000000000000000 ) ) ;
#421 = VERTEX_POINT ( 'NONE', #947 ) ;
#422 = VECTOR ( 'NONE', #829, 1000.000000000000000 ) ;
#423 = LINE ( 'NONE', #821, #140 ) ;
#424 = AXIS2_PLACEMENT_3D ( 'NONE', #667, #1066, #598 ) ;
#426 = CARTESIAN_POINT ( 'NONE',  ( 2.999999999999999112, 30.00000000000000355, -2.999999999999987566 ) ) ;
#425 = AXIS2_PLACEMENT_3D ( 'NONE', #1149, #1233, #650 ) ;
#427 = DIRECTION ( 'NONE',  ( 0.000000000000000000, 0.000000000000000000, -1.000000000000000000 ) ) ;
#428 = ORIENTED_EDGE ( 'NONE', *, *, #32, .F. ) ;
#429 =( GEOMETRIC_REPRESENTATION_CONTEXT ( 3 ) GLOBAL_UNCERTAINTY_ASSIGNED_CONTEXT ( ( #1102 ) ) GLOBAL_UNIT_ASSIGNED_CONTEXT ( ( #96, #13, #301 ) ) REPRESENTATION_CONTEXT ( 'NONE', 'WORKASPACE' ) );
#430 = FACE_OUTER_BOUND ( 'NONE', #607, .T. ) ;
#431 = ORIENTED_EDGE ( 'NONE', *, *, #180, .T. ) ;
#432 = CIRCLE ( 'NONE', #1151, 1.549999999999999822 ) ;
#433 = LINE ( 'NONE', #924, #1224 ) ;
#434 = CIRCLE ( 'NONE', #147, 2.999999999999999112 ) ;
#435 = FACE_OUTER_BOUND ( 'NONE', #914, .T. ) ;
#436 = VERTEX_POINT ( 'NONE', #49 ) ;
#437 = ADVANCED_FACE ( 'NONE', ( #466 ), #548, .F. ) ;
#438 = LINE ( 'NONE', #339, #940 ) ;
#439 = EDGE_CURVE ( 'NONE', #23, #830, #490, .T. ) ;
#440 = DIRECTION ( 'NONE',  ( -1.000000000000000000, -0.000000000000000000, -0.000000000000000000 ) ) ;
#441 = ORIENTED_EDGE ( 'NONE', *, *, #861, .F. ) ;
#442 = FILL_AREA_STYLE_COLOUR ( '', #238 ) ;
#443 = ORIENTED_EDGE ( 'NONE', *, *, #599, .F. ) ;
#444 = CARTESIAN_POINT ( 'NONE',  ( -3.000000000000000000, 0.000000000000000000, 0.000000000000000000 ) ) ;
#445 = EDGE_CURVE ( 'NONE', #863, #963, #1246, .T. ) ;
#446 = DIRECTION ( 'NONE',  ( 1.000000000000000000, 0.000000000000000000, 0.000000000000000000 ) ) ;
#447 = EDGE_LOOP ( 'NONE', ( #316, #1253, #1064, #1271 ) ) ;
#448 = CARTESIAN_POINT ( 'NONE',  ( 3.000000000000000000, 160.0000000000000000, -6.550000000000000711 ) ) ;
#449 = ORIENTED_EDGE ( 'NONE', *, *, #352, .T. ) ;
#450 = DIRECTION ( 'NONE',  ( 1.000000000000000000, 0.000000000000000000, 0.000000000000000000 ) ) ;
#451 = CARTESIAN_POINT ( 'NONE',  ( 3.000000000000000000, 160.0000000000000000, 6.550000000000000711 ) ) ;
#452 = VERTEX_POINT ( 'NONE', #762 ) ;
#453 = DIRECTION ( 'NONE',  ( 0.000000000000000000, 0.000000000000000000, -1.000000000000000000 ) ) ;
#454 = AXIS2_PLACEMENT_3D ( 'NONE', #1014, #894, #42 ) ;
#455 = ORIENTED_EDGE ( 'NONE', *, *, #1183, .T. ) ;
#456 = CARTESIAN_POINT ( 'NONE',  ( 3.000000000000000000, 160.0000000000000000, 12.00000000000000000 ) ) ;
#457 = DIRECTION ( 'NONE',  ( 0.000000000000000000, 0.000000000000000000, -1.000000000000000000 ) ) ;
#458 = ORIENTED_EDGE ( 'NONE', *, *, #25, .T. ) ;
#459 = DIRECTION ( 'NONE',  ( 0.000000000000000000, 0.000000000000000000, 1.000000000000000000 ) ) ;
#460 = EDGE_CURVE ( 'NONE', #382, #897, #271, .T. ) ;
#461 = ORIENTED_EDGE ( 'NONE', *, *, #930, .T. ) ;
#462 = CARTESIAN_POINT ( 'NONE',  ( -3.000000000000000000, 129.9999999999999716, -3.000000000000002665 ) ) ;
#463 = VECTOR ( 'NONE', #1195, 1000.000000000000000 ) ;
#464 = DIRECTION ( 'NONE',  ( 0.000000000000000000, 0.000000000000000000, 1.000000000000000000 ) ) ;
#465 = EDGE_LOOP ( 'NONE', ( #797, #973, #370, #622 ) ) ;
#466 = FACE_OUTER_BOUND ( 'NONE', #835, .T. ) ;
#467 = ORIENTED_EDGE ( 'NONE', *, *, #1214, .T. ) ;
#468 = FACE_OUTER_BOUND ( 'NONE', #1244, .T. ) ;
#469 = CIRCLE ( 'NONE', #315, 17.00000000000001066 ) ;
#470 = ORIENTED_EDGE ( 'NONE', *, *, #1119, .F. ) ;
#471 = DIRECTION ( 'NONE',  ( 0.000000000000000000, -1.000000000000000000, 0.000000000000000000 ) ) ;
#472 = ORIENTED_EDGE ( 'NONE', *, *, #822, .T. ) ;
#473 = CARTESIAN_POINT ( 'NONE',  ( 3.000000000000000000, 0.000000000000000000, 0.000000000000000000 ) ) ;
#474 = VECTOR ( 'NONE', #900, 1000.000000000000000 ) ;
#475 = PLANE ( 'NONE',  #841 ) ;
#476 = VERTEX_POINT ( 'NONE', #1049 ) ;
#477 = CARTESIAN_POINT ( 'NONE',  ( 12.99999999999999822, 30.00000000000000000, 1.604619215278546562E-14 ) ) ;
#478 = LINE ( 'NONE', #375, #854 ) ;
#479 = VERTEX_POINT ( 'NONE', #858 ) ;
#480 = FACE_BOUND ( 'NONE', #1114, .T. ) ;
#481 = CARTESIAN_POINT ( 'NONE',  ( 7.000000000000000000, 0.000000000000000000, 2.549999999999999822 ) ) ;
#482 = ORIENTED_EDGE ( 'NONE', *, *, #1139, .T. ) ;
#483 = DIRECTION ( 'NONE',  ( 1.000000000000000000, 0.000000000000000000, 0.000000000000000000 ) ) ;
#484 = VECTOR ( 'NONE', #360, 1000.000000000000000 ) ;
#485 = ORIENTED_EDGE ( 'NONE', *, *, #87, .F. ) ;
#486 = AXIS2_PLACEMENT_3D ( 'NONE', #653, #143, #252 ) ;
#487 = DIRECTION ( 'NONE',  ( 0.000000000000000000, 0.000000000000000000, 1.000000000000000000 ) ) ;
#488 = MANIFOLD_SOLID_BREP ( '\X2\52079664\X0\-\X2\62c94f38\X0\2', #498 ) ;
#489 = AXIS2_PLACEMENT_3D ( 'NONE', #823, #1216, #340 ) ;
#490 = CIRCLE ( 'NONE', #1074, 3.000000000000000000 ) ;
#491 = CARTESIAN_POINT ( 'NONE',  ( 1.549999999999999600, -8.750000000000000000, 0.000000000000000000 ) ) ;
#492 = FACE_OUTER_BOUND ( 'NONE', #610, .T. ) ;
#493 = FACE_BOUND ( 'NONE', #820, .T. ) ;
#494 = EDGE_CURVE ( 'NONE', #867, #662, #715, .T. ) ;
#495 = DIRECTION ( 'NONE',  ( -1.000000000000000000, -0.000000000000000000, -0.000000000000000000 ) ) ;
#496 = VECTOR ( 'NONE', #33, 1000.000000000000000 ) ;
#497 = DIRECTION ( 'NONE',  ( -1.000000000000000000, 0.000000000000000000, 0.000000000000000000 ) ) ;
#498 = CLOSED_SHELL ( 'NONE', ( #249, #971, #540, #167, #1161, #948, #664, #513, #836, #936, #754, #1221, #692, #267, #79, #1265, #553, #212, #668, #134, #1062, #647, #786, #318, #217, #1077, #675, #116, #46, #1178, #437, #1240, #530, #399, #1143, #617, #1018, #1072 ) ) ;
#499 = CARTESIAN_POINT ( 'NONE',  ( -3.000000000000000000, 16.27882059609969900, -12.00000000000000000 ) ) ;
#500 = DIRECTION ( 'NONE',  ( -1.000000000000000000, -0.000000000000000000, -0.000000000000000000 ) ) ;
#501 = EDGE_CURVE ( 'NONE', #993, #891, #1078, .T. ) ;
#502 = CIRCLE ( 'NONE', #489, 3.000000000000000000 ) ;
#503 = DIRECTION ( 'NONE',  ( -1.000000000000000000, -0.000000000000000000, -0.000000000000000000 ) ) ;
#504 = DIRECTION ( 'NONE',  ( -1.000000000000000000, 0.000000000000000000, 0.000000000000000000 ) ) ;
#505 = ORIENTED_EDGE ( 'NONE', *, *, #352, .F. ) ;
#506 = AXIS2_PLACEMENT_3D ( 'NONE', #1222, #535, #259 ) ;
#507 = ORIENTED_EDGE ( 'NONE', *, *, #927, .F. ) ;
#508 = DIRECTION ( 'NONE',  ( 0.000000000000000000, -0.5613386412448169160, -0.8275862068965521567 ) ) ;
#509 = CARTESIAN_POINT ( 'NONE',  ( -3.000000000000000000, 30.00000000000000355, 3.000000000000011990 ) ) ;
#510 = ORIENTED_EDGE ( 'NONE', *, *, #628, .T. ) ;
#511 = ORIENTED_EDGE ( 'NONE', *, *, #988, .T. ) ;
#512 = AXIS2_PLACEMENT_3D ( 'NONE', #582, #500, #192 ) ;
#513 = ADVANCED_FACE ( 'NONE', ( #684 ), #1165, .F. ) ;
#514 = AXIS2_PLACEMENT_3D ( 'NONE', #1147, #646, #57 ) ;
#515 = DIRECTION ( 'NONE',  ( 1.000000000000000000, 0.000000000000000000, 0.000000000000000000 ) ) ;
#516 = CARTESIAN_POINT ( 'NONE',  ( -3.000000000000000000, 0.000000000000000000, 0.000000000000000000 ) ) ;
#517 = ORIENTED_EDGE ( 'NONE', *, *, #176, .T. ) ;
#518 = CARTESIAN_POINT ( 'NONE',  ( 1.549999999999999600, -8.750000000000000000, 0.000000000000000000 ) ) ;
#519 = AXIS2_PLACEMENT_3D ( 'NONE', #694, #233, #800 ) ;
#520 = FACE_OUTER_BOUND ( 'NONE', #961, .T. ) ;
#521 = CIRCLE ( 'NONE', #527, 3.000000000000000000 ) ;
#522 = DIRECTION ( 'NONE',  ( 0.000000000000000000, 0.000000000000000000, 1.000000000000000000 ) ) ;
#523 = ORIENTED_EDGE ( 'NONE', *, *, #87, .T. ) ;
#524 = CIRCLE ( 'NONE', #403, 1.549999999999999378 ) ;
#525 = CARTESIAN_POINT ( 'NONE',  ( 2.999999986629790172, 4.375000183186450009, -4.577722296484060038 ) ) ;
#526 = AXIS2_PLACEMENT_3D ( 'NONE', #84, #74, #1152 ) ;
#527 = AXIS2_PLACEMENT_3D ( 'NONE', #739, #149, #541 ) ;
#529 = DIRECTION ( 'NONE',  ( -1.000000000000000000, -0.000000000000000000, -0.000000000000000000 ) ) ;
#528 = VECTOR ( 'NONE', #846, 1000.000000000000000 ) ;
#530 = ADVANCED_FACE ( 'NONE', ( #86 ), #1175, .F. ) ;
#531 = DIRECTION ( 'NONE',  ( 0.000000000000000000, 0.000000000000000000, 1.000000000000000000 ) ) ;
#532 = ORIENTED_EDGE ( 'NONE', *, *, #1196, .F. ) ;
#533 = EDGE_CURVE ( 'NONE', #955, #719, #611, .T. ) ;
#534 = FACE_BOUND ( 'NONE', #630, .T. ) ;
#535 = DIRECTION ( 'NONE',  ( 1.000000000000000000, 0.000000000000000000, 0.000000000000000000 ) ) ;
#536 = EDGE_LOOP ( 'NONE', ( #409, #1173, #666, #17 ) ) ;
#537 = EDGE_CURVE ( 'NONE', #716, #623, #14, .T. ) ;
#538 = DIRECTION ( 'NONE',  ( 0.000000000000000000, 0.000000000000000000, 1.000000000000000000 ) ) ;
#539 = CARTESIAN_POINT ( 'NONE',  ( -3.000000000000000000, 69.99999999999998579, -2.999999999999987566 ) ) ;
#540 = ADVANCED_FACE ( 'NONE', ( #1260 ), #185, .F. ) ;
#541 = DIRECTION ( 'NONE',  ( 0.000000000000000000, 0.000000000000000000, -1.000000000000000000 ) ) ;
#542 = ORIENTED_EDGE ( 'NONE', *, *, #1167, .T. ) ;
#543 = CARTESIAN_POINT ( 'NONE',  ( 3.000000000000000000, 4.375000000000000000, 7.577722283113839552 ) ) ;
#544 = ORIENTED_EDGE ( 'NONE', *, *, #501, .F. ) ;
#545 = CARTESIAN_POINT ( 'NONE',  ( -3.000000000000000000, 0.000000000000000000, 0.000000000000000000 ) ) ;
#546 = FACE_OUTER_BOUND ( 'NONE', #848, .T. ) ;
#547 = EDGE_LOOP ( 'NONE', ( #575, #1150, #714, #162, #215, #184, #431, #554 ) ) ;
#548 = CYLINDRICAL_SURFACE ( 'NONE', #117, 3.000000000000000000 ) ;
#549 = ORIENTED_EDGE ( 'NONE', *, *, #1086, .T. ) ;
#550 = CARTESIAN_POINT ( 'NONE',  ( -3.000000000000000000, 90.00000000000000000, -2.999999999999987566 ) ) ;
#551 = CIRCLE ( 'NONE', #243, 1.550000000000000266 ) ;
#552 = CARTESIAN_POINT ( 'NONE',  ( 3.000000000000000000, 0.000000000000000000, 0.000000000000000000 ) ) ;
#553 = ADVANCED_FACE ( 'NONE', ( #981, #493, #104, #884, #878, #94, #480, #7, #397 ), #1054, .T. ) ;
#554 = ORIENTED_EDGE ( 'NONE', *, *, #731, .F. ) ;
#555 = AXIS2_PLACEMENT_3D ( 'NONE', #824, #997, #604 ) ;
#556 = CARTESIAN_POINT ( 'NONE',  ( 3.000000000000000000, 90.00000000000000000, 3.000000000000011990 ) ) ;
#557 = EDGE_LOOP ( 'NONE', ( #1262, #1131, #350, #214 ) ) ;
#558 = FACE_OUTER_BOUND ( 'NONE', #331, .T. ) ;
#559 = AXIS2_PLACEMENT_3D ( 'NONE', #642, #750, #255 ) ;
#560 = CARTESIAN_POINT ( 'NONE',  ( -3.000000000000000000, 160.0000000000000000, 12.00000000000000000 ) ) ;
#561 = ORIENTED_EDGE ( 'NONE', *, *, #32, .T. ) ;
#562 = CARTESIAN_POINT ( 'NONE',  ( -3.000000000000000000, 110.0000000000000000, -3.000000000000002665 ) ) ;
#563 = VERTEX_POINT ( 'NONE', #888 ) ;
#564 = CARTESIAN_POINT ( 'NONE',  ( 7.000000000000000000, 4.375000000000000000, -7.577722283113839552 ) ) ;
#565 = LINE ( 'NONE', #677, #257 ) ;
#566 = AXIS2_PLACEMENT_3D ( 'NONE', #679, #674, #581 ) ;
#567 = ORIENTED_EDGE ( 'NONE', *, *, #651, .T. ) ;
#568 = CARTESIAN_POINT ( 'NONE',  ( 7.000000000000000000, -8.750000000000000000, 1.549999999999999822 ) ) ;
#569 = EDGE_CURVE ( 'NONE', #1232, #355, #1225, .T. ) ;
#570 = DIRECTION ( 'NONE',  ( 0.000000000000000000, 0.000000000000000000, -1.000000000000000000 ) ) ;
#571 = EDGE_LOOP ( 'NONE', ( #746, #920, #35, #1163 ) ) ;
#572 = CARTESIAN_POINT ( 'NONE',  ( 1.549999999999999600, -8.750000094646336990, -1.550000000000001377 ) ) ;
#573 = EDGE_CURVE ( 'NONE', #436, #479, #1267, .T. ) ;
#574 = CARTESIAN_POINT ( 'NONE',  ( 3.000000000000000000, 0.000000000000000000, 2.549999999999999822 ) ) ;
#575 = ORIENTED_EDGE ( 'NONE', *, *, #137, .F. ) ;
#576 = CARTESIAN_POINT ( 'NONE',  ( 7.000000000000000000, 0.000000000000000000, 0.000000000000000000 ) ) ;
#577 = DIRECTION ( 'NONE',  ( 0.000000000000000000, 0.000000000000000000, -1.000000000000000000 ) ) ;
#578 = DIRECTION ( 'NONE',  ( 0.000000000000000000, 0.000000000000000000, -1.000000000000000000 ) ) ;
#579 = FACE_OUTER_BOUND ( 'NONE', #1223, .T. ) ;
#580 = ORIENTED_EDGE ( 'NONE', *, *, #1139, .F. ) ;
#581 = DIRECTION ( 'NONE',  ( 0.000000000000000000, 0.000000000000000000, -1.000000000000000000 ) ) ;
#582 = CARTESIAN_POINT ( 'NONE',  ( 12.99999999999999822, 90.00000000000000000, 1.237225175534340802E-14 ) ) ;
#583 = ORIENTED_EDGE ( 'NONE', *, *, #309, .T. ) ;
#584 = VERTEX_POINT ( 'NONE', #388 ) ;
#585 = CIRCLE ( 'NONE', #588, 6.550000000000000711 ) ;
#586 = ORIENTED_EDGE ( 'NONE', *, *, #689, .F. ) ;
#587 = LINE ( 'NONE', #1172, #101 ) ;
#588 = AXIS2_PLACEMENT_3D ( 'NONE', #862, #1258, #964 ) ;
#589 = CIRCLE ( 'NONE', #506, 3.000000000000000000 ) ;
#590 = CARTESIAN_POINT ( 'NONE',  ( -3.000000000000000000, 0.000000000000000000, 0.000000000000000000 ) ) ;
#591 = CIRCLE ( 'NONE', #813, 2.999999999999999112 ) ;
#592 = AXIS2_PLACEMENT_3D ( 'NONE', #590, #776, #987 ) ;
#593 = CYLINDRICAL_SURFACE ( 'NONE', #512, 3.000000000000000000 ) ;
#594 = APPLICATION_CONTEXT ( 'automotive_design' ) ;
#595 = AXIS2_PLACEMENT_3D ( 'NONE', #477, #153, #66 ) ;
#596 = CYLINDRICAL_SURFACE ( 'NONE', #983, 1.549999999999999378 ) ;
#597 = CIRCLE ( 'NONE', #392, 1.549999999999999822 ) ;
#598 = DIRECTION ( 'NONE',  ( 0.000000000000000000, 0.000000000000000000, 1.000000000000000000 ) ) ;
#599 = EDGE_CURVE ( 'NONE', #382, #278, #1185, .T. ) ;
#600 = DIRECTION ( 'NONE',  ( 0.000000000000000000, 0.000000000000000000, -1.000000000000000000 ) ) ;
#601 = EDGE_LOOP ( 'NONE', ( #815, #472, #115, #72 ) ) ;
#602 = DIRECTION ( 'NONE',  ( 0.000000000000000000, 0.000000000000000000, 1.000000000000000000 ) ) ;
#603 = DIRECTION ( 'NONE',  ( 0.000000000000000000, 0.000000000000000000, 1.000000000000000000 ) ) ;
#604 = DIRECTION ( 'NONE',  ( 0.000000000000000000, 0.000000000000000000, 1.000000000000000000 ) ) ;
#605 = ORIENTED_EDGE ( 'NONE', *, *, #208, .F. ) ;
#606 = DIRECTION ( 'NONE',  ( 0.000000000000000000, 0.000000000000000000, -1.000000000000000000 ) ) ;
#607 = EDGE_LOOP ( 'NONE', ( #1192, #1238, #18, #190 ) ) ;
#608 = CARTESIAN_POINT ( 'NONE',  ( 12.99999999999999822, 30.00000000000000355, -2.999999999999987566 ) ) ;
#609 = CARTESIAN_POINT ( 'NONE',  ( 3.000000000000000000, 0.000000000000000000, -3.000000000000002665 ) ) ;
#610 = EDGE_LOOP ( 'NONE', ( #1081, #136, #1037, #907 ) ) ;
#611 = CIRCLE ( 'NONE', #424, 2.549999999999999822 ) ;
#612 = ORIENTED_EDGE ( 'NONE', *, *, #312, .F. ) ;
#613 = EDGE_CURVE ( 'NONE', #293, #938, #625, .T. ) ;
#614 = CARTESIAN_POINT ( 'NONE',  ( -3.000000000000000000, 0.000000000000000000, 2.549999999999999822 ) ) ;
#615 = CYLINDRICAL_SURFACE ( 'NONE', #1234, 17.00000000000000000 ) ;
#616 = ORIENTED_EDGE ( 'NONE', *, *, #879, .F. ) ;
#617 = ADVANCED_FACE ( 'NONE', ( #405 ), #31, .T. ) ;
#618 = VECTOR ( 'NONE', #337, 1000.000000000000000 ) ;
#619 = AXIS2_PLACEMENT_3D ( 'NONE', #641, #459, #1028 ) ;
#620 = FACE_OUTER_BOUND ( 'NONE', #206, .T. ) ;
#621 = CARTESIAN_POINT ( 'NONE',  ( -3.000000000000000000, 4.375000000000000000, 7.577722283113839552 ) ) ;
#622 = ORIENTED_EDGE ( 'NONE', *, *, #1117, .F. ) ;
#623 = VERTEX_POINT ( 'NONE', #917 ) ;
#624 = DIRECTION ( 'NONE',  ( 0.000000000000000000, 0.5613386412448176932, 0.8275862068965516016 ) ) ;
#625 = CIRCLE ( 'NONE', #648, 3.000000000000000000 ) ;
#626 = DIRECTION ( 'NONE',  ( -1.000000000000000000, 0.000000000000000000, 0.000000000000000000 ) ) ;
#627 = AXIS2_PLACEMENT_3D ( 'NONE', #806, #529, #20 ) ;
#628 = EDGE_CURVE ( 'NONE', #963, #843, #1112, .T. ) ;
#629 = FACE_OUTER_BOUND ( 'NONE', #144, .T. ) ;
#630 = EDGE_LOOP ( 'NONE', ( #1101, #507, #12, #803 ) ) ;
#631 = DIRECTION ( 'NONE',  ( 1.000000000000000000, 0.000000000000000000, 0.000000000000000000 ) ) ;
#632 = CONICAL_SURFACE ( 'NONE', #526, 1.415941433679299477, 0.7853981633974490562 ) ;
#634 = CARTESIAN_POINT ( 'NONE',  ( 2.999999986629780402, -8.750000183186449121, -2.999999986629780402 ) ) ;
#633 = VECTOR ( 'NONE', #364, 1000.000000000000000 ) ;
#635 = ORIENTED_EDGE ( 'NONE', *, *, #1045, .T. ) ;
#636 = CARTESIAN_POINT ( 'NONE',  ( 7.000000000000000000, 4.375000000000000000, -6.027722283113839730 ) ) ;
#637 = CIRCLE ( 'NONE', #1079, 17.00000000000001066 ) ;
#638 = LINE ( 'NONE', #1206, #241 ) ;
#639 = CARTESIAN_POINT ( 'NONE',  ( -3.000000000000000000, 110.0000000000000000, 2.999999999999997335 ) ) ;
#640 = VERTEX_POINT ( 'NONE', #415 ) ;
#641 = CARTESIAN_POINT ( 'NONE',  ( 12.99999999999999822, 110.0000000000000000, 2.999999999999997335 ) ) ;
#642 = CARTESIAN_POINT ( 'NONE',  ( 3.000000000000000000, 0.000000000000000000, 0.000000000000000000 ) ) ;
#643 = CARTESIAN_POINT ( 'NONE',  ( 12.99999999999999822, 50.00000000000000000, -2.999999999999987566 ) ) ;
#644 = CARTESIAN_POINT ( 'NONE',  ( -3.000000000000000000, -8.750000000000000000, 1.549999999999999822 ) ) ;
#645 = ORIENTED_EDGE ( 'NONE', *, *, #208, .T. ) ;
#646 = DIRECTION ( 'NONE',  ( -1.000000000000000000, 0.000000000000000000, 0.000000000000000000 ) ) ;
#647 = ADVANCED_FACE ( 'NONE', ( #110 ), #1190, .F. ) ;
#648 = AXIS2_PLACEMENT_3D ( 'NONE', #727, #626, #328 ) ;
#649 = ORIENTED_EDGE ( 'NONE', *, *, #171, .T. ) ;
#650 = DIRECTION ( 'NONE',  ( 0.000000000000000000, 0.000000000000000000, -1.000000000000000000 ) ) ;
#651 = EDGE_CURVE ( 'NONE', #406, #662, #707, .T. ) ;
#652 = VECTOR ( 'NONE', #108, 1000.000000000000000 ) ;
#653 = CARTESIAN_POINT ( 'NONE',  ( 1.415941433679299921, 4.375000000000000000, -7.577722283113839552 ) ) ;
#654 = EDGE_LOOP ( 'NONE', ( #338, #449 ) ) ;
#655 = DIRECTION ( 'NONE',  ( 1.000000000000000000, 0.000000000000000000, 0.000000000000000000 ) ) ;
#656 = ORIENTED_EDGE ( 'NONE', *, *, #268, .F. ) ;
#657 = DIRECTION ( 'NONE',  ( 1.000000000000000000, 0.000000000000000000, 0.000000000000000000 ) ) ;
#658 = LINE ( 'NONE', #937, #179 ) ;
#659 = ORIENTED_EDGE ( 'NONE', *, *, #1031, .T. ) ;
#660 = CIRCLE ( 'NONE', #410, 3.000000000000000000 ) ;
#661 = DIRECTION ( 'NONE',  ( -1.000000000000000000, -0.000000000000000000, -0.000000000000000000 ) ) ;
#662 = VERTEX_POINT ( 'NONE', #426 ) ;
#663 = LINE ( 'NONE', #1051, #528 ) ;
#664 = ADVANCED_FACE ( 'NONE', ( #893 ), #411, .T. ) ;
#665 = FACE_OUTER_BOUND ( 'NONE', #845, .T. ) ;
#666 = ORIENTED_EDGE ( 'NONE', *, *, #232, .T. ) ;
#667 = CARTESIAN_POINT ( 'NONE',  ( -3.000000000000000000, 0.000000000000000000, 0.000000000000000000 ) ) ;
#668 = ADVANCED_FACE ( 'NONE', ( #1097 ), #317, .F. ) ;
#669 = VERTEX_POINT ( 'NONE', #1092 ) ;
#670 = PLANE ( 'NONE',  #205 ) ;
#671 = DIRECTION ( 'NONE',  ( 0.000000000000000000, 0.000000000000000000, -1.000000000000000000 ) ) ;
#672 = AXIS2_PLACEMENT_3D ( 'NONE', #383, #1180, #178 ) ;
#673 = EDGE_LOOP ( 'NONE', ( #532, #1035, #747, #482 ) ) ;
#674 = DIRECTION ( 'NONE',  ( 1.000000000000000000, 0.000000000000000000, 0.000000000000000000 ) ) ;
#675 = ADVANCED_FACE ( 'NONE', ( #620 ), #1201, .F. ) ;
#676 = DIRECTION ( 'NONE',  ( 0.000000000000000000, 0.000000000000000000, -1.000000000000000000 ) ) ;
#677 = CARTESIAN_POINT ( 'NONE',  ( 3.000000000000000000, 0.000000000000000000, 3.000000000000011990 ) ) ;
#678 = EDGE_LOOP ( 'NONE', ( #635, #828, #1251, #348 ) ) ;
#679 = CARTESIAN_POINT ( 'NONE',  ( 1.415941433679299921, 4.375000000000000000, 7.577722283113839552 ) ) ;
#680 = CIRCLE ( 'NONE', #744, 3.000000000000000000 ) ;
#681 = CYLINDRICAL_SURFACE ( 'NONE', #64, 6.550000000000000711 ) ;
#682 = CYLINDRICAL_SURFACE ( 'NONE', #367, 1.549999999999999822 ) ;
#683 = ORIENTED_EDGE ( 'NONE', *, *, #533, .F. ) ;
#684 = FACE_OUTER_BOUND ( 'NONE', #219, .T. ) ;
#685 = ORIENTED_EDGE ( 'NONE', *, *, #1021, .T. ) ;
#686 = DIRECTION ( 'NONE',  ( 1.000000000000000000, 0.000000000000000000, 0.000000000000000000 ) ) ;
#687 = ORIENTED_EDGE ( 'NONE', *, *, #419, .F. ) ;
#688 = SHAPE_DEFINITION_REPRESENTATION ( #1034, #1237 ) ;
#689 = EDGE_CURVE ( 'NONE', #1193, #358, #899, .T. ) ;
#690 = AXIS2_PLACEMENT_3D ( 'NONE', #336, #135, #1084 ) ;
#691 = CONICAL_SURFACE ( 'NONE', #1076, 1.415941433679299477, 0.7853981633974490562 ) ;
#692 = ADVANCED_FACE ( 'NONE', ( #520 ), #174, .F. ) ;
#693 = CARTESIAN_POINT ( 'NONE',  ( 1.549999999999999600, -8.749999905353668339, 1.550000000000001377 ) ) ;
#694 = CARTESIAN_POINT ( 'NONE',  ( 1.550000000000000044, 4.375000000000000000, -7.577722283113839552 ) ) ;
#695 = CIRCLE ( 'NONE', #978, 12.00000000000000000 ) ;
#696 = CARTESIAN_POINT ( 'NONE',  ( 12.99999999999999822, 69.99999999999998579, -2.999999999999987566 ) ) ;
#697 = VECTOR ( 'NONE', #371, 1000.000000000000114 ) ;
#698 = ORIENTED_EDGE ( 'NONE', *, *, #268, .T. ) ;
#699 = DIRECTION ( 'NONE',  ( 1.000000000000000000, 0.000000000000000000, -0.000000000000000000 ) ) ;
#700 = CARTESIAN_POINT ( 'NONE',  ( -3.000000000000000000, 9.542756901161899563, 14.06896551724140032 ) ) ;
#701 = FACE_OUTER_BOUND ( 'NONE', #673, .T. ) ;
#702 = ORIENTED_EDGE ( 'NONE', *, *, #19, .T. ) ;
#703 = CARTESIAN_POINT ( 'NONE',  ( -3.000000000000000000, 160.0000000000000000, 0.000000000000000000 ) ) ;
#704 = CIRCLE ( 'NONE', #21, 12.00000000000000000 ) ;
#705 = AXIS2_PLACEMENT_3D ( 'NONE', #151, #844, #1231 ) ;
#706 = EDGE_CURVE ( 'NONE', #70, #584, #795, .T. ) ;
#707 = LINE ( 'NONE', #15, #258 ) ;
#708 = EDGE_CURVE ( 'NONE', #938, #1108, #1186, .T. ) ;
#709 = CARTESIAN_POINT ( 'NONE',  ( 2.999999986629780402, 4.374999816813549991, -10.57772226974359953 ) ) ;
#710 = ORIENTED_EDGE ( 'NONE', *, *, #1196, .T. ) ;
#711 = CARTESIAN_POINT ( 'NONE',  ( 2.999999986629780402, 4.375000183186450009, 10.57772226974359953 ) ) ;
#712 = AXIS2_PLACEMENT_3D ( 'NONE', #717, #1105, #603 ) ;
#713 = CARTESIAN_POINT ( 'NONE',  ( 7.000000000000000000, 4.375000000000000000, 7.577722283113839552 ) ) ;
#714 = ORIENTED_EDGE ( 'NONE', *, *, #954, .T. ) ;
#715 = CIRCLE ( 'NONE', #345, 3.000000000000000000 ) ;
#716 = VERTEX_POINT ( 'NONE', #700 ) ;
#717 = CARTESIAN_POINT ( 'NONE',  ( -3.000000000000000000, 4.375000000000000000, 7.577722283113839552 ) ) ;
#718 = AXIS2_PLACEMENT_3D ( 'NONE', #764, #868, #1248 ) ;
#719 = VERTEX_POINT ( 'NONE', #614 ) ;
#720 = DIRECTION ( 'NONE',  ( 0.000000000000000000, -0.5613386412448169160, -0.8275862068965521567 ) ) ;
#721 = ORIENTED_EDGE ( 'NONE', *, *, #137, .T. ) ;
#722 = EDGE_CURVE ( 'NONE', #837, #277, #54, .T. ) ;
#723 = PLANE ( 'NONE',  #83 ) ;
#724 = CIRCLE ( 'NONE', #1003, 1.549999999999999378 ) ;
#725 = EDGE_CURVE ( 'NONE', #830, #452, #210, .T. ) ;
#726 = VERTEX_POINT ( 'NONE', #1000 ) ;
#727 = CARTESIAN_POINT ( 'NONE',  ( 3.000000000000000000, 4.375000000000000000, 7.577722283113839552 ) ) ;
#728 = LINE ( 'NONE', #709, #1087 ) ;
#729 = EDGE_LOOP ( 'NONE', ( #1205, #354, #1137, #698 ) ) ;
#730 = DIRECTION ( 'NONE',  ( 1.000000000000000000, 0.000000000000000000, 0.000000000000000000 ) ) ;
#731 = EDGE_CURVE ( 'NONE', #640, #669, #123, .T. ) ;
#732 = CARTESIAN_POINT ( 'NONE',  ( 1.415941433679299921, 4.375000000000000000, 7.577722283113839552 ) ) ;
#733 = ORIENTED_EDGE ( 'NONE', *, *, #861, .T. ) ;
#734 = VECTOR ( 'NONE', #323, 1000.000000000000000 ) ;
#735 = DIRECTION ( 'NONE',  ( -1.000000000000000000, -0.000000000000000000, -0.000000000000000000 ) ) ;
#736 = EDGE_LOOP ( 'NONE', ( #29, #461, #1008, #959 ) ) ;
#737 = AXIS2_PLACEMENT_3D ( 'NONE', #473, #871, #1 ) ;
#738 = DIRECTION ( 'NONE',  ( -1.000000000000000000, -0.000000000000000000, -0.000000000000000000 ) ) ;
#739 = CARTESIAN_POINT ( 'NONE',  ( 2.999999999999999112, 110.0000000000000000, 6.017516462317565123E-15 ) ) ;
#740 = VERTEX_POINT ( 'NONE', #451 ) ;
#741 = DIRECTION ( 'NONE',  ( 0.000000000000000000, 1.000000000000000000, 0.000000000000000000 ) ) ;
#742 = ORIENTED_EDGE ( 'NONE', *, *, #725, .F. ) ;
#743 = DIRECTION ( 'NONE',  ( 0.000000000000000000, 0.000000000000000000, 1.000000000000000000 ) ) ;
#744 = AXIS2_PLACEMENT_3D ( 'NONE', #890, #792, #186 ) ;
#745 = CARTESIAN_POINT ( 'NONE',  ( 3.000000000000000000, 9.542756901161899563, -14.06896551724140032 ) ) ;
#746 = ORIENTED_EDGE ( 'NONE', *, *, #1119, .T. ) ;
#747 = ORIENTED_EDGE ( 'NONE', *, *, #731, .T. ) ;
#748 = PLANE ( 'NONE',  #619 ) ;
#749 = EDGE_CURVE ( 'NONE', #23, #1211, #1135, .T. ) ;
#750 = DIRECTION ( 'NONE',  ( 1.000000000000000000, 0.000000000000000000, 0.000000000000000000 ) ) ;
#751 = CARTESIAN_POINT ( 'NONE',  ( 12.99999999999999822, 110.0000000000000000, -3.000000000000002665 ) ) ;
#752 = CARTESIAN_POINT ( 'NONE',  ( -3.000000000000000000, 69.99999999999998579, -2.999999999999987566 ) ) ;
#753 = VERTEX_POINT ( 'NONE', #1124 ) ;
#754 = ADVANCED_FACE ( 'NONE', ( #546 ), #1073, .F. ) ;
#755 = CARTESIAN_POINT ( 'NONE',  ( 12.99999999999999822, 110.0000000000000000, 6.017516462317565123E-15 ) ) ;
#756 = VECTOR ( 'NONE', #1012, 1000.000000000000000 ) ;
#757 = ORIENTED_EDGE ( 'NONE', *, *, #1257, .F. ) ;
#758 = LINE ( 'NONE', #59, #697 ) ;
#759 = DIRECTION ( 'NONE',  ( -1.000000000000000000, -0.000000000000000000, -0.000000000000000000 ) ) ;
#760 = ORIENTED_EDGE ( 'NONE', *, *, #613, .T. ) ;
#761 = CIRCLE ( 'NONE', #918, 3.000000000000000000 ) ;
#762 = CARTESIAN_POINT ( 'NONE',  ( -3.000000000000000000, 130.0000000000000000, 2.999999999999997335 ) ) ;
#763 = ORIENTED_EDGE ( 'NONE', *, *, #889, .F. ) ;
#764 = CARTESIAN_POINT ( 'NONE',  ( -3.000000000000000000, 50.00000000000000000, 1.237225175534340487E-14 ) ) ;
#765 = VECTOR ( 'NONE', #400, 1000.000000000000000 ) ;
#766 = EDGE_CURVE ( 'NONE', #640, #1199, #1039, .T. ) ;
#767 = DIRECTION ( 'NONE',  ( 0.000000000000000000, 0.000000000000000000, -1.000000000000000000 ) ) ;
#768 = ORIENTED_EDGE ( 'NONE', *, *, #1257, .T. ) ;
#769 = ORIENTED_EDGE ( 'NONE', *, *, #176, .F. ) ;
#770 =( LENGTH_UNIT ( ) NAMED_UNIT ( * ) SI_UNIT ( .MILLI., .METRE. ) );
#771 = ORIENTED_EDGE ( 'NONE', *, *, #1045, .F. ) ;
#772 = DIRECTION ( 'NONE',  ( 0.000000000000000000, -1.000000000000000000, 0.000000000000000000 ) ) ;
#773 = CARTESIAN_POINT ( 'NONE',  ( 3.000000000000000000, 16.27882059609969900, -12.00000000000000000 ) ) ;
#774 = EDGE_CURVE ( 'NONE', #925, #839, #658, .T. ) ;
#775 = ORIENTED_EDGE ( 'NONE', *, *, #1126, .F. ) ;
#776 = DIRECTION ( 'NONE',  ( 1.000000000000000000, 0.000000000000000000, 0.000000000000000000 ) ) ;
#777 = DIRECTION ( 'NONE',  ( 0.000000000000000000, 0.000000000000000000, 1.000000000000000000 ) ) ;
#778 = DIRECTION ( 'NONE',  ( -1.000000000000000000, -0.000000000000000000, -0.000000000000000000 ) ) ;
#779 = DIRECTION ( 'NONE',  ( -1.000000000000000000, -0.000000000000000000, -0.000000000000000000 ) ) ;
#780 = VERTEX_POINT ( 'NONE', #1033 ) ;
#781 = PRESENTATION_STYLE_ASSIGNMENT (( #297 ) ) ;
#782 = FACE_OUTER_BOUND ( 'NONE', #465, .T. ) ;
#783 = ORIENTED_EDGE ( 'NONE', *, *, #102, .F. ) ;
#784 = CARTESIAN_POINT ( 'NONE',  ( -3.000000000000000000, 9.542756901161899563, -14.06896551724140032 ) ) ;
#785 = ORIENTED_EDGE ( 'NONE', *, *, #1005, .F. ) ;
#786 = ADVANCED_FACE ( 'NONE', ( #155 ), #55, .F. ) ;
#787 = AXIS2_PLACEMENT_3D ( 'NONE', #138, #234, #427 ) ;
#788 = CIRCLE ( 'NONE', #1153, 1.549999999999999822 ) ;
#789 = DIRECTION ( 'NONE',  ( -1.000000000000000000, -0.000000000000000000, -0.000000000000000000 ) ) ;
#790 = EDGE_CURVE ( 'NONE', #563, #837, #1046, .T. ) ;
#791 = CARTESIAN_POINT ( 'NONE',  ( -3.000000000000000000, 3.122849337825750419E-16, -2.549999999999999822 ) ) ;
#792 = DIRECTION ( 'NONE',  ( -1.000000000000000000, 0.000000000000000000, 0.000000000000000000 ) ) ;
#793 = AXIS2_PLACEMENT_3D ( 'NONE', #817, #515, #401 ) ;
#794 = DIRECTION ( 'NONE',  ( -1.000000000000000000, 0.000000000000000000, 0.000000000000000000 ) ) ;
#795 = LINE ( 'NONE', #118, #734 ) ;
#796 = CARTESIAN_POINT ( 'NONE',  ( -3.000000000000000000, 4.375000000000000000, -7.577722283113839552 ) ) ;
#797 = ORIENTED_EDGE ( 'NONE', *, *, #347, .T. ) ;
#798 = EDGE_CURVE ( 'NONE', #982, #320, #40, .T. ) ;
#799 = EDGE_CURVE ( 'NONE', #406, #24, #589, .T. ) ;
#800 = DIRECTION ( 'NONE',  ( 0.000000000000000000, 0.000000000000000000, -1.000000000000000000 ) ) ;
#801 = ORIENTED_EDGE ( 'NONE', *, *, #334, .F. ) ;
#802 = CARTESIAN_POINT ( 'NONE',  ( 12.99999999999999822, 30.00000000000000355, -2.999999999999987566 ) ) ;
#803 = ORIENTED_EDGE ( 'NONE', *, *, #1183, .F. ) ;
#804 = VERTEX_POINT ( 'NONE', #752 ) ;
#805 = EDGE_CURVE ( 'NONE', #563, #1108, #524, .T. ) ;
#806 = CARTESIAN_POINT ( 'NONE',  ( 12.99999999999999822, 70.00000000000000000, 1.604619215278546562E-14 ) ) ;
#807 = EDGE_CURVE ( 'NONE', #867, #306, #433, .T. ) ;
#808 = DIRECTION ( 'NONE',  ( -1.000000000000000000, -0.000000000000000000, -0.000000000000000000 ) ) ;
#809 = ORIENTED_EDGE ( 'NONE', *, *, #1123, .F. ) ;
#810 = EDGE_LOOP ( 'NONE', ( #656, #832 ) ) ;
#811 = AXIS2_PLACEMENT_3D ( 'NONE', #287, #1270, #979 ) ;
#812 = DIRECTION ( 'NONE',  ( 1.000000000000000000, 0.000000000000000000, 0.000000000000000000 ) ) ;
#813 = AXIS2_PLACEMENT_3D ( 'NONE', #1179, #295, #671 ) ;
#814 = CYLINDRICAL_SURFACE ( 'NONE', #5, 1.549999999999999378 ) ;
#815 = ORIENTED_EDGE ( 'NONE', *, *, #1212, .F. ) ;
#816 = FACE_OUTER_BOUND ( 'NONE', #547, .T. ) ;
#817 = CARTESIAN_POINT ( 'NONE',  ( 1.415941433679299921, -8.750000000000000000, 0.000000000000000000 ) ) ;
#818 = AXIS2_PLACEMENT_3D ( 'NONE', #307, #114, #1164 ) ;
#819 = DIRECTION ( 'NONE',  ( 0.000000000000000000, 0.000000000000000000, 1.000000000000000000 ) ) ;
#820 = EDGE_LOOP ( 'NONE', ( #616, #1266, #363, #649 ) ) ;
#821 = CARTESIAN_POINT ( 'NONE',  ( 2.999999986629780402, 4.374999816813549991, 4.577722296484060038 ) ) ;
#822 = EDGE_CURVE ( 'NONE', #1027, #980, #237, .T. ) ;
#823 = CARTESIAN_POINT ( 'NONE',  ( -3.000000000000000000, 70.00000000000000000, 1.604619215278546562E-14 ) ) ;
#824 = CARTESIAN_POINT ( 'NONE',  ( 7.000000000000000000, -8.750000000000000000, 0.000000000000000000 ) ) ;
#825 = EDGE_LOOP ( 'NONE', ( #391, #945, #549, #1269 ) ) ;
#826 = DIRECTION ( 'NONE',  ( 0.000000000000000000, 0.000000000000000000, 1.000000000000000000 ) ) ;
#827 = ORIENTED_EDGE ( 'NONE', *, *, #111, .F. ) ;
#828 = ORIENTED_EDGE ( 'NONE', *, *, #1086, .F. ) ;
#829 = DIRECTION ( 'NONE',  ( -1.000000000000000000, -0.000000000000000000, -0.000000000000000000 ) ) ;
#830 = VERTEX_POINT ( 'NONE', #847 ) ;
#831 = DIRECTION ( 'NONE',  ( -1.000000000000000000, -0.000000000000000000, -0.000000000000000000 ) ) ;
#832 = ORIENTED_EDGE ( 'NONE', *, *, #722, .F. ) ;
#833 = CARTESIAN_POINT ( 'NONE',  ( 3.000000000000000000, 16.27882059609969900, 12.00000000000000000 ) ) ;
#834 = LINE ( 'NONE', #353, #1200 ) ;
#835 = EDGE_LOOP ( 'NONE', ( #34, #329, #27, #172 ) ) ;
#836 = ADVANCED_FACE ( 'NONE', ( #245 ), #691, .F. ) ;
#837 = VERTEX_POINT ( 'NONE', #1118 ) ;
#838 = FACE_OUTER_BOUND ( 'NONE', #235, .T. ) ;
#839 = VERTEX_POINT ( 'NONE', #639 ) ;
#840 = PLANE ( 'NONE',  #311 ) ;
#841 = AXIS2_PLACEMENT_3D ( 'NONE', #866, #384, #1162 ) ;
#842 = CARTESIAN_POINT ( 'NONE',  ( 7.000000000000000000, 4.375000000000000000, 6.027722283113840618 ) ) ;
#843 = VERTEX_POINT ( 'NONE', #346 ) ;
#844 = DIRECTION ( 'NONE',  ( -1.000000000000000000, -0.000000000000000000, -0.000000000000000000 ) ) ;
#845 = EDGE_LOOP ( 'NONE', ( #952, #296, #455, #859 ) ) ;
#846 = DIRECTION ( 'NONE',  ( 1.000000000000000000, 0.000000000000000000, 0.000000000000000000 ) ) ;
#847 = CARTESIAN_POINT ( 'NONE',  ( 3.000000000000000000, 130.0000000000000000, 2.999999999999997335 ) ) ;
#848 = EDGE_LOOP ( 'NONE', ( #220, #270, #775, #283 ) ) ;
#849 = CARTESIAN_POINT ( 'NONE',  ( 2.999999999999999112, 130.0000000000000000, -2.555011131713901953E-15 ) ) ;
#850 = ORIENTED_EDGE ( 'NONE', *, *, #822, .F. ) ;
#851 = DIRECTION ( 'NONE',  ( -1.000000000000000000, 0.000000000000000000, 0.000000000000000000 ) ) ;
#852 = EDGE_CURVE ( 'NONE', #804, #941, #502, .T. ) ;
#853 = AXIS2_PLACEMENT_3D ( 'NONE', #240, #1252, #369 ) ;
#854 = VECTOR ( 'NONE', #302, 1000.000000000000000 ) ;
#855 = CARTESIAN_POINT ( 'NONE',  ( 7.000000000000000000, -8.750000000000000000, 0.000000000000000000 ) ) ;
#856 = ORIENTED_EDGE ( 'NONE', *, *, #344, .F. ) ;
#857 = VECTOR ( 'NONE', #915, 1000.000000000000114 ) ;
#858 = CARTESIAN_POINT ( 'NONE',  ( -3.000000000000000000, 160.0000000000000000, -12.00000000000000000 ) ) ;
#859 = ORIENTED_EDGE ( 'NONE', *, *, #1214, .F. ) ;
#860 = CARTESIAN_POINT ( 'NONE',  ( 3.000000000000000000, 160.0000000000000000, 12.00000000000000000 ) ) ;
#861 = EDGE_CURVE ( 'NONE', #726, #1193, #239, .T. ) ;
#862 = CARTESIAN_POINT ( 'NONE',  ( 3.000000000000000000, 160.0000000000000000, 0.000000000000000000 ) ) ;
#863 = VERTEX_POINT ( 'NONE', #745 ) ;
#864 = CIRCLE ( 'NONE', #1174, 1.550000000000000266 ) ;
#865 = CARTESIAN_POINT ( 'NONE',  ( 12.99999999999999822, 130.0000000000000000, -2.555011131713901953E-15 ) ) ;
#866 = CARTESIAN_POINT ( 'NONE',  ( -3.000000000000000000, 160.0000000000000000, 12.00000000000000000 ) ) ;
#867 = VERTEX_POINT ( 'NONE', #1026 ) ;
#868 = DIRECTION ( 'NONE',  ( -1.000000000000000000, 0.000000000000000000, 0.000000000000000000 ) ) ;
#869 = CARTESIAN_POINT ( 'NONE',  ( 7.000000000000000000, 160.0000000000000000, -6.550000000000000711 ) ) ;
#870 = ORIENTED_EDGE ( 'NONE', *, *, #460, .T. ) ;
#871 = DIRECTION ( 'NONE',  ( 1.000000000000000000, 0.000000000000000000, 0.000000000000000000 ) ) ;
#872 = DIRECTION ( 'NONE',  ( 1.000000000000000000, 0.000000000000000000, 0.000000000000000000 ) ) ;
#873 = ORIENTED_EDGE ( 'NONE', *, *, #912, .F. ) ;
#874 = AXIS2_PLACEMENT_3D ( 'NONE', #552, #168, #457 ) ;
#875 = DIRECTION ( 'NONE',  ( 1.000000000000000000, 0.000000000000000000, 0.000000000000000000 ) ) ;
#876 = VECTOR ( 'NONE', #60, 1000.000000000000000 ) ;
#877 = ORIENTED_EDGE ( 'NONE', *, *, #312, .T. ) ;
#878 = FACE_BOUND ( 'NONE', #654, .T. ) ;
#879 = EDGE_CURVE ( 'NONE', #925, #982, #521, .T. ) ;
#880 = LINE ( 'NONE', #402, #43 ) ;
#881 = CIRCLE ( 'NONE', #1042, 12.00000000000000000 ) ;
#882 = CARTESIAN_POINT ( 'NONE',  ( -3.000000000000000000, 69.99999999999998579, 3.000000000000011990 ) ) ;
#883 = PRODUCT_RELATED_PRODUCT_CATEGORY ( 'part', '', ( #365 ) ) ;
#884 = FACE_OUTER_BOUND ( 'NONE', #300, .T. ) ;
#885 = AXIS2_PLACEMENT_3D ( 'NONE', #126, #906, #819 ) ;
#886 = DIRECTION ( 'NONE',  ( 0.000000000000000000, 1.000000000000000000, 0.000000000000000000 ) ) ;
#887 = CARTESIAN_POINT ( 'NONE',  ( -3.000000000000000000, 110.0000000000000000, 6.017516462317565123E-15 ) ) ;
#888 = CARTESIAN_POINT ( 'NONE',  ( 1.549999999999999600, 4.374999905353666563, 6.027722283113838841 ) ) ;
#889 = EDGE_CURVE ( 'NONE', #623, #476, #834, .T. ) ;
#890 = CARTESIAN_POINT ( 'NONE',  ( -3.000000000000000000, 90.00000000000000000, 1.237225175534340802E-14 ) ) ;
#891 = VERTEX_POINT ( 'NONE', #644 ) ;
#892 = EDGE_CURVE ( 'NONE', #1232, #421, #587, .T. ) ;
#893 = FACE_OUTER_BOUND ( 'NONE', #895, .T. ) ;
#894 = DIRECTION ( 'NONE',  ( 1.000000000000000000, 0.000000000000000000, 0.000000000000000000 ) ) ;
#895 = EDGE_LOOP ( 'NONE', ( #763, #1040, #408, #58 ) ) ;
#896 = PRODUCT_CONTEXT ( 'NONE', #594, 'mechanical' ) ;
#897 = VERTEX_POINT ( 'NONE', #1166 ) ;
#898 = EDGE_CURVE ( 'NONE', #358, #891, #75, .T. ) ;
#899 = LINE ( 'NONE', #996, #463 ) ;
#900 = DIRECTION ( 'NONE',  ( -1.000000000000000000, -0.000000000000000000, -0.000000000000000000 ) ) ;
#901 = ORIENTED_EDGE ( 'NONE', *, *, #799, .F. ) ;
#902 = ORIENTED_EDGE ( 'NONE', *, *, #912, .T. ) ;
#903 = VECTOR ( 'NONE', #886, 1000.000000000000000 ) ;
#904 = CARTESIAN_POINT ( 'NONE',  ( -3.000000000000000000, 160.0000000000000000, 12.00000000000000000 ) ) ;
#905 = ORIENTED_EDGE ( 'NONE', *, *, #898, .F. ) ;
#906 = DIRECTION ( 'NONE',  ( -1.000000000000000000, 0.000000000000000000, 0.000000000000000000 ) ) ;
#907 = ORIENTED_EDGE ( 'NONE', *, *, #1031, .F. ) ;
#908 = DIRECTION ( 'NONE',  ( 1.000000000000000000, 0.000000000000000000, 0.000000000000000000 ) ) ;
#909 = EDGE_CURVE ( 'NONE', #355, #261, #565, .T. ) ;
#910 = DIRECTION ( 'NONE',  ( 0.000000000000000000, -1.000000000000000000, 0.000000000000000000 ) ) ;
#911 = VECTOR ( 'NONE', #197, 1000.000000000000000 ) ;
#912 = EDGE_CURVE ( 'NONE', #753, #863, #1250, .T. ) ;
#913 = DIRECTION ( 'NONE',  ( 1.000000000000000000, 0.000000000000000000, 0.000000000000000000 ) ) ;
#914 = EDGE_LOOP ( 'NONE', ( #586, #485, #76, #1002 ) ) ;
#915 = DIRECTION ( 'NONE',  ( -0.7071067811865473507, -4.317746062170731835E-08, -0.7071067811865463515 ) ) ;
#916 = VECTOR ( 'NONE', #778, 1000.000000000000000 ) ;
#917 = CARTESIAN_POINT ( 'NONE',  ( -3.000000000000000000, 2.081899558550500280E-15, 17.00000000000000000 ) ) ;
#918 = AXIS2_PLACEMENT_3D ( 'NONE', #887, #794, #1184 ) ;
#919 = LINE ( 'NONE', #1106, #496 ) ;
#920 = ORIENTED_EDGE ( 'NONE', *, *, #805, .T. ) ;
#921 = FACE_BOUND ( 'NONE', #321, .T. ) ;
#922 = AXIS2_PLACEMENT_3D ( 'NONE', #1070, #872, #676 ) ;
#923 = AXIS2_PLACEMENT_3D ( 'NONE', #78, #1041, #453 ) ;
#924 = CARTESIAN_POINT ( 'NONE',  ( 12.99999999999999822, 30.00000000000000355, 3.000000000000011990 ) ) ;
#925 = VERTEX_POINT ( 'NONE', #97 ) ;
#926 = DIRECTION ( 'NONE',  ( -1.000000000000000000, 0.000000000000000000, 0.000000000000000000 ) ) ;
#927 = EDGE_CURVE ( 'NONE', #70, #306, #417, .T. ) ;
#928 = ORIENTED_EDGE ( 'NONE', *, *, #766, .T. ) ;
#929 = DIRECTION ( 'NONE',  ( 0.000000000000000000, 1.000000000000000000, 0.000000000000000000 ) ) ;
#930 = EDGE_CURVE ( 'NONE', #413, #740, #585, .T. ) ;
#931 = DIRECTION ( 'NONE',  ( -1.000000000000000000, -0.000000000000000000, -0.000000000000000000 ) ) ;
#932 = ORIENTED_EDGE ( 'NONE', *, *, #1047, .F. ) ;
#933 = CARTESIAN_POINT ( 'NONE',  ( 3.000000000000000000, 160.0000000000000000, 0.000000000000000000 ) ) ;
#934 = ORIENTED_EDGE ( 'NONE', *, *, #805, .F. ) ;
#935 = DIRECTION ( 'NONE',  ( 1.000000000000000000, 0.000000000000000000, 0.000000000000000000 ) ) ;
#936 = ADVANCED_FACE ( 'NONE', ( #492 ), #632, .F. ) ;
#937 = CARTESIAN_POINT ( 'NONE',  ( 12.99999999999999822, 110.0000000000000000, 2.999999999999997335 ) ) ;
#938 = VERTEX_POINT ( 'NONE', #1264 ) ;
#939 = DIRECTION ( 'NONE',  ( -1.000000000000000000, -0.000000000000000000, -0.000000000000000000 ) ) ;
#940 = VECTOR ( 'NONE', #730, 1000.000000000000000 ) ;
#941 = VERTEX_POINT ( 'NONE', #882 ) ;
#942 = CYLINDRICAL_SURFACE ( 'NONE', #595, 3.000000000000000000 ) ;
#943 = DIRECTION ( 'NONE',  ( 0.000000000000000000, 0.000000000000000000, -1.000000000000000000 ) ) ;
#944 = ORIENTED_EDGE ( 'NONE', *, *, #628, .F. ) ;
#945 = ORIENTED_EDGE ( 'NONE', *, *, #852, .F. ) ;
#946 = VECTOR ( 'NONE', #1140, 1000.000000000000000 ) ;
#947 = CARTESIAN_POINT ( 'NONE',  ( 2.999999999999999112, 69.99999999999998579, -2.999999999999987566 ) ) ;
#948 = ADVANCED_FACE ( 'NONE', ( #579 ), #1063, .T. ) ;
#949 = ORIENTED_EDGE ( 'NONE', *, *, #790, .T. ) ;
#950 = CARTESIAN_POINT ( 'NONE',  ( 3.000000000000000000, 0.000000000000000000, 2.999999999999997335 ) ) ;
#951 = DIRECTION ( 'NONE',  ( 0.000000000000000000, 0.000000000000000000, 1.000000000000000000 ) ) ;
#952 = ORIENTED_EDGE ( 'NONE', *, *, #799, .T. ) ;
#953 = LINE ( 'NONE', #1127, #68 ) ;
#954 = EDGE_CURVE ( 'NONE', #436, #753, #695, .T. ) ;
#955 = VERTEX_POINT ( 'NONE', #791 ) ;
#956 = LINE ( 'NONE', #950, #1082 ) ;
#957 = ORIENTED_EDGE ( 'NONE', *, *, #276, .F. ) ;
#958 = DIRECTION ( 'NONE',  ( -1.000000000000000000, -0.000000000000000000, -0.000000000000000000 ) ) ;
#959 = ORIENTED_EDGE ( 'NONE', *, *, #102, .T. ) ;
#960 = CARTESIAN_POINT ( 'NONE',  ( 2.999999995394410313, 4.375000055142679756, -4.577722287719430128 ) ) ;
#961 = EDGE_LOOP ( 'NONE', ( #733, #368, #121, #505 ) ) ;
#962 = FACE_OUTER_BOUND ( 'NONE', #169, .T. ) ;
#963 = VERTEX_POINT ( 'NONE', #773 ) ;
#964 = DIRECTION ( 'NONE',  ( 0.000000000000000000, 0.000000000000000000, -1.000000000000000000 ) ) ;
#965 = EDGE_LOOP ( 'NONE', ( #934, #949, #253, #1032 ) ) ;
#966 = VECTOR ( 'NONE', #686, 1000.000000000000000 ) ;
#967 =( NAMED_UNIT ( * ) SI_UNIT ( $, .STERADIAN. ) SOLID_ANGLE_UNIT ( ) );
#968 = CARTESIAN_POINT ( 'NONE',  ( -3.000000000000000000, 160.0000000000000000, 0.000000000000000000 ) ) ;
#969 = VERTEX_POINT ( 'NONE', #281 ) ;
#970 = EDGE_CURVE ( 'NONE', #1215, #93, #591, .T. ) ;
#971 = ADVANCED_FACE ( 'NONE', ( #1058 ), #682, .F. ) ;
#972 = DIRECTION ( 'NONE',  ( 0.000000000000000000, -1.000000000000000000, 0.000000000000000000 ) ) ;
#973 = ORIENTED_EDGE ( 'NONE', *, *, #994, .T. ) ;
#974 = DIRECTION ( 'NONE',  ( -1.000000000000000000, -0.000000000000000000, -0.000000000000000000 ) ) ;
#975 = CARTESIAN_POINT ( 'NONE',  ( -3.000000000000000000, 0.000000000000000000, -17.00000000000000000 ) ) ;
#976 = EDGE_LOOP ( 'NONE', ( #783, #1203 ) ) ;
#977 = FACE_OUTER_BOUND ( 'NONE', #156, .T. ) ;
#978 = AXIS2_PLACEMENT_3D ( 'NONE', #390, #396, #951 ) ;
#979 = DIRECTION ( 'NONE',  ( 0.000000000000000000, 0.000000000000000000, 1.000000000000000000 ) ) ;
#980 = VERTEX_POINT ( 'NONE', #574 ) ;
#981 = FACE_BOUND ( 'NONE', #1015, .T. ) ;
#982 = VERTEX_POINT ( 'NONE', #92 ) ;
#983 = AXIS2_PLACEMENT_3D ( 'NONE', #990, #1083, #826 ) ;
#984 = CARTESIAN_POINT ( 'NONE',  ( -3.000000000000000000, 30.00000000000000355, -2.999999999999987566 ) ) ;
#985 = ORIENTED_EDGE ( 'NONE', *, *, #1103, .T. ) ;
#986 = CARTESIAN_POINT ( 'NONE',  ( -3.000000000000000000, 69.99999999999998579, 3.000000000000011990 ) ) ;
#987 = DIRECTION ( 'NONE',  ( 0.000000000000000000, 0.5613386412448176932, 0.8275862068965516016 ) ) ;
#988 = EDGE_CURVE ( 'NONE', #421, #804, #478, .T. ) ;
#989 = DIRECTION ( 'NONE',  ( -1.000000000000000000, 0.000000000000000000, 0.000000000000000000 ) ) ;
#990 = CARTESIAN_POINT ( 'NONE',  ( 7.000000000000000000, 4.375000000000000000, 7.577722283113839552 ) ) ;
#991 = CARTESIAN_POINT ( 'NONE',  ( 12.99999999999999822, 130.0000000000000000, 2.999999999999997335 ) ) ;
#992 = CARTESIAN_POINT ( 'NONE',  ( 2.999999999999999112, 69.99999999999998579, 3.000000000000011990 ) ) ;
#993 = VERTEX_POINT ( 'NONE', #693 ) ;
#994 = EDGE_CURVE ( 'NONE', #413, #780, #1069, .T. ) ;
#995 = AXIS2_PLACEMENT_3D ( 'NONE', #576, #974, #487 ) ;
#996 = CARTESIAN_POINT ( 'NONE',  ( 7.000000000000000000, -8.750000000000000000, -1.549999999999999822 ) ) ;
#997 = DIRECTION ( 'NONE',  ( -1.000000000000000000, -0.000000000000000000, -0.000000000000000000 ) ) ;
#998 = EDGE_LOOP ( 'NONE', ( #428, #1029, #52, #1055 ) ) ;
#999 = ORIENTED_EDGE ( 'NONE', *, *, #909, .T. ) ;
#1000 = CARTESIAN_POINT ( 'NONE',  ( 2.999999995394410313, -8.750000055142679756, -2.999999995394410313 ) ) ;
#1001 = DIRECTION ( 'NONE',  ( -1.000000000000000000, 0.000000000000000000, 0.000000000000000000 ) ) ;
#1002 = ORIENTED_EDGE ( 'NONE', *, *, #419, .T. ) ;
#1003 = AXIS2_PLACEMENT_3D ( 'NONE', #621, #1001, #522 ) ;
#1004 = EDGE_CURVE ( 'NONE', #780, #177, #1013, .T. ) ;
#1005 = EDGE_CURVE ( 'NONE', #278, #382, #418, .T. ) ;
#1006 = DIRECTION ( 'NONE',  ( -0.7071067811865473507, -4.317745980395092010E-08, -0.7071067811865463515 ) ) ;
#1007 = LINE ( 'NONE', #802, #1256 ) ;
#1008 = ORIENTED_EDGE ( 'NONE', *, *, #1117, .T. ) ;
#1009 = PRODUCT_DEFINITION_CONTEXT ( 'detailed design', #1202, 'design' ) ;
#1010 = LINE ( 'NONE', #525, #857 ) ;
#1011 = AXIS2_PLACEMENT_3D ( 'NONE', #26, #812, #508 ) ;
#1012 = DIRECTION ( 'NONE',  ( 0.000000000000000000, 1.000000000000000000, 0.000000000000000000 ) ) ;
#1013 = CIRCLE ( 'NONE', #304, 6.550000000000000711 ) ;
#1014 = CARTESIAN_POINT ( 'NONE',  ( 3.000000000000000000, 0.000000000000000000, 0.000000000000000000 ) ) ;
#1015 = EDGE_LOOP ( 'NONE', ( #1241, #379, #901, #567 ) ) ;
#1016 = CARTESIAN_POINT ( 'NONE',  ( -3.000000000000000000, 4.375000000000000000, -7.577722283113839552 ) ) ;
#1017 = DIRECTION ( 'NONE',  ( -0.7071067811865473507, 4.317745857731612089E-08, 0.7071067811865463515 ) ) ;
#1018 = ADVANCED_FACE ( 'NONE', ( #665 ), #1052, .F. ) ;
#1019 = ORIENTED_EDGE ( 'NONE', *, *, #1236, .T. ) ;
#1020 = LINE ( 'NONE', #362, #1088 ) ;
#1021 = EDGE_CURVE ( 'NONE', #1169, #897, #551, .T. ) ;
#1022 = DIRECTION ( 'NONE',  ( 0.000000000000000000, 0.000000000000000000, -1.000000000000000000 ) ) ;
#1023 = CIRCLE ( 'NONE', #787, 2.549999999999999822 ) ;
#1024 = AXIS2_PLACEMENT_3D ( 'NONE', #933, #1239, #356 ) ;
#1025 = ORIENTED_EDGE ( 'NONE', *, *, #569, .T. ) ;
#1026 = CARTESIAN_POINT ( 'NONE',  ( 2.999999999999999112, 30.00000000000000355, 3.000000000000011990 ) ) ;
#1027 = VERTEX_POINT ( 'NONE', #1122 ) ;
#1028 = DIRECTION ( 'NONE',  ( 1.000000000000000000, 0.000000000000000000, -0.000000000000000000 ) ) ;
#1029 = ORIENTED_EDGE ( 'NONE', *, *, #1109, .F. ) ;
#1030 = CARTESIAN_POINT ( 'NONE',  ( 2.999999995394410313, 4.374999944857320244, -10.57772227850819924 ) ) ;
#1031 = EDGE_CURVE ( 'NONE', #93, #1215, #226, .T. ) ;
#1032 = ORIENTED_EDGE ( 'NONE', *, *, #196, .F. ) ;
#1033 = CARTESIAN_POINT ( 'NONE',  ( -3.000000000000000000, 160.0000000000000000, -6.550000000000000711 ) ) ;
#1034 = PRODUCT_DEFINITION_SHAPE ( 'NONE', 'NONE',  #41 ) ;
#1035 = ORIENTED_EDGE ( 'NONE', *, *, #766, .F. ) ;
#1036 = DIRECTION ( 'NONE',  ( 0.000000000000000000, 0.000000000000000000, 1.000000000000000000 ) ) ;
#1037 = ORIENTED_EDGE ( 'NONE', *, *, #298, .F. ) ;
#1038 = FACE_OUTER_BOUND ( 'NONE', #1156, .T. ) ;
#1039 = LINE ( 'NONE', #560, #876 ) ;
#1040 = ORIENTED_EDGE ( 'NONE', *, *, #1255, .T. ) ;
#1041 = DIRECTION ( 'NONE',  ( -1.000000000000000000, 0.000000000000000000, 0.000000000000000000 ) ) ;
#1042 = AXIS2_PLACEMENT_3D ( 'NONE', #166, #851, #606 ) ;
#1043 = ORIENTED_EDGE ( 'NONE', *, *, #927, .T. ) ;
#1044 = DIRECTION ( 'NONE',  ( 0.000000000000000000, 0.5613386412448176932, 0.8275862068965516016 ) ) ;
#1045 = EDGE_CURVE ( 'NONE', #1232, #1247, #638, .T. ) ;
#1046 = LINE ( 'NONE', #842, #1057 ) ;
#1047 = EDGE_CURVE ( 'NONE', #152, #1146, #438, .T. ) ;
#1048 = ORIENTED_EDGE ( 'NONE', *, *, #344, .T. ) ;
#1049 = CARTESIAN_POINT ( 'NONE',  ( 3.000000000000000000, 2.081899558550500280E-15, 17.00000000000000000 ) ) ;
#1050 = EDGE_LOOP ( 'NONE', ( #827, #1198 ) ) ;
#1051 = CARTESIAN_POINT ( 'NONE',  ( -3.000000000000000000, 16.27882059609969900, 12.00000000000000000 ) ) ;
#1052 = CYLINDRICAL_SURFACE ( 'NONE', #1144, 3.000000000000000000 ) ;
#1053 = ORIENTED_EDGE ( 'NONE', *, *, #1220, .T. ) ;
#1054 = PLANE ( 'NONE',  #737 ) ;
#1055 = ORIENTED_EDGE ( 'NONE', *, *, #232, .F. ) ;
#1056 = CARTESIAN_POINT ( 'NONE',  ( 1.415941433679299921, -8.750000000000000000, 0.000000000000000000 ) ) ;
#1057 = VECTOR ( 'NONE', #440, 1000.000000000000000 ) ;
#1058 = FACE_OUTER_BOUND ( 'NONE', #280, .T. ) ;
#1059 = ORIENTED_EDGE ( 'NONE', *, *, #930, .F. ) ;
#1060 =( NAMED_UNIT ( * ) PLANE_ANGLE_UNIT ( ) SI_UNIT ( $, .RADIAN. ) );
#1061 = CARTESIAN_POINT ( 'NONE',  ( -3.000000000000000000, 160.0000000000000000, 0.000000000000000000 ) ) ;
#1062 = ADVANCED_FACE ( 'NONE', ( #534, #1116, #133, #816, #1219, #38, #51, #921, #236 ), #723, .F. ) ;
#1063 = CYLINDRICAL_SURFACE ( 'NONE', #100, 17.00000000000000000 ) ;
#1064 = ORIENTED_EDGE ( 'NONE', *, *, #569, .F. ) ;
#1065 = CIRCLE ( 'NONE', #454, 17.00000000000001066 ) ;
#1066 = DIRECTION ( 'NONE',  ( -1.000000000000000000, 0.000000000000000000, 0.000000000000000000 ) ) ;
#1067 = CARTESIAN_POINT ( 'NONE',  ( 7.000000000000000000, 160.0000000000000000, 0.000000000000000000 ) ) ;
#1068 = ORIENTED_EDGE ( 'NONE', *, *, #573, .T. ) ;
#1069 = LINE ( 'NONE', #869, #911 ) ;
#1070 = CARTESIAN_POINT ( 'NONE',  ( 2.999999999999999112, 70.00000000000000000, 1.604619215278546562E-14 ) ) ;
#1071 = VECTOR ( 'NONE', #1017, 1000.000000000000114 ) ;
#1072 = ADVANCED_FACE ( 'NONE', ( #430 ), #45, .F. ) ;
#1073 = CONICAL_SURFACE ( 'NONE', #486, 1.415941433679299477, 0.7853981633974490562 ) ;
#1074 = AXIS2_PLACEMENT_3D ( 'NONE', #849, #71, #1245 ) ;
#1075 = DIRECTION ( 'NONE',  ( -1.000000000000000000, -0.000000000000000000, -0.000000000000000000 ) ) ;
#1076 = AXIS2_PLACEMENT_3D ( 'NONE', #732, #446, #943 ) ;
#1077 = ADVANCED_FACE ( 'NONE', ( #333 ), #596, .F. ) ;
#1078 = LINE ( 'NONE', #568, #652 ) ;
#1079 = AXIS2_PLACEMENT_3D ( 'NONE', #545, #935, #1157 ) ;
#1080 = CARTESIAN_POINT ( 'NONE',  ( -3.000000000000000000, 16.27882059609969900, -12.00000000000000000 ) ) ;
#1081 = ORIENTED_EDGE ( 'NONE', *, *, #1126, .T. ) ;
#1082 = VECTOR ( 'NONE', #772, 1000.000000000000000 ) ;
#1083 = DIRECTION ( 'NONE',  ( -1.000000000000000000, -0.000000000000000000, -0.000000000000000000 ) ) ;
#1084 = DIRECTION ( 'NONE',  ( 0.000000000000000000, 0.000000000000000000, -1.000000000000000000 ) ) ;
#1085 = EDGE_LOOP ( 'NONE', ( #769, #850 ) ) ;
#1086 = EDGE_CURVE ( 'NONE', #804, #1247, #148, .T. ) ;
#1087 = VECTOR ( 'NONE', #119, 1000.000000000000114 ) ;
#1088 = VECTOR ( 'NONE', #741, 1000.000000000000000 ) ;
#1089 = DIRECTION ( 'NONE',  ( -1.000000000000000000, -0.000000000000000000, -0.000000000000000000 ) ) ;
#1090 = ORIENTED_EDGE ( 'NONE', *, *, #195, .F. ) ;
#1091 = DIRECTION ( 'NONE',  ( 1.000000000000000000, 0.000000000000000000, 0.000000000000000000 ) ) ;
#1092 = CARTESIAN_POINT ( 'NONE',  ( -3.000000000000000000, 16.27882059609969900, 12.00000000000000000 ) ) ;
#1093 = LINE ( 'NONE', #609, #618 ) ;
#1094 = ORIENTED_EDGE ( 'NONE', *, *, #82, .T. ) ;
#1095 = VERTEX_POINT ( 'NONE', #833 ) ;
#1096 = VECTOR ( 'NONE', #661, 1000.000000000000000 ) ;
#1097 = FACE_OUTER_BOUND ( 'NONE', #80, .T. ) ;
#1098 = EDGE_CURVE ( 'NONE', #1193, #993, #597, .T. ) ;
#1099 = DIRECTION ( 'NONE',  ( 0.000000000000000000, 0.000000000000000000, 1.000000000000000000 ) ) ;
#1100 = ORIENTED_EDGE ( 'NONE', *, *, #154, .F. ) ;
#1101 = ORIENTED_EDGE ( 'NONE', *, *, #122, .F. ) ;
#1102 = UNCERTAINTY_MEASURE_WITH_UNIT (LENGTH_MEASURE( 1.000000000000000082E-05 ), #96, 'distance_accuracy_value', 'NONE');
#1103 = EDGE_CURVE ( 'NONE', #941, #65, #351, .T. ) ;
#1104 = AXIS2_PLACEMENT_3D ( 'NONE', #310, #908, #624 ) ;
#1105 = DIRECTION ( 'NONE',  ( -1.000000000000000000, 0.000000000000000000, 0.000000000000000000 ) ) ;
#1106 = CARTESIAN_POINT ( 'NONE',  ( -3.000000000000000000, 9.542756901161899563, 14.06896551724140032 ) ) ;
#1107 = CIRCLE ( 'NONE', #294, 11.99999999999999822 ) ;
#1108 = VERTEX_POINT ( 'NONE', #107 ) ;
#1109 = EDGE_CURVE ( 'NONE', #320, #839, #761, .T. ) ;
#1110 = LINE ( 'NONE', #30, #1187 ) ;
#1111 = CIRCLE ( 'NONE', #559, 17.00000000000001066 ) ;
#1112 = LINE ( 'NONE', #228, #756 ) ;
#1113 = DIRECTION ( 'NONE',  ( -1.000000000000000000, -0.000000000000000000, -0.000000000000000000 ) ) ;
#1114 = EDGE_LOOP ( 'NONE', ( #1048, #760 ) ) ;
#1115 = ORIENTED_EDGE ( 'NONE', *, *, #970, .T. ) ;
#1116 = FACE_BOUND ( 'NONE', #998, .T. ) ;
#1117 = EDGE_CURVE ( 'NONE', #740, #177, #1110, .T. ) ;
#1118 = CARTESIAN_POINT ( 'NONE',  ( -3.000000000000000000, 4.375000000000000000, 6.027722283113840618 ) ) ;
#1119 = EDGE_CURVE ( 'NONE', #293, #563, #423, .T. ) ;
#1120 = MECHANICAL_DESIGN_GEOMETRIC_PRESENTATION_REPRESENTATION (  '', ( #308 ), #327 ) ;
#1121 = CARTESIAN_POINT ( 'NONE',  ( 2.999999999999999112, 30.00000000000000000, 1.604619215278546562E-14 ) ) ;
#1122 = CARTESIAN_POINT ( 'NONE',  ( 3.000000000000000000, 3.122849337825750419E-16, -2.549999999999999822 ) ) ;
#1123 = EDGE_CURVE ( 'NONE', #1146, #863, #36, .T. ) ;
#1124 = CARTESIAN_POINT ( 'NONE',  ( -3.000000000000000000, 9.542756901161899563, -14.06896551724140032 ) ) ;
#1125 = ORIENTED_EDGE ( 'NONE', *, *, #221, .T. ) ;
#1126 = EDGE_CURVE ( 'NONE', #93, #382, #1010, .T. ) ;
#1127 = CARTESIAN_POINT ( 'NONE',  ( -3.000000000000000000, 160.0000000000000000, -12.00000000000000000 ) ) ;
#1128 = ORIENTED_EDGE ( 'NONE', *, *, #954, .F. ) ;
#1129 = CARTESIAN_POINT ( 'NONE',  ( 12.99999999999999822, 30.00000000000000355, 3.000000000000011990 ) ) ;
#1130 = DIRECTION ( 'NONE',  ( 1.000000000000000000, 0.000000000000000000, 0.000000000000000000 ) ) ;
#1131 = ORIENTED_EDGE ( 'NONE', *, *, #373, .F. ) ;
#1132 = LINE ( 'NONE', #264, #378 ) ;
#1133 = VERTEX_POINT ( 'NONE', #1213 ) ;
#1134 = DIRECTION ( 'NONE',  ( 0.000000000000000000, 0.000000000000000000, 1.000000000000000000 ) ) ;
#1135 = LINE ( 'NONE', #1235, #77 ) ;
#1136 = AXIS2_PLACEMENT_3D ( 'NONE', #103, #1158, #189 ) ;
#1137 = ORIENTED_EDGE ( 'NONE', *, *, #196, .T. ) ;
#1138 = DIRECTION ( 'NONE',  ( 0.000000000000000000, 0.000000000000000000, 1.000000000000000000 ) ) ;
#1139 = EDGE_CURVE ( 'NONE', #669, #1095, #663, .T. ) ;
#1140 = DIRECTION ( 'NONE',  ( 0.000000000000000000, -1.000000000000000000, 0.000000000000000000 ) ) ;
#1141 = AXIS2_PLACEMENT_3D ( 'NONE', #865, #393, #199 ) ;
#1142 = CARTESIAN_POINT ( 'NONE',  ( -3.000000000000000000, 0.000000000000000000, 0.000000000000000000 ) ) ;
#1143 = ADVANCED_FACE ( 'NONE', ( #468 ), #942, .F. ) ;
#1144 = AXIS2_PLACEMENT_3D ( 'NONE', #175, #958, #129 ) ;
#1145 = CARTESIAN_POINT ( 'NONE',  ( 1.549999999999999378, 4.375000000000000000, 7.577722283113839552 ) ) ;
#1146 = VERTEX_POINT ( 'NONE', #279 ) ;
#1147 = CARTESIAN_POINT ( 'NONE',  ( 3.000000000000000000, -8.750000000000000000, 0.000000000000000000 ) ) ;
#1148 = EDGE_LOOP ( 'NONE', ( #1068, #62, #944, #44 ) ) ;
#1149 = CARTESIAN_POINT ( 'NONE',  ( 3.000000000000000000, 160.0000000000000000, 0.000000000000000000 ) ) ;
#1150 = ORIENTED_EDGE ( 'NONE', *, *, #573, .F. ) ;
#1151 = AXIS2_PLACEMENT_3D ( 'NONE', #491, #495, #577 ) ;
#1152 = DIRECTION ( 'NONE',  ( 0.000000000000000000, 0.000000000000000000, -1.000000000000000000 ) ) ;
#1153 = AXIS2_PLACEMENT_3D ( 'NONE', #157, #926, #538 ) ;
#1154 = ORIENTED_EDGE ( 'NONE', *, *, #309, .F. ) ;
#1155 = SURFACE_STYLE_FILL_AREA ( #1160 ) ;
#1156 = EDGE_LOOP ( 'NONE', ( #785, #877, #685, #414 ) ) ;
#1157 = DIRECTION ( 'NONE',  ( 0.000000000000000000, 0.5613386412448176932, 0.8275862068965516016 ) ) ;
#1158 = DIRECTION ( 'NONE',  ( -1.000000000000000000, 0.000000000000000000, 0.000000000000000000 ) ) ;
#1159 = ORIENTED_EDGE ( 'NONE', *, *, #494, .T. ) ;
#1160 = FILL_AREA_STYLE ('',( #442 ) ) ;
#1161 = ADVANCED_FACE ( 'NONE', ( #1038 ), #173, .F. ) ;
#1162 = DIRECTION ( 'NONE',  ( 0.000000000000000000, -1.000000000000000000, 0.000000000000000000 ) ) ;
#1163 = ORIENTED_EDGE ( 'NONE', *, *, #613, .F. ) ;
#1164 = DIRECTION ( 'NONE',  ( 1.000000000000000000, 0.000000000000000000, 0.000000000000000000 ) ) ;
#1165 = CONICAL_SURFACE ( 'NONE', #566, 1.415941433679299477, 0.7853981633974490562 ) ;
#1166 = CARTESIAN_POINT ( 'NONE',  ( -3.000000000000000000, 4.375000000000000000, -6.027722283113839730 ) ) ;
#1167 = EDGE_CURVE ( 'NONE', #843, #1199, #374, .T. ) ;
#1168 = EDGE_LOOP ( 'NONE', ( #957, #683 ) ) ;
#1169 = VERTEX_POINT ( 'NONE', #90 ) ;
#1170 = DIRECTION ( 'NONE',  ( 0.000000000000000000, 1.000000000000000000, 0.000000000000000000 ) ) ;
#1171 = VECTOR ( 'NONE', #2, 1000.000000000000000 ) ;
#1172 = CARTESIAN_POINT ( 'NONE',  ( 3.000000000000000000, 0.000000000000000000, -2.999999999999987566 ) ) ;
#1173 = ORIENTED_EDGE ( 'NONE', *, *, #725, .T. ) ;
#1174 = AXIS2_PLACEMENT_3D ( 'NONE', #796, #989, #1181 ) ;
#1175 = CYLINDRICAL_SURFACE ( 'NONE', #1141, 3.000000000000000000 ) ;
#1176 = DIRECTION ( 'NONE',  ( 0.000000000000000000, 0.000000000000000000, -1.000000000000000000 ) ) ;
#1177 = CYLINDRICAL_SURFACE ( 'NONE', #1207, 12.00000000000000000 ) ;
#1178 = ADVANCED_FACE ( 'NONE', ( #962 ), #670, .F. ) ;
#1179 = CARTESIAN_POINT ( 'NONE',  ( 3.000000000000000000, 4.375000000000000000, -7.577722283113839552 ) ) ;
#1180 = DIRECTION ( 'NONE',  ( 1.000000000000000000, 0.000000000000000000, 0.000000000000000000 ) ) ;
#1181 = DIRECTION ( 'NONE',  ( 0.000000000000000000, 0.000000000000000000, 1.000000000000000000 ) ) ;
#1182 = ORIENTED_EDGE ( 'NONE', *, *, #706, .F. ) ;
#1183 = EDGE_CURVE ( 'NONE', #969, #584, #203, .T. ) ;
#1184 = DIRECTION ( 'NONE',  ( 0.000000000000000000, 0.000000000000000000, 1.000000000000000000 ) ) ;
#1185 = CIRCLE ( 'NONE', #519, 1.549999999999999378 ) ;
#1186 = LINE ( 'NONE', #711, #282 ) ;
#1187 = VECTOR ( 'NONE', #231, 1000.000000000000000 ) ;
#1188 = CARTESIAN_POINT ( 'NONE',  ( -3.000000000000000000, 30.00000000000000355, 3.000000000000011990 ) ) ;
#1189 = PRODUCT_DEFINITION_FORMATION_WITH_SPECIFIED_SOURCE ( 'ä»', '', #365, .NOT_KNOWN. ) ;
#1190 = CYLINDRICAL_SURFACE ( 'NONE', #198, 1.550000000000000266 ) ;
#1191 = CARTESIAN_POINT ( 'NONE',  ( 12.99999999999999822, 90.00000000000000000, 3.000000000000011990 ) ) ;
#1192 = ORIENTED_EDGE ( 'NONE', *, *, #9, .T. ) ;
#1193 = VERTEX_POINT ( 'NONE', #572 ) ;
#1194 = EDGE_CURVE ( 'NONE', #830, #925, #956, .T. ) ;
#1195 = DIRECTION ( 'NONE',  ( -1.000000000000000000, -0.000000000000000000, -0.000000000000000000 ) ) ;
#1196 = EDGE_CURVE ( 'NONE', #1199, #1095, #1242, .T. ) ;
#1197 = LINE ( 'NONE', #412, #474 ) ;
#1198 = ORIENTED_EDGE ( 'NONE', *, *, #1021, .F. ) ;
#1199 = VERTEX_POINT ( 'NONE', #860 ) ;
#1200 = VECTOR ( 'NONE', #1130, 1000.000000000000000 ) ;
#1201 = CYLINDRICAL_SURFACE ( 'NONE', #627, 3.000000000000000000 ) ;
#1202 = APPLICATION_CONTEXT ( 'automotive_design' ) ;
#1203 = ORIENTED_EDGE ( 'NONE', *, *, #1004, .F. ) ;
#1204 = CARTESIAN_POINT ( 'NONE',  ( -3.000000000000000000, 16.27882059609969900, 24.00000000000000000 ) ) ;
#1205 = ORIENTED_EDGE ( 'NONE', *, *, #790, .F. ) ;
#1206 = CARTESIAN_POINT ( 'NONE',  ( 12.99999999999999822, 90.00000000000000000, -2.999999999999987566 ) ) ;
#1207 = AXIS2_PLACEMENT_3D ( 'NONE', #703, #1091, #578 ) ;
#1208 = DIRECTION ( 'NONE',  ( 1.000000000000000000, 0.000000000000000000, -0.000000000000000000 ) ) ;
#1209 = CARTESIAN_POINT ( 'NONE',  ( -3.000000000000000000, 160.0000000000000000, 6.550000000000000711 ) ) ;
#1210 = AXIS2_PLACEMENT_3D ( 'NONE', #420, #16, #229 ) ;
#1211 = VERTEX_POINT ( 'NONE', #462 ) ;
#1212 = EDGE_CURVE ( 'NONE', #1027, #955, #266, .T. ) ;
#1213 = CARTESIAN_POINT ( 'NONE',  ( 2.999999995394410313, -8.749999944857318468, 2.999999995394410313 ) ) ;
#1214 = EDGE_CURVE ( 'NONE', #406, #584, #380, .T. ) ;
#1215 = VERTEX_POINT ( 'NONE', #1030 ) ;
#1216 = DIRECTION ( 'NONE',  ( -1.000000000000000000, 0.000000000000000000, 0.000000000000000000 ) ) ;
#1217 = CARTESIAN_POINT ( 'NONE',  ( -3.000000000000000000, 130.0000000000000000, -2.555011131713901953E-15 ) ) ;
#1218 = ORIENTED_EDGE ( 'NONE', *, *, #774, .T. ) ;
#1219 = FACE_BOUND ( 'NONE', #1050, .T. ) ;
#1220 = EDGE_CURVE ( 'NONE', #152, #753, #637, .T. ) ;
#1221 = ADVANCED_FACE ( 'NONE', ( #558 ), #160, .F. ) ;
#1222 = CARTESIAN_POINT ( 'NONE',  ( 2.999999999999999112, 50.00000000000000000, 1.237225175534340487E-14 ) ) ;
#1223 = EDGE_LOOP ( 'NONE', ( #181, #193, #605, #1090 ) ) ;
#1224 = VECTOR ( 'NONE', #269, 1000.000000000000000 ) ;
#1225 = CIRCLE ( 'NONE', #672, 3.000000000000000000 ) ;
#1226 = CARTESIAN_POINT ( 'NONE',  ( 7.000000000000000000, 4.375000000000000000, -9.127722283113838486 ) ) ;
#1227 = LINE ( 'NONE', #250, #946 ) ;
#1228 = DIRECTION ( 'NONE',  ( -1.000000000000000000, -0.000000000000000000, -0.000000000000000000 ) ) ;
#1229 = CARTESIAN_POINT ( 'NONE',  ( 7.000000000000000000, 160.0000000000000000, 0.000000000000000000 ) ) ;
#1230 = EDGE_LOOP ( 'NONE', ( #225, #873, #1128, #187 ) ) ;
#1231 = DIRECTION ( 'NONE',  ( 0.000000000000000000, 0.000000000000000000, 1.000000000000000000 ) ) ;
#1232 = VERTEX_POINT ( 'NONE', #182 ) ;
#1233 = DIRECTION ( 'NONE',  ( 1.000000000000000000, 0.000000000000000000, 0.000000000000000000 ) ) ;
#1234 = AXIS2_PLACEMENT_3D ( 'NONE', #516, #112, #22 ) ;
#1235 = CARTESIAN_POINT ( 'NONE',  ( 12.99999999999999822, 129.9999999999999716, -3.000000000000002665 ) ) ;
#1236 = EDGE_CURVE ( 'NONE', #1133, #993, #758, .T. ) ;
#1237 = ADVANCED_BREP_SHAPE_REPRESENTATION ( '\X2\52a05de58fde6746\X0\1', ( #488, #818 ), #429 ) ;
#1238 = ORIENTED_EDGE ( 'NONE', *, *, #807, .T. ) ;
#1239 = DIRECTION ( 'NONE',  ( 1.000000000000000000, 0.000000000000000000, 0.000000000000000000 ) ) ;
#1240 = ADVANCED_FACE ( 'NONE', ( #359 ), #840, .T. ) ;
#1241 = ORIENTED_EDGE ( 'NONE', *, *, #494, .F. ) ;
#1242 = LINE ( 'NONE', #456, #633 ) ;
#1243 = CARTESIAN_POINT ( 'NONE',  ( 12.99999999999999822, 110.0000000000000000, -3.000000000000002665 ) ) ;
#1244 = EDGE_LOOP ( 'NONE', ( #1159, #246, #1043, #322 ) ) ;
#1245 = DIRECTION ( 'NONE',  ( 0.000000000000000000, 0.000000000000000000, -1.000000000000000000 ) ) ;
#1246 = CIRCLE ( 'NONE', #853, 11.99999999999999822 ) ;
#1247 = VERTEX_POINT ( 'NONE', #550 ) ;
#1248 = DIRECTION ( 'NONE',  ( 0.000000000000000000, 0.000000000000000000, 1.000000000000000000 ) ) ;
#1249 = AXIS2_PLACEMENT_3D ( 'NONE', #564, #385, #256 ) ;
#1250 = LINE ( 'NONE', #784, #262 ) ;
#1251 = ORIENTED_EDGE ( 'NONE', *, *, #988, .F. ) ;
#1252 = DIRECTION ( 'NONE',  ( -1.000000000000000000, 0.000000000000000000, 0.000000000000000000 ) ) ;
#1253 = ORIENTED_EDGE ( 'NONE', *, *, #909, .F. ) ;
#1254 = CARTESIAN_POINT ( 'NONE',  ( 7.000000000000000000, 3.122849337825750419E-16, -2.549999999999999822 ) ) ;
#1255 = EDGE_CURVE ( 'NONE', #623, #152, #469, .T. ) ;
#1256 = VECTOR ( 'NONE', #319, 1000.000000000000000 ) ;
#1257 = EDGE_CURVE ( 'NONE', #1095, #127, #881, .T. ) ;
#1258 = DIRECTION ( 'NONE',  ( 1.000000000000000000, 0.000000000000000000, 0.000000000000000000 ) ) ;
#1259 = ORIENTED_EDGE ( 'NONE', *, *, #533, .T. ) ;
#1260 = FACE_OUTER_BOUND ( 'NONE', #211, .T. ) ;
#1261 = FACE_OUTER_BOUND ( 'NONE', #1148, .T. ) ;
#1262 = ORIENTED_EDGE ( 'NONE', *, *, #749, .T. ) ;
#1263 = CARTESIAN_POINT ( 'NONE',  ( 12.99999999999999822, 69.99999999999998579, 3.000000000000011990 ) ) ;
#1264 = CARTESIAN_POINT ( 'NONE',  ( 2.999999995394410313, 4.375000055142679756, 10.57772227850819924 ) ) ;
#1265 = ADVANCED_FACE ( 'NONE', ( #977 ), #1177, .T. ) ;
#1266 = ORIENTED_EDGE ( 'NONE', *, *, #1194, .F. ) ;
#1267 = LINE ( 'NONE', #499, #285 ) ;
#1268 = LINE ( 'NONE', #11, #903 ) ;
#1269 = ORIENTED_EDGE ( 'NONE', *, *, #82, .F. ) ;
#1270 = DIRECTION ( 'NONE',  ( -1.000000000000000000, 0.000000000000000000, 0.000000000000000000 ) ) ;
#1271 = ORIENTED_EDGE ( 'NONE', *, *, #892, .T. ) ;
ENDSEC;
END-ISO-10303-21;
