ISO-10303-21;
HEADER;
FILE_DESCRIPTION (( 'STEP AP214' ),
    '1' );
FILE_NAME ('Á¬¸Ë1.STEP',
    '2025-04-14T01:07:19',
    ( '' ),
    ( '' ),
    'SwSTEP 2.0',
    'SolidWorks 2025',
    '' );
FILE_SCHEMA (( 'AUTOMOTIVE_DESIGN' ));
ENDSEC;

DATA;
#1 = LINE ( 'NONE', #747, #565 ) ;
#2 = ADVANCED_FACE ( 'NONE', ( #770 ), #765, .F. ) ;
#3 = EDGE_CURVE ( 'NONE', #588, #1130, #966, .T. ) ;
#4 = AXIS2_PLACEMENT_3D ( 'NONE', #12, #968, #501 ) ;
#5 = DIRECTION ( 'NONE',  ( 1.000000000000000000, 0.000000000000000000, 0.000000000000000000 ) ) ;
#6 = LINE ( 'NONE', #797, #396 ) ;
#7 = EDGE_LOOP ( 'NONE', ( #461, #1214, #42, #937 ) ) ;
#8 = CARTESIAN_POINT ( 'NONE',  ( 2.999999995394410313, 4.374999944857320244, -10.57772227850819924 ) ) ;
#9 = VECTOR ( 'NONE', #608, 1000.000000000000000 ) ;
#10 = CARTESIAN_POINT ( 'NONE',  ( -3.000000000000000000, 4.375000000000000000, -5.927722283113839197 ) ) ;
#11 = DIRECTION ( 'NONE',  ( -1.000000000000000000, -0.000000000000000000, -0.000000000000000000 ) ) ;
#12 = CARTESIAN_POINT ( 'NONE',  ( 1.415941433679299921, 4.375000000000000000, 7.577722283113839552 ) ) ;
#13 = ORIENTED_EDGE ( 'NONE', *, *, #1217, .T. ) ;
#14 = DIRECTION ( 'NONE',  ( 0.000000000000000000, 0.000000000000000000, -1.000000000000000000 ) ) ;
#15 = AXIS2_PLACEMENT_3D ( 'NONE', #41, #825, #812 ) ;
#16 = DIRECTION ( 'NONE',  ( 0.000000000000000000, 0.000000000000000000, 1.000000000000000000 ) ) ;
#17 = FACE_BOUND ( 'NONE', #40, .T. ) ;
#18 = VECTOR ( 'NONE', #643, 1000.000000000000000 ) ;
#19 = LINE ( 'NONE', #869, #464 ) ;
#20 = CYLINDRICAL_SURFACE ( 'NONE', #514, 6.649999999999996803 ) ;
#21 = DIRECTION ( 'NONE',  ( -1.000000000000000000, 0.000000000000000000, 0.000000000000000000 ) ) ;
#22 = EDGE_CURVE ( 'NONE', #814, #1250, #83, .T. ) ;
#23 = AXIS2_PLACEMENT_3D ( 'NONE', #610, #29, #716 ) ;
#24 = PRODUCT_CONTEXT ( 'NONE', #745, 'mechanical' ) ;
#25 = CYLINDRICAL_SURFACE ( 'NONE', #1200, 17.00000000000000000 ) ;
#26 = DIRECTION ( 'NONE',  ( -1.000000000000000000, 0.000000000000000000, 0.000000000000000000 ) ) ;
#27 = VECTOR ( 'NONE', #788, 1000.000000000000000 ) ;
#28 = AXIS2_PLACEMENT_3D ( 'NONE', #107, #891, #782 ) ;
#29 = DIRECTION ( 'NONE',  ( 1.000000000000000000, 0.000000000000000000, 0.000000000000000000 ) ) ;
#30 = CARTESIAN_POINT ( 'NONE',  ( 2.999999999999999112, 110.0000000000000000, 6.017516462317565123E-15 ) ) ;
#31 = VERTEX_POINT ( 'NONE', #1239 ) ;
#32 = DIRECTION ( 'NONE',  ( -1.000000000000000000, -0.000000000000000000, -0.000000000000000000 ) ) ;
#33 = ORIENTED_EDGE ( 'NONE', *, *, #523, .F. ) ;
#34 = CIRCLE ( 'NONE', #759, 3.000000000000000000 ) ;
#35 = DIRECTION ( 'NONE',  ( 0.000000000000000000, 0.000000000000000000, 1.000000000000000000 ) ) ;
#36 = EDGE_LOOP ( 'NONE', ( #1001, #1069, #378, #1150 ) ) ;
#37 = ORIENTED_EDGE ( 'NONE', *, *, #57, .T. ) ;
#38 = EDGE_CURVE ( 'NONE', #53, #1035, #263, .T. ) ;
#39 = EDGE_CURVE ( 'NONE', #481, #648, #758, .T. ) ;
#40 = EDGE_LOOP ( 'NONE', ( #992, #288, #1151, #374 ) ) ;
#41 = CARTESIAN_POINT ( 'NONE',  ( 12.99999999999999822, 130.0000000000000000, -2.555011131713901953E-15 ) ) ;
#42 = ORIENTED_EDGE ( 'NONE', *, *, #1067, .T. ) ;
#43 = CARTESIAN_POINT ( 'NONE',  ( 12.99999999999999822, 50.00000000000000000, 1.237225175534340487E-14 ) ) ;
#44 = ORIENTED_EDGE ( 'NONE', *, *, #1154, .F. ) ;
#45 = DIRECTION ( 'NONE',  ( 0.000000000000000000, 0.000000000000000000, -1.000000000000000000 ) ) ;
#46 = ORIENTED_EDGE ( 'NONE', *, *, #324, .T. ) ;
#47 = FACE_BOUND ( 'NONE', #138, .T. ) ;
#48 = ORIENTED_EDGE ( 'NONE', *, *, #1265, .F. ) ;
#49 = DIRECTION ( 'NONE',  ( -1.000000000000000000, 0.000000000000000000, 0.000000000000000000 ) ) ;
#50 = VECTOR ( 'NONE', #1271, 1000.000000000000000 ) ;
#51 = ORIENTED_EDGE ( 'NONE', *, *, #558, .F. ) ;
#52 = DIRECTION ( 'NONE',  ( 1.000000000000000000, 0.000000000000000000, 0.000000000000000000 ) ) ;
#53 = VERTEX_POINT ( 'NONE', #930 ) ;
#54 = CARTESIAN_POINT ( 'NONE',  ( 2.999999999999999112, 110.0000000000000000, 2.999999999999997335 ) ) ;
#55 = FACE_OUTER_BOUND ( 'NONE', #410, .T. ) ;
#56 = VERTEX_POINT ( 'NONE', #734 ) ;
#57 = EDGE_CURVE ( 'NONE', #971, #1019, #566, .T. ) ;
#58 = ORIENTED_EDGE ( 'NONE', *, *, #363, .T. ) ;
#59 = FACE_OUTER_BOUND ( 'NONE', #931, .T. ) ;
#60 = ORIENTED_EDGE ( 'NONE', *, *, #998, .T. ) ;
#61 = DIRECTION ( 'NONE',  ( 0.000000000000000000, 0.000000000000000000, -1.000000000000000000 ) ) ;
#62 = VECTOR ( 'NONE', #139, 1000.000000000000000 ) ;
#63 = PLANE ( 'NONE',  #901 ) ;
#64 = EDGE_LOOP ( 'NONE', ( #829, #653, #1143, #784 ) ) ;
#65 = ORIENTED_EDGE ( 'NONE', *, *, #769, .T. ) ;
#66 = EDGE_CURVE ( 'NONE', #1250, #248, #637, .T. ) ;
#67 = VECTOR ( 'NONE', #1262, 1000.000000000000000 ) ;
#68 = DIRECTION ( 'NONE',  ( 1.000000000000000000, 0.000000000000000000, -0.000000000000000000 ) ) ;
#69 = ORIENTED_EDGE ( 'NONE', *, *, #810, .F. ) ;
#70 = CLOSED_SHELL ( 'NONE', ( #530, #418, #911, #2, #1021, #453, #587, #369, #129, #180, #1203, #609, #853, #490, #630, #409, #1011, #305, #172, #789, #1237, #1058, #1165, #1010, #137, #271, #906, #436, #1216, #732, #715, #115, #1050, #705, #768, #489, #155, #131 ) ) ;
#71 = DIRECTION ( 'NONE',  ( 0.000000000000000000, 0.5613386412448176932, 0.8275862068965516016 ) ) ;
#72 = ORIENTED_EDGE ( 'NONE', *, *, #270, .T. ) ;
#73 = ORIENTED_EDGE ( 'NONE', *, *, #1082, .F. ) ;
#74 = EDGE_CURVE ( 'NONE', #328, #146, #233, .T. ) ;
#75 = AXIS2_PLACEMENT_3D ( 'NONE', #244, #515, #1018 ) ;
#76 = LINE ( 'NONE', #1142, #186 ) ;
#77 = ORIENTED_EDGE ( 'NONE', *, *, #247, .F. ) ;
#78 = VECTOR ( 'NONE', #956, 1000.000000000000000 ) ;
#79 = ORIENTED_EDGE ( 'NONE', *, *, #1178, .T. ) ;
#80 = ORIENTED_EDGE ( 'NONE', *, *, #997, .F. ) ;
#81 = DIRECTION ( 'NONE',  ( -1.000000000000000000, -0.000000000000000000, -0.000000000000000000 ) ) ;
#82 = DIRECTION ( 'NONE',  ( 0.000000000000000000, 0.000000000000000000, 1.000000000000000000 ) ) ;
#83 = LINE ( 'NONE', #553, #1212 ) ;
#84 = DIRECTION ( 'NONE',  ( -1.000000000000000000, -0.000000000000000000, -0.000000000000000000 ) ) ;
#85 = CIRCLE ( 'NONE', #644, 1.650000000000000355 ) ;
#86 = CARTESIAN_POINT ( 'NONE',  ( -3.000000000000000000, 4.375000000000000000, -7.577722283113839552 ) ) ;
#87 = CIRCLE ( 'NONE', #132, 3.000000000000000000 ) ;
#88 = EDGE_CURVE ( 'NONE', #509, #1063, #1246, .T. ) ;
#89 = VERTEX_POINT ( 'NONE', #262 ) ;
#90 = DIRECTION ( 'NONE',  ( 0.000000000000000000, 0.000000000000000000, 1.000000000000000000 ) ) ;
#91 = DIRECTION ( 'NONE',  ( 0.000000000000000000, 0.000000000000000000, -1.000000000000000000 ) ) ;
#92 = CARTESIAN_POINT ( 'NONE',  ( 2.999999999999999112, 90.00000000000000000, 1.237225175534340802E-14 ) ) ;
#93 = CARTESIAN_POINT ( 'NONE',  ( 7.000000000000000000, 4.375000000000000000, -7.577722283113839552 ) ) ;
#94 = ORIENTED_EDGE ( 'NONE', *, *, #292, .F. ) ;
#95 = CARTESIAN_POINT ( 'NONE',  ( -3.000000000000000000, 110.0000000000000000, 2.999999999999997335 ) ) ;
#96 = EDGE_CURVE ( 'NONE', #31, #89, #246, .T. ) ;
#97 = PRESENTATION_LAYER_ASSIGNMENT (  '', '', ( #126 ) ) ;
#98 = LINE ( 'NONE', #875, #973 ) ;
#99 = CARTESIAN_POINT ( 'NONE',  ( -3.000000000000000000, 4.375000000000000000, -9.227722283113839907 ) ) ;
#100 = DIRECTION ( 'NONE',  ( -1.000000000000000000, -0.000000000000000000, -0.000000000000000000 ) ) ;
#101 = ORIENTED_EDGE ( 'NONE', *, *, #898, .F. ) ;
#102 = CARTESIAN_POINT ( 'NONE',  ( -3.000000000000000000, -8.750000000000000000, 0.000000000000000000 ) ) ;
#103 = EDGE_CURVE ( 'NONE', #581, #273, #335, .T. ) ;
#104 = DIRECTION ( 'NONE',  ( 0.000000000000000000, 0.000000000000000000, -1.000000000000000000 ) ) ;
#105 = AXIS2_PLACEMENT_3D ( 'NONE', #336, #753, #656 ) ;
#106 = VECTOR ( 'NONE', #892, 1000.000000000000000 ) ;
#107 = CARTESIAN_POINT ( 'NONE',  ( 7.000000000000000000, 160.0000000000000000, 0.000000000000000000 ) ) ;
#108 = CARTESIAN_POINT ( 'NONE',  ( -3.000000000000000000, 160.0000000000000000, 0.000000000000000000 ) ) ;
#109 = ORIENTED_EDGE ( 'NONE', *, *, #22, .F. ) ;
#110 = CARTESIAN_POINT ( 'NONE',  ( -3.000000000000000000, 0.000000000000000000, 0.000000000000000000 ) ) ;
#111 = CIRCLE ( 'NONE', #807, 17.00000000000001066 ) ;
#112 = AXIS2_PLACEMENT_3D ( 'NONE', #160, #169, #350 ) ;
#113 = CARTESIAN_POINT ( 'NONE',  ( -3.000000000000000000, 16.27882059609969900, -12.00000000000000000 ) ) ;
#114 = DIRECTION ( 'NONE',  ( 0.000000000000000000, 0.5613386412448176932, 0.8275862068965516016 ) ) ;
#115 = ADVANCED_FACE ( 'NONE', ( #536 ), #923, .T. ) ;
#116 = DIRECTION ( 'NONE',  ( 1.000000000000000000, 0.000000000000000000, 0.000000000000000000 ) ) ;
#117 = CARTESIAN_POINT ( 'NONE',  ( 3.000000000000000000, 0.000000000000000000, 3.000000000000011990 ) ) ;
#118 = ORIENTED_EDGE ( 'NONE', *, *, #546, .F. ) ;
#119 = DIRECTION ( 'NONE',  ( 0.000000000000000000, 0.5613386412448176932, 0.8275862068965516016 ) ) ;
#120 = VECTOR ( 'NONE', #1077, 1000.000000000000114 ) ;
#121 = SHAPE_DEFINITION_REPRESENTATION ( #832, #135 ) ;
#122 = DIRECTION ( 'NONE',  ( 1.000000000000000000, 0.000000000000000000, 0.000000000000000000 ) ) ;
#123 = AXIS2_PLACEMENT_3D ( 'NONE', #1075, #709, #14 ) ;
#124 = LINE ( 'NONE', #1102, #1123 ) ;
#125 = CARTESIAN_POINT ( 'NONE',  ( -3.000000000000000000, 160.0000000000000000, 0.000000000000000000 ) ) ;
#126 = STYLED_ITEM ( 'NONE', ( #228 ), #582 ) ;
#127 = SURFACE_STYLE_FILL_AREA ( #1008 ) ;
#128 = DIRECTION ( 'NONE',  ( 0.000000000000000000, 0.000000000000000000, -1.000000000000000000 ) ) ;
#129 = ADVANCED_FACE ( 'NONE', ( #59 ), #439, .F. ) ;
#130 = CIRCLE ( 'NONE', #1029, 1.650000000000000133 ) ;
#131 = ADVANCED_FACE ( 'NONE', ( #456 ), #647, .F. ) ;
#132 = AXIS2_PLACEMENT_3D ( 'NONE', #680, #116, #1169 ) ;
#133 = DIRECTION ( 'NONE',  ( -0.7071067811865473507, -4.317746062170731835E-08, -0.7071067811865463515 ) ) ;
#134 = CARTESIAN_POINT ( 'NONE',  ( 2.999999999999999112, 30.00000000000000355, 3.000000000000011990 ) ) ;
#135 = ADVANCED_BREP_SHAPE_REPRESENTATION ( '\X2\8fde6746\X0\1', ( #582, #1240 ), #1173 ) ;
#136 = AXIS2_PLACEMENT_3D ( 'NONE', #739, #1105, #928 ) ;
#137 = ADVANCED_FACE ( 'NONE', ( #1020 ), #542, .F. ) ;
#138 = EDGE_LOOP ( 'NONE', ( #352, #1116, #918, #79 ) ) ;
#139 = DIRECTION ( 'NONE',  ( -1.000000000000000000, -0.000000000000000000, -0.000000000000000000 ) ) ;
#140 = ORIENTED_EDGE ( 'NONE', *, *, #312, .T. ) ;
#141 = CONICAL_SURFACE ( 'NONE', #1085, 1.415941433679299921, 0.7853981633974490562 ) ;
#142 = CARTESIAN_POINT ( 'NONE',  ( 3.000000000000000000, 4.375000000000000000, 7.577722283113839552 ) ) ;
#143 = VERTEX_POINT ( 'NONE', #359 ) ;
#144 = CARTESIAN_POINT ( 'NONE',  ( -3.000000000000000000, 0.000000000000000000, 0.000000000000000000 ) ) ;
#145 = EDGE_CURVE ( 'NONE', #1047, #817, #1191, .T. ) ;
#146 = VERTEX_POINT ( 'NONE', #852 ) ;
#147 = CARTESIAN_POINT ( 'NONE',  ( 7.000000000000000000, 160.0000000000000000, 6.649999999999996803 ) ) ;
#148 = ORIENTED_EDGE ( 'NONE', *, *, #341, .T. ) ;
#149 = FACE_OUTER_BOUND ( 'NONE', #859, .T. ) ;
#150 = ORIENTED_EDGE ( 'NONE', *, *, #917, .F. ) ;
#151 = DIRECTION ( 'NONE',  ( 1.000000000000000000, 0.000000000000000000, 0.000000000000000000 ) ) ;
#152 = ORIENTED_EDGE ( 'NONE', *, *, #1188, .T. ) ;
#153 = CARTESIAN_POINT ( 'NONE',  ( -3.000000000000000000, 69.99999999999998579, 3.000000000000011990 ) ) ;
#154 = ORIENTED_EDGE ( 'NONE', *, *, #810, .T. ) ;
#155 = ADVANCED_FACE ( 'NONE', ( #367 ), #757, .F. ) ;
#156 = CARTESIAN_POINT ( 'NONE',  ( -3.000000000000000000, 69.99999999999998579, -2.999999999999987566 ) ) ;
#157 = LINE ( 'NONE', #842, #1226 ) ;
#158 = VERTEX_POINT ( 'NONE', #1113 ) ;
#159 = ORIENTED_EDGE ( 'NONE', *, *, #523, .T. ) ;
#160 = CARTESIAN_POINT ( 'NONE',  ( 12.99999999999999822, 110.0000000000000000, -3.000000000000002665 ) ) ;
#161 = AXIS2_PLACEMENT_3D ( 'NONE', #1196, #444, #128 ) ;
#162 = ORIENTED_EDGE ( 'NONE', *, *, #1051, .F. ) ;
#163 = CARTESIAN_POINT ( 'NONE',  ( -3.000000000000000000, 16.27882059609969900, -24.00000000000000000 ) ) ;
#164 = LINE ( 'NONE', #1260, #749 ) ;
#165 = CARTESIAN_POINT ( 'NONE',  ( -3.000000000000000000, 30.00000000000000355, -2.999999999999987566 ) ) ;
#166 = AXIS2_PLACEMENT_3D ( 'NONE', #761, #766, #177 ) ;
#167 = ORIENTED_EDGE ( 'NONE', *, *, #317, .F. ) ;
#168 = ORIENTED_EDGE ( 'NONE', *, *, #1129, .T. ) ;
#169 = DIRECTION ( 'NONE',  ( 0.000000000000000000, 0.000000000000000000, 1.000000000000000000 ) ) ;
#170 = DIRECTION ( 'NONE',  ( -1.000000000000000000, -0.000000000000000000, -0.000000000000000000 ) ) ;
#171 = DIRECTION ( 'NONE',  ( -1.000000000000000000, -0.000000000000000000, -0.000000000000000000 ) ) ;
#172 = ADVANCED_FACE ( 'NONE', ( #440 ), #828, .F. ) ;
#173 = ORIENTED_EDGE ( 'NONE', *, *, #769, .F. ) ;
#174 = CIRCLE ( 'NONE', #1053, 6.649999999999996803 ) ;
#175 = ORIENTED_EDGE ( 'NONE', *, *, #855, .T. ) ;
#176 = AXIS2_PLACEMENT_3D ( 'NONE', #1228, #1036, #1120 ) ;
#177 = DIRECTION ( 'NONE',  ( 1.000000000000000000, 0.000000000000000000, -0.000000000000000000 ) ) ;
#178 = ORIENTED_EDGE ( 'NONE', *, *, #498, .F. ) ;
#179 = EDGE_CURVE ( 'NONE', #347, #53, #907, .T. ) ;
#180 = ADVANCED_FACE ( 'NONE', ( #700 ), #521, .F. ) ;
#181 = ORIENTED_EDGE ( 'NONE', *, *, #400, .F. ) ;
#182 = EDGE_LOOP ( 'NONE', ( #33, #150, #545, #1024 ) ) ;
#183 = AXIS2_PLACEMENT_3D ( 'NONE', #601, #799, #993 ) ;
#184 = DIRECTION ( 'NONE',  ( -1.000000000000000000, -0.000000000000000000, -0.000000000000000000 ) ) ;
#185 = ORIENTED_EDGE ( 'NONE', *, *, #689, .F. ) ;
#186 = VECTOR ( 'NONE', #1126, 1000.000000000000000 ) ;
#187 = DIRECTION ( 'NONE',  ( 0.000000000000000000, 0.000000000000000000, 1.000000000000000000 ) ) ;
#188 = LINE ( 'NONE', #1232, #342 ) ;
#189 = CARTESIAN_POINT ( 'NONE',  ( 1.649999999999999911, -8.749999899247454138, 1.650000000000001910 ) ) ;
#190 = AXIS2_PLACEMENT_3D ( 'NONE', #420, #1104, #811 ) ;
#191 = ORIENTED_EDGE ( 'NONE', *, *, #946, .F. ) ;
#192 = FACE_OUTER_BOUND ( 'NONE', #632, .T. ) ;
#193 = DIRECTION ( 'NONE',  ( 0.000000000000000000, -0.5613386412448169160, -0.8275862068965521567 ) ) ;
#194 = CARTESIAN_POINT ( 'NONE',  ( -3.000000000000000000, 4.375000000000000000, 5.927722283113839197 ) ) ;
#195 = AXIS2_PLACEMENT_3D ( 'NONE', #1078, #500, #882 ) ;
#196 = EDGE_CURVE ( 'NONE', #581, #1253, #1072, .T. ) ;
#197 = ORIENTED_EDGE ( 'NONE', *, *, #361, .F. ) ;
#198 = DIRECTION ( 'NONE',  ( 0.000000000000000000, 0.000000000000000000, 1.000000000000000000 ) ) ;
#199 = DIRECTION ( 'NONE',  ( -1.000000000000000000, 0.000000000000000000, 0.000000000000000000 ) ) ;
#200 = CARTESIAN_POINT ( 'NONE',  ( 3.000000000000000000, 3.245314017740485962E-16, -2.649999999999999911 ) ) ;
#201 = DIRECTION ( 'NONE',  ( 0.000000000000000000, -1.000000000000000000, 0.000000000000000000 ) ) ;
#202 = ORIENTED_EDGE ( 'NONE', *, *, #1090, .T. ) ;
#203 = DIRECTION ( 'NONE',  ( -1.000000000000000000, 0.000000000000000000, 0.000000000000000000 ) ) ;
#204 =( GEOMETRIC_REPRESENTATION_CONTEXT ( 3 ) GLOBAL_UNCERTAINTY_ASSIGNED_CONTEXT ( ( #806 ) ) GLOBAL_UNIT_ASSIGNED_CONTEXT ( ( #525, #728, #459 ) ) REPRESENTATION_CONTEXT ( 'NONE', 'WORKASPACE' ) );
#205 = PLANE ( 'NONE',  #951 ) ;
#206 = CARTESIAN_POINT ( 'NONE',  ( 1.650000000000000355, 4.375000000000000000, -7.577722283113839552 ) ) ;
#207 = LINE ( 'NONE', #117, #1208 ) ;
#208 = ORIENTED_EDGE ( 'NONE', *, *, #1141, .T. ) ;
#209 = DIRECTION ( 'NONE',  ( 1.000000000000000000, 0.000000000000000000, 0.000000000000000000 ) ) ;
#210 = EDGE_CURVE ( 'NONE', #394, #817, #976, .T. ) ;
#211 = FACE_BOUND ( 'NONE', #933, .T. ) ;
#212 = CARTESIAN_POINT ( 'NONE',  ( -3.000000000000000000, 160.0000000000000000, -6.649999999999996803 ) ) ;
#213 = DIRECTION ( 'NONE',  ( 0.000000000000000000, 0.000000000000000000, 1.000000000000000000 ) ) ;
#214 = ORIENTED_EDGE ( 'NONE', *, *, #954, .T. ) ;
#215 = CARTESIAN_POINT ( 'NONE',  ( 7.000000000000000000, 4.375000000000000000, 5.927722283113839197 ) ) ;
#216 = APPLICATION_PROTOCOL_DEFINITION ( 'draft international standard', 'automotive_design', 1998, #745 ) ;
#217 = CARTESIAN_POINT ( 'NONE',  ( 3.000000000000000000, 160.0000000000000000, 6.649999999999996803 ) ) ;
#218 = CARTESIAN_POINT ( 'NONE',  ( 3.000000000000000000, 0.000000000000000000, 2.649999999999999911 ) ) ;
#219 = CARTESIAN_POINT ( 'NONE',  ( 3.000000000000000000, 4.375000000000000000, -7.577722283113839552 ) ) ;
#220 = AXIS2_PLACEMENT_3D ( 'NONE', #683, #21, #488 ) ;
#221 = ORIENTED_EDGE ( 'NONE', *, *, #573, .F. ) ;
#222 = EDGE_CURVE ( 'NONE', #394, #719, #87, .T. ) ;
#223 = CARTESIAN_POINT ( 'NONE',  ( 12.99999999999999822, 30.00000000000000355, -2.999999999999987566 ) ) ;
#224 = EDGE_CURVE ( 'NONE', #368, #672, #896, .T. ) ;
#225 = DIRECTION ( 'NONE',  ( -1.000000000000000000, -0.000000000000000000, -0.000000000000000000 ) ) ;
#226 = VECTOR ( 'NONE', #133, 1000.000000000000114 ) ;
#227 = LINE ( 'NONE', #113, #358 ) ;
#228 = PRESENTATION_STYLE_ASSIGNMENT (( #908 ) ) ;
#229 = AXIS2_PLACEMENT_3D ( 'NONE', #406, #776, #1160 ) ;
#230 = CARTESIAN_POINT ( 'NONE',  ( 7.000000000000000000, 4.375000000000000000, 7.577722283113839552 ) ) ;
#231 = EDGE_CURVE ( 'NONE', #56, #843, #583, .T. ) ;
#232 = AXIS2_PLACEMENT_3D ( 'NONE', #1156, #81, #651 ) ;
#233 = CIRCLE ( 'NONE', #176, 3.000000000000000000 ) ;
#234 = ORIENTED_EDGE ( 'NONE', *, *, #1198, .F. ) ;
#235 = DIRECTION ( 'NONE',  ( 0.000000000000000000, 0.000000000000000000, 1.000000000000000000 ) ) ;
#236 = ORIENTED_EDGE ( 'NONE', *, *, #970, .T. ) ;
#237 = DIRECTION ( 'NONE',  ( 0.000000000000000000, 0.000000000000000000, 1.000000000000000000 ) ) ;
#238 = AXIS2_PLACEMENT_3D ( 'NONE', #1117, #628, #320 ) ;
#239 = VERTEX_POINT ( 'NONE', #200 ) ;
#240 = CARTESIAN_POINT ( 'NONE',  ( 12.99999999999999822, 30.00000000000000355, 3.000000000000011990 ) ) ;
#241 = ORIENTED_EDGE ( 'NONE', *, *, #890, .F. ) ;
#242 = ORIENTED_EDGE ( 'NONE', *, *, #678, .F. ) ;
#243 = VECTOR ( 'NONE', #568, 1000.000000000000000 ) ;
#244 = CARTESIAN_POINT ( 'NONE',  ( -3.000000000000000000, 4.375000000000000000, 7.577722283113839552 ) ) ;
#245 = ORIENTED_EDGE ( 'NONE', *, *, #1225, .T. ) ;
#246 = LINE ( 'NONE', #255, #888 ) ;
#247 = EDGE_CURVE ( 'NONE', #375, #89, #850, .T. ) ;
#248 = VERTEX_POINT ( 'NONE', #99 ) ;
#249 = FACE_OUTER_BOUND ( 'NONE', #926, .T. ) ;
#250 = ORIENTED_EDGE ( 'NONE', *, *, #96, .T. ) ;
#251 = LINE ( 'NONE', #642, #1220 ) ;
#252 = CARTESIAN_POINT ( 'NONE',  ( -3.000000000000000000, 50.00000000000000000, -2.999999999999987566 ) ) ;
#253 = VERTEX_POINT ( 'NONE', #212 ) ;
#254 = CIRCLE ( 'NONE', #499, 1.650000000000000133 ) ;
#255 = CARTESIAN_POINT ( 'NONE',  ( -3.000000000000000000, 16.27882059609969900, -12.00000000000000000 ) ) ;
#256 = VERTEX_POINT ( 'NONE', #492 ) ;
#257 = DIRECTION ( 'NONE',  ( 0.000000000000000000, 0.000000000000000000, -1.000000000000000000 ) ) ;
#258 = DIRECTION ( 'NONE',  ( -1.000000000000000000, -0.000000000000000000, -0.000000000000000000 ) ) ;
#259 = DIRECTION ( 'NONE',  ( 1.000000000000000000, 0.000000000000000000, -0.000000000000000000 ) ) ;
#260 = EDGE_LOOP ( 'NONE', ( #94, #1205, #744, #455 ) ) ;
#261 = VERTEX_POINT ( 'NONE', #1086 ) ;
#262 = CARTESIAN_POINT ( 'NONE',  ( 3.000000000000000000, 16.27882059609969900, -12.00000000000000000 ) ) ;
#263 = LINE ( 'NONE', #657, #605 ) ;
#264 = DIRECTION ( 'NONE',  ( 0.000000000000000000, 0.000000000000000000, 1.000000000000000000 ) ) ;
#265 = ORIENTED_EDGE ( 'NONE', *, *, #1154, .T. ) ;
#266 = DIRECTION ( 'NONE',  ( 0.000000000000000000, 1.000000000000000000, 0.000000000000000000 ) ) ;
#267 = EDGE_LOOP ( 'NONE', ( #434, #518, #1136, #1115, #373, #756, #140, #503 ) ) ;
#268 = DIRECTION ( 'NONE',  ( 1.000000000000000000, 0.000000000000000000, 0.000000000000000000 ) ) ;
#269 = EDGE_LOOP ( 'NONE', ( #80, #764 ) ) ;
#270 = EDGE_CURVE ( 'NONE', #600, #978, #19, .T. ) ;
#271 = ADVANCED_FACE ( 'NONE', ( #803 ), #391, .F. ) ;
#272 = ORIENTED_EDGE ( 'NONE', *, *, #573, .T. ) ;
#273 = VERTEX_POINT ( 'NONE', #1261 ) ;
#274 = AXIS2_PLACEMENT_3D ( 'NONE', #240, #845, #68 ) ;
#275 = CARTESIAN_POINT ( 'NONE',  ( 3.000000000000000000, 50.00000000000000000, 3.000000000000011990 ) ) ;
#276 = ORIENTED_EDGE ( 'NONE', *, *, #760, .T. ) ;
#277 = DIRECTION ( 'NONE',  ( -1.000000000000000000, -0.000000000000000000, -0.000000000000000000 ) ) ;
#278 = CARTESIAN_POINT ( 'NONE',  ( 3.000000000000000000, 16.27882059609969900, -12.00000000000000000 ) ) ;
#279 = AXIS2_PLACEMENT_3D ( 'NONE', #612, #1025, #237 ) ;
#280 = DIRECTION ( 'NONE',  ( -1.000000000000000000, -0.000000000000000000, -0.000000000000000000 ) ) ;
#281 = ORIENTED_EDGE ( 'NONE', *, *, #1091, .F. ) ;
#282 = AXIS2_PLACEMENT_3D ( 'NONE', #1152, #171, #365 ) ;
#283 = LINE ( 'NONE', #935, #524 ) ;
#284 = EDGE_CURVE ( 'NONE', #738, #509, #750, .T. ) ;
#285 = CARTESIAN_POINT ( 'NONE',  ( -3.000000000000000000, 16.27882059609969900, 24.00000000000000000 ) ) ;
#286 = DIRECTION ( 'NONE',  ( 1.000000000000000000, 0.000000000000000000, 0.000000000000000000 ) ) ;
#287 = CIRCLE ( 'NONE', #1070, 2.649999999999999911 ) ;
#288 = ORIENTED_EDGE ( 'NONE', *, *, #284, .F. ) ;
#289 = CARTESIAN_POINT ( 'NONE',  ( -3.000000000000000000, 110.0000000000000000, -3.000000000000002665 ) ) ;
#290 = AXIS2_PLACEMENT_3D ( 'NONE', #285, #577, #1157 ) ;
#291 = CARTESIAN_POINT ( 'NONE',  ( -3.000000000000000000, 50.00000000000000000, 3.000000000000011990 ) ) ;
#292 = EDGE_CURVE ( 'NONE', #1250, #339, #621, .T. ) ;
#293 = DIRECTION ( 'NONE',  ( -1.000000000000000000, 0.000000000000000000, 0.000000000000000000 ) ) ;
#294 = DIRECTION ( 'NONE',  ( 1.000000000000000000, 0.000000000000000000, -0.000000000000000000 ) ) ;
#295 = VECTOR ( 'NONE', #790, 1000.000000000000000 ) ;
#296 = ORIENTED_EDGE ( 'NONE', *, *, #222, .F. ) ;
#297 = CYLINDRICAL_SURFACE ( 'NONE', #1003, 3.000000000000000000 ) ;
#298 = CARTESIAN_POINT ( 'NONE',  ( 3.000000000000000000, -8.750000000000000000, 0.000000000000000000 ) ) ;
#299 = CARTESIAN_POINT ( 'NONE',  ( 3.000000000000000000, 0.000000000000000000, -2.999999999999987566 ) ) ;
#300 = CARTESIAN_POINT ( 'NONE',  ( 2.999999986629780402, 4.375000183186450009, 10.57772226974359953 ) ) ;
#301 = AXIS2_PLACEMENT_3D ( 'NONE', #125, #1224, #1009 ) ;
#302 = EDGE_CURVE ( 'NONE', #357, #823, #663, .T. ) ;
#303 = ORIENTED_EDGE ( 'NONE', *, *, #706, .T. ) ;
#304 = CARTESIAN_POINT ( 'NONE',  ( 3.000000000000000000, 160.0000000000000000, 0.000000000000000000 ) ) ;
#305 = ADVANCED_FACE ( 'NONE', ( #603 ), #990, .T. ) ;
#306 = CONICAL_SURFACE ( 'NONE', #123, 1.415941433679299921, 0.7853981633974490562 ) ;
#307 = LINE ( 'NONE', #1097, #399 ) ;
#308 = CARTESIAN_POINT ( 'NONE',  ( 3.000000000000000000, 160.0000000000000000, 0.000000000000000000 ) ) ;
#309 = DIRECTION ( 'NONE',  ( 0.000000000000000000, 0.000000000000000000, 1.000000000000000000 ) ) ;
#310 = ORIENTED_EDGE ( 'NONE', *, *, #22, .T. ) ;
#311 = CARTESIAN_POINT ( 'NONE',  ( 12.99999999999999822, 90.00000000000000000, -2.999999999999987566 ) ) ;
#312 = EDGE_CURVE ( 'NONE', #629, #1035, #1168, .T. ) ;
#313 = FACE_BOUND ( 'NONE', #269, .T. ) ;
#314 = DIRECTION ( 'NONE',  ( 1.000000000000000000, 0.000000000000000000, -0.000000000000000000 ) ) ;
#315 = CIRCLE ( 'NONE', #1210, 1.650000000000000355 ) ;
#316 = CARTESIAN_POINT ( 'NONE',  ( 3.000000000000000000, 4.375000000000000000, -7.577722283113839552 ) ) ;
#317 = EDGE_CURVE ( 'NONE', #1211, #1221, #331, .T. ) ;
#318 =( LENGTH_UNIT ( ) NAMED_UNIT ( * ) SI_UNIT ( .MILLI., .METRE. ) );
#319 = DIRECTION ( 'NONE',  ( -1.000000000000000000, 0.000000000000000000, 0.000000000000000000 ) ) ;
#320 = DIRECTION ( 'NONE',  ( 0.000000000000000000, 0.5613386412448176932, 0.8275862068965516016 ) ) ;
#321 = AXIS2_PLACEMENT_3D ( 'NONE', #522, #809, #717 ) ;
#322 = VERTEX_POINT ( 'NONE', #508 ) ;
#323 = EDGE_CURVE ( 'NONE', #158, #978, #994, .T. ) ;
#324 = EDGE_CURVE ( 'NONE', #347, #357, #701, .T. ) ;
#325 = DIRECTION ( 'NONE',  ( 1.000000000000000000, 0.000000000000000000, 0.000000000000000000 ) ) ;
#326 = LINE ( 'NONE', #712, #794 ) ;
#327 =( NAMED_UNIT ( * ) PLANE_ANGLE_UNIT ( ) SI_UNIT ( $, .RADIAN. ) );
#328 = VERTEX_POINT ( 'NONE', #897 ) ;
#329 = CYLINDRICAL_SURFACE ( 'NONE', #23, 12.00000000000000000 ) ;
#330 = VERTEX_POINT ( 'NONE', #791 ) ;
#331 = CIRCLE ( 'NONE', #949, 6.649999999999996803 ) ;
#332 = DIRECTION ( 'NONE',  ( 1.000000000000000000, 0.000000000000000000, 0.000000000000000000 ) ) ;
#333 = PRODUCT_DEFINITION_FORMATION_WITH_SPECIFIED_SOURCE ( 'ä»', '', #846, .NOT_KNOWN. ) ;
#334 = VERTEX_POINT ( 'NONE', #189 ) ;
#335 = CIRCLE ( 'NONE', #502, 17.00000000000001066 ) ;
#336 = CARTESIAN_POINT ( 'NONE',  ( 2.999999999999999112, 30.00000000000000000, 1.604619215278546562E-14 ) ) ;
#337 = ORIENTED_EDGE ( 'NONE', *, *, #997, .T. ) ;
#338 = CARTESIAN_POINT ( 'NONE',  ( 12.99999999999999822, 90.00000000000000000, 3.000000000000011990 ) ) ;
#339 = VERTEX_POINT ( 'NONE', #1087 ) ;
#340 = FACE_OUTER_BOUND ( 'NONE', #533, .T. ) ;
#341 = EDGE_CURVE ( 'NONE', #843, #368, #207, .T. ) ;
#342 = VECTOR ( 'NONE', #685, 1000.000000000000000 ) ;
#343 = ORIENTED_EDGE ( 'NONE', *, *, #478, .F. ) ;
#344 = CARTESIAN_POINT ( 'NONE',  ( -3.000000000000000000, 30.00000000000000355, 3.000000000000011990 ) ) ;
#345 = ORIENTED_EDGE ( 'NONE', *, *, #382, .T. ) ;
#346 = CARTESIAN_POINT ( 'NONE',  ( 2.999999999999999112, 69.99999999999998579, -2.999999999999987566 ) ) ;
#347 = VERTEX_POINT ( 'NONE', #870 ) ;
#348 = FACE_BOUND ( 'NONE', #948, .T. ) ;
#349 = ORIENTED_EDGE ( 'NONE', *, *, #1265, .T. ) ;
#350 = DIRECTION ( 'NONE',  ( 1.000000000000000000, 0.000000000000000000, -0.000000000000000000 ) ) ;
#351 = VECTOR ( 'NONE', #615, 1000.000000000000000 ) ;
#352 = ORIENTED_EDGE ( 'NONE', *, *, #706, .F. ) ;
#353 = DIRECTION ( 'NONE',  ( 0.000000000000000000, 1.000000000000000000, 0.000000000000000000 ) ) ;
#354 = CARTESIAN_POINT ( 'NONE',  ( 1.649999999999999911, -8.750000100752551191, -1.650000000000001910 ) ) ;
#355 = PLANE ( 'NONE',  #472 ) ;
#356 = ORIENTED_EDGE ( 'NONE', *, *, #1198, .T. ) ;
#357 = VERTEX_POINT ( 'NONE', #674 ) ;
#358 = VECTOR ( 'NONE', #902, 1000.000000000000000 ) ;
#359 = CARTESIAN_POINT ( 'NONE',  ( -3.000000000000000000, 4.375000000000000000, 9.227722283113839907 ) ) ;
#360 = AXIS2_PLACEMENT_3D ( 'NONE', #43, #1145, #726 ) ;
#361 = EDGE_CURVE ( 'NONE', #817, #738, #6, .T. ) ;
#362 = VERTEX_POINT ( 'NONE', #194 ) ;
#363 = EDGE_CURVE ( 'NONE', #481, #239, #618, .T. ) ;
#364 = CARTESIAN_POINT ( 'NONE',  ( 3.000000000000000000, -8.750000000000000000, 0.000000000000000000 ) ) ;
#365 = DIRECTION ( 'NONE',  ( 0.000000000000000000, 0.000000000000000000, 1.000000000000000000 ) ) ;
#366 = EDGE_LOOP ( 'NONE', ( #101, #531, #641, #337 ) ) ;
#367 = FACE_OUTER_BOUND ( 'NONE', #462, .T. ) ;
#368 = VERTEX_POINT ( 'NONE', #580 ) ;
#369 = ADVANCED_FACE ( 'NONE', ( #687 ), #563, .F. ) ;
#370 = DIRECTION ( 'NONE',  ( 0.000000000000000000, -1.000000000000000000, 0.000000000000000000 ) ) ;
#371 = CIRCLE ( 'NONE', #658, 12.00000000000000000 ) ;
#372 = UNCERTAINTY_MEASURE_WITH_UNIT (LENGTH_MEASURE( 1.000000000000000082E-05 ), #318, 'distance_accuracy_value', 'NONE');
#373 = ORIENTED_EDGE ( 'NONE', *, *, #103, .F. ) ;
#374 = ORIENTED_EDGE ( 'NONE', *, *, #424, .F. ) ;
#375 = VERTEX_POINT ( 'NONE', #681 ) ;
#376 = LINE ( 'NONE', #562, #243 ) ;
#377 = ORIENTED_EDGE ( 'NONE', *, *, #247, .T. ) ;
#378 = ORIENTED_EDGE ( 'NONE', *, *, #927, .F. ) ;
#379 = DIRECTION ( 'NONE',  ( 0.000000000000000000, 0.000000000000000000, -1.000000000000000000 ) ) ;
#380 = CARTESIAN_POINT ( 'NONE',  ( 1.650000000000000355, 4.375000000000000000, 7.577722283113839552 ) ) ;
#381 = EDGE_LOOP ( 'NONE', ( #752, #798, #1095, #661 ) ) ;
#382 = EDGE_CURVE ( 'NONE', #1110, #375, #1068, .T. ) ;
#383 = EDGE_CURVE ( 'NONE', #1247, #248, #718, .T. ) ;
#384 = LINE ( 'NONE', #483, #849 ) ;
#385 = AXIS2_PLACEMENT_3D ( 'NONE', #979, #203, #607 ) ;
#386 = DIRECTION ( 'NONE',  ( 0.000000000000000000, 0.000000000000000000, -1.000000000000000000 ) ) ;
#387 = CARTESIAN_POINT ( 'NONE',  ( 2.999999999999999112, 50.00000000000000000, -2.999999999999987566 ) ) ;
#388 = ORIENTED_EDGE ( 'NONE', *, *, #317, .T. ) ;
#389 = LINE ( 'NONE', #311, #50 ) ;
#390 = DIRECTION ( 'NONE',  ( 1.000000000000000000, 0.000000000000000000, 0.000000000000000000 ) ) ;
#391 = CYLINDRICAL_SURFACE ( 'NONE', #28, 6.649999999999996803 ) ;
#392 = CARTESIAN_POINT ( 'NONE',  ( -3.000000000000000000, 50.00000000000000000, 1.237225175534340487E-14 ) ) ;
#393 = AXIS2_PLACEMENT_3D ( 'NONE', #519, #325, #1016 ) ;
#394 = VERTEX_POINT ( 'NONE', #387 ) ;
#395 = LINE ( 'NONE', #594, #445 ) ;
#396 = VECTOR ( 'NONE', #100, 1000.000000000000000 ) ;
#397 = EDGE_CURVE ( 'NONE', #253, #763, #174, .T. ) ;
#398 = LINE ( 'NONE', #967, #27 ) ;
#399 = VECTOR ( 'NONE', #889, 1000.000000000000000 ) ;
#400 = EDGE_CURVE ( 'NONE', #660, #158, #599, .T. ) ;
#401 = CARTESIAN_POINT ( 'NONE',  ( 1.415941433679299921, 4.375000000000000000, -7.577722283113839552 ) ) ;
#402 = CARTESIAN_POINT ( 'NONE',  ( -3.000000000000000000, 160.0000000000000000, -12.00000000000000000 ) ) ;
#403 = ORIENTED_EDGE ( 'NONE', *, *, #835, .T. ) ;
#404 = DIRECTION ( 'NONE',  ( -0.7071067811865473507, 4.317745857731612089E-08, 0.7071067811865463515 ) ) ;
#405 = CARTESIAN_POINT ( 'NONE',  ( 1.650000000000000355, 4.374999899247450585, -9.227722283113823920 ) ) ;
#406 = CARTESIAN_POINT ( 'NONE',  ( -3.000000000000000000, 0.000000000000000000, 0.000000000000000000 ) ) ;
#407 = DIRECTION ( 'NONE',  ( 1.000000000000000000, 0.000000000000000000, 0.000000000000000000 ) ) ;
#408 = AXIS2_PLACEMENT_3D ( 'NONE', #30, #1207, #1103 ) ;
#409 = ADVANCED_FACE ( 'NONE', ( #878 ), #695, .T. ) ;
#410 = EDGE_LOOP ( 'NONE', ( #646, #65, #356, #443 ) ) ;
#411 = CARTESIAN_POINT ( 'NONE',  ( 2.999999995394410313, 4.375000055142679756, -4.577722287719430128 ) ) ;
#412 = VECTOR ( 'NONE', #1099, 1000.000000000000000 ) ;
#413 = CARTESIAN_POINT ( 'NONE',  ( 12.99999999999999822, 90.00000000000000000, 1.237225175534340802E-14 ) ) ;
#414 = CARTESIAN_POINT ( 'NONE',  ( -3.000000000000000000, 160.0000000000000000, 0.000000000000000000 ) ) ;
#415 = CARTESIAN_POINT ( 'NONE',  ( -3.000000000000000000, 0.000000000000000000, 0.000000000000000000 ) ) ;
#416 = CIRCLE ( 'NONE', #190, 3.000000000000000000 ) ;
#417 = DIRECTION ( 'NONE',  ( 0.000000000000000000, 0.000000000000000000, -1.000000000000000000 ) ) ;
#418 = ADVANCED_FACE ( 'NONE', ( #991 ), #977, .F. ) ;
#419 = APPLICATION_PROTOCOL_DEFINITION ( 'draft international standard', 'automotive_design', 1998, #785 ) ;
#420 = CARTESIAN_POINT ( 'NONE',  ( -3.000000000000000000, 130.0000000000000000, -2.555011131713901953E-15 ) ) ;
#421 = CIRCLE ( 'NONE', #1107, 2.649999999999999911 ) ;
#422 = VECTOR ( 'NONE', #11, 1000.000000000000000 ) ;
#423 = CYLINDRICAL_SURFACE ( 'NONE', #321, 2.649999999999999911 ) ;
#424 = EDGE_CURVE ( 'NONE', #1063, #751, #965, .T. ) ;
#425 = LINE ( 'NONE', #808, #351 ) ;
#426 = DIRECTION ( 'NONE',  ( 0.000000000000000000, 0.000000000000000000, -1.000000000000000000 ) ) ;
#427 = DIRECTION ( 'NONE',  ( 0.000000000000000000, 1.000000000000000000, 0.000000000000000000 ) ) ;
#428 = AXIS2_PLACEMENT_3D ( 'NONE', #830, #257, #353 ) ;
#429 = ORIENTED_EDGE ( 'NONE', *, *, #324, .F. ) ;
#430 = CARTESIAN_POINT ( 'NONE',  ( 3.000000000000000000, 130.0000000000000000, 2.999999999999997335 ) ) ;
#431 = EDGE_LOOP ( 'NONE', ( #639, #593 ) ) ;
#432 = PLANE ( 'NONE',  #161 ) ;
#433 = ORIENTED_EDGE ( 'NONE', *, *, #1238, .F. ) ;
#434 = ORIENTED_EDGE ( 'NONE', *, *, #179, .F. ) ;
#435 = ORIENTED_EDGE ( 'NONE', *, *, #1206, .T. ) ;
#436 = ADVANCED_FACE ( 'NONE', ( #783 ), #883, .T. ) ;
#437 = CARTESIAN_POINT ( 'NONE',  ( 2.999999999999999112, 129.9999999999999716, -3.000000000000002665 ) ) ;
#438 = ORIENTED_EDGE ( 'NONE', *, *, #222, .T. ) ;
#439 = CONICAL_SURFACE ( 'NONE', #995, 1.415941433679299477, 0.7853981633974490562 ) ;
#440 = FACE_OUTER_BOUND ( 'NONE', #1015, .T. ) ;
#441 = ORIENTED_EDGE ( 'NONE', *, *, #363, .F. ) ;
#442 = CARTESIAN_POINT ( 'NONE',  ( 2.999999999999999112, 130.0000000000000000, -2.555011131713901953E-15 ) ) ;
#443 = ORIENTED_EDGE ( 'NONE', *, *, #1167, .F. ) ;
#444 = DIRECTION ( 'NONE',  ( 1.000000000000000000, 0.000000000000000000, 0.000000000000000000 ) ) ;
#445 = VECTOR ( 'NONE', #404, 1000.000000000000114 ) ;
#446 = ORIENTED_EDGE ( 'NONE', *, *, #558, .T. ) ;
#447 = CARTESIAN_POINT ( 'NONE',  ( -3.000000000000000000, -8.750000000000000000, 0.000000000000000000 ) ) ;
#448 = EDGE_LOOP ( 'NONE', ( #148, #1234, #159, #487 ) ) ;
#449 = CARTESIAN_POINT ( 'NONE',  ( 12.99999999999999822, 129.9999999999999716, -3.000000000000002665 ) ) ;
#450 = ORIENTED_EDGE ( 'NONE', *, *, #1101, .T. ) ;
#451 = DIRECTION ( 'NONE',  ( -1.000000000000000000, -0.000000000000000000, -0.000000000000000000 ) ) ;
#452 = CARTESIAN_POINT ( 'NONE',  ( 12.99999999999999822, 69.99999999999998579, 3.000000000000011990 ) ) ;
#453 = ADVANCED_FACE ( 'NONE', ( #816 ), #633, .T. ) ;
#454 = ORIENTED_EDGE ( 'NONE', *, *, #516, .T. ) ;
#455 = ORIENTED_EDGE ( 'NONE', *, *, #724, .F. ) ;
#456 = FACE_OUTER_BOUND ( 'NONE', #1080, .T. ) ;
#457 = AXIS2_PLACEMENT_3D ( 'NONE', #223, #804, #314 ) ;
#458 = ORIENTED_EDGE ( 'NONE', *, *, #1194, .T. ) ;
#459 =( NAMED_UNIT ( * ) SI_UNIT ( $, .STERADIAN. ) SOLID_ANGLE_UNIT ( ) );
#460 = DIRECTION ( 'NONE',  ( 0.000000000000000000, 0.000000000000000000, 1.000000000000000000 ) ) ;
#461 = ORIENTED_EDGE ( 'NONE', *, *, #196, .F. ) ;
#462 = EDGE_LOOP ( 'NONE', ( #438, #435, #879, #564 ) ) ;
#463 = DIRECTION ( 'NONE',  ( 0.000000000000000000, 0.5613386412448176932, 0.8275862068965516016 ) ) ;
#464 = VECTOR ( 'NONE', #877, 1000.000000000000114 ) ;
#465 = EDGE_CURVE ( 'NONE', #1221, #253, #124, .T. ) ;
#466 = DIRECTION ( 'NONE',  ( 0.000000000000000000, -1.000000000000000000, 0.000000000000000000 ) ) ;
#467 = DIRECTION ( 'NONE',  ( -1.000000000000000000, -0.000000000000000000, -0.000000000000000000 ) ) ;
#468 = ORIENTED_EDGE ( 'NONE', *, *, #1238, .T. ) ;
#469 = CIRCLE ( 'NONE', #692, 3.000000000000000000 ) ;
#470 = ORIENTED_EDGE ( 'NONE', *, *, #835, .F. ) ;
#471 = CYLINDRICAL_SURFACE ( 'NONE', #1065, 3.000000000000000000 ) ;
#472 = AXIS2_PLACEMENT_3D ( 'NONE', #748, #82, #1134 ) ;
#473 = ORIENTED_EDGE ( 'NONE', *, *, #678, .T. ) ;
#474 = ORIENTED_EDGE ( 'NONE', *, *, #638, .T. ) ;
#475 = ORIENTED_EDGE ( 'NONE', *, *, #397, .F. ) ;
#476 = LINE ( 'NONE', #1133, #1055 ) ;
#477 = CARTESIAN_POINT ( 'NONE',  ( -3.000000000000000000, 4.375000000000000000, -7.577722283113839552 ) ) ;
#478 = EDGE_CURVE ( 'NONE', #1211, #763, #1204, .T. ) ;
#479 = DIRECTION ( 'NONE',  ( 1.000000000000000000, 0.000000000000000000, 0.000000000000000000 ) ) ;
#480 = DIRECTION ( 'NONE',  ( 0.000000000000000000, 0.000000000000000000, -1.000000000000000000 ) ) ;
#481 = VERTEX_POINT ( 'NONE', #218 ) ;
#482 = DIRECTION ( 'NONE',  ( -1.000000000000000000, -0.000000000000000000, -0.000000000000000000 ) ) ;
#483 = CARTESIAN_POINT ( 'NONE',  ( -3.000000000000000000, 110.0000000000000000, 2.999999999999997335 ) ) ;
#484 = AXIS2_PLACEMENT_3D ( 'NONE', #142, #26, #426 ) ;
#485 = DIRECTION ( 'NONE',  ( 0.000000000000000000, -0.5613386412448169160, 0.8275862068965521567 ) ) ;
#486 = DIRECTION ( 'NONE',  ( -1.000000000000000000, -0.000000000000000000, -0.000000000000000000 ) ) ;
#487 = ORIENTED_EDGE ( 'NONE', *, *, #516, .F. ) ;
#488 = DIRECTION ( 'NONE',  ( 0.000000000000000000, 0.000000000000000000, 1.000000000000000000 ) ) ;
#489 = ADVANCED_FACE ( 'NONE', ( #1109 ), #1195, .T. ) ;
#490 = ADVANCED_FACE ( 'NONE', ( #619 ), #329, .F. ) ;
#491 = CARTESIAN_POINT ( 'NONE',  ( 1.650000000000000355, 4.375000000000000000, -7.577722283113839552 ) ) ;
#492 = CARTESIAN_POINT ( 'NONE',  ( 2.999999995394410313, -8.750000055142679756, -2.999999995394410313 ) ) ;
#493 = DIRECTION ( 'NONE',  ( -1.000000000000000000, 0.000000000000000000, 0.000000000000000000 ) ) ;
#494 = ORIENTED_EDGE ( 'NONE', *, *, #498, .T. ) ;
#495 = DIRECTION ( 'NONE',  ( -1.000000000000000000, 0.000000000000000000, 0.000000000000000000 ) ) ;
#496 = AXIS2_PLACEMENT_3D ( 'NONE', #86, #493, #1269 ) ;
#497 = DIRECTION ( 'NONE',  ( -1.000000000000000000, -0.000000000000000000, -0.000000000000000000 ) ) ;
#498 = EDGE_CURVE ( 'NONE', #261, #696, #416, .T. ) ;
#499 = AXIS2_PLACEMENT_3D ( 'NONE', #679, #547, #1066 ) ;
#500 = DIRECTION ( 'NONE',  ( -1.000000000000000000, 0.000000000000000000, 0.000000000000000000 ) ) ;
#501 = DIRECTION ( 'NONE',  ( 0.000000000000000000, 0.000000000000000000, -1.000000000000000000 ) ) ;
#502 = AXIS2_PLACEMENT_3D ( 'NONE', #144, #151, #463 ) ;
#503 = ORIENTED_EDGE ( 'NONE', *, *, #38, .F. ) ;
#504 = DIRECTION ( 'NONE',  ( 0.000000000000000000, -1.000000000000000000, 0.000000000000000000 ) ) ;
#505 = DIRECTION ( 'NONE',  ( 1.000000000000000000, 0.000000000000000000, 0.000000000000000000 ) ) ;
#506 = DIRECTION ( 'NONE',  ( 0.000000000000000000, 0.000000000000000000, 1.000000000000000000 ) ) ;
#507 = DIRECTION ( 'NONE',  ( 0.000000000000000000, 0.000000000000000000, -1.000000000000000000 ) ) ;
#508 = CARTESIAN_POINT ( 'NONE',  ( 3.000000000000000000, 9.542756901161899563, 14.06896551724140032 ) ) ;
#509 = VERTEX_POINT ( 'NONE', #538 ) ;
#510 = DIRECTION ( 'NONE',  ( 0.000000000000000000, 0.000000000000000000, 1.000000000000000000 ) ) ;
#511 = VECTOR ( 'NONE', #370, 1000.000000000000000 ) ;
#512 = CARTESIAN_POINT ( 'NONE',  ( 3.000000000000000000, 16.27882059609969900, 12.00000000000000000 ) ) ;
#513 = CARTESIAN_POINT ( 'NONE',  ( 3.000000000000000000, 0.000000000000000000, -17.00000000000000000 ) ) ;
#514 = AXIS2_PLACEMENT_3D ( 'NONE', #822, #919, #235 ) ;
#515 = DIRECTION ( 'NONE',  ( -1.000000000000000000, 0.000000000000000000, 0.000000000000000000 ) ) ;
#516 = EDGE_CURVE ( 'NONE', #843, #328, #1005, .T. ) ;
#517 = DIRECTION ( 'NONE',  ( 1.000000000000000000, 0.000000000000000000, 0.000000000000000000 ) ) ;
#518 = ORIENTED_EDGE ( 'NONE', *, *, #1266, .F. ) ;
#519 = CARTESIAN_POINT ( 'NONE',  ( -3.000000000000000000, 0.000000000000000000, 0.000000000000000000 ) ) ;
#520 = AXIS2_PLACEMENT_3D ( 'NONE', #775, #390, #379 ) ;
#521 = CONICAL_SURFACE ( 'NONE', #974, 1.415941433679299477, 0.7853981633974490562 ) ;
#522 = CARTESIAN_POINT ( 'NONE',  ( 7.000000000000000000, 0.000000000000000000, 0.000000000000000000 ) ) ;
#523 = EDGE_CURVE ( 'NONE', #672, #328, #425, .T. ) ;
#524 = VECTOR ( 'NONE', #451, 1000.000000000000000 ) ;
#525 =( LENGTH_UNIT ( ) NAMED_UNIT ( * ) SI_UNIT ( .MILLI., .METRE. ) );
#526 = AXIS2_PLACEMENT_3D ( 'NONE', #697, #209, #119 ) ;
#527 = FACE_BOUND ( 'NONE', #541, .T. ) ;
#528 = VERTEX_POINT ( 'NONE', #430 ) ;
#529 = CIRCLE ( 'NONE', #1251, 17.00000000000001066 ) ;
#530 = ADVANCED_FACE ( 'NONE', ( #1098 ), #20, .F. ) ;
#531 = ORIENTED_EDGE ( 'NONE', *, *, #323, .F. ) ;
#532 = SURFACE_SIDE_STYLE ('',( #127 ) ) ;
#533 = EDGE_LOOP ( 'NONE', ( #1229, #664, #494, #242 ) ) ;
#534 = FACE_BOUND ( 'NONE', #702, .T. ) ;
#535 = ORIENTED_EDGE ( 'NONE', *, *, #824, .T. ) ;
#536 = FACE_OUTER_BOUND ( 'NONE', #958, .T. ) ;
#537 = ORIENTED_EDGE ( 'NONE', *, *, #1217, .F. ) ;
#538 = CARTESIAN_POINT ( 'NONE',  ( -3.000000000000000000, 30.00000000000000355, 3.000000000000011990 ) ) ;
#539 = VERTEX_POINT ( 'NONE', #513 ) ;
#540 = CARTESIAN_POINT ( 'NONE',  ( 2.999999995394410313, -8.749999944857318468, 2.999999995394410313 ) ) ;
#541 = EDGE_LOOP ( 'NONE', ( #245, #474 ) ) ;
#542 = CYLINDRICAL_SURFACE ( 'NONE', #704, 1.650000000000000355 ) ;
#543 = ORIENTED_EDGE ( 'NONE', *, *, #969, .T. ) ;
#544 = LINE ( 'NONE', #449, #915 ) ;
#545 = ORIENTED_EDGE ( 'NONE', *, *, #1255, .T. ) ;
#546 = EDGE_CURVE ( 'NONE', #1047, #509, #626, .T. ) ;
#547 = DIRECTION ( 'NONE',  ( -1.000000000000000000, -0.000000000000000000, -0.000000000000000000 ) ) ;
#548 = DIRECTION ( 'NONE',  ( 0.000000000000000000, 1.000000000000000000, 0.000000000000000000 ) ) ;
#549 = ORIENTED_EDGE ( 'NONE', *, *, #988, .F. ) ;
#550 = CIRCLE ( 'NONE', #526, 17.00000000000001066 ) ;
#551 = ORIENTED_EDGE ( 'NONE', *, *, #980, .F. ) ;
#552 = DIRECTION ( 'NONE',  ( -1.000000000000000000, -0.000000000000000000, -0.000000000000000000 ) ) ;
#553 = CARTESIAN_POINT ( 'NONE',  ( 2.999999986629780402, 4.374999816813549991, -10.57772226974359953 ) ) ;
#554 = CARTESIAN_POINT ( 'NONE',  ( 1.415941433679299921, -8.750000000000000000, 0.000000000000000000 ) ) ;
#555 = DIRECTION ( 'NONE',  ( 1.000000000000000000, 0.000000000000000000, 0.000000000000000000 ) ) ;
#556 = DIRECTION ( 'NONE',  ( 0.000000000000000000, 0.000000000000000000, 1.000000000000000000 ) ) ;
#557 = ORIENTED_EDGE ( 'NONE', *, *, #970, .F. ) ;
#558 = EDGE_CURVE ( 'NONE', #863, #339, #904, .T. ) ;
#559 = ORIENTED_EDGE ( 'NONE', *, *, #1266, .T. ) ;
#560 = DIRECTION ( 'NONE',  ( 1.000000000000000000, 0.000000000000000000, 0.000000000000000000 ) ) ;
#561 = ORIENTED_EDGE ( 'NONE', *, *, #624, .F. ) ;
#562 = CARTESIAN_POINT ( 'NONE',  ( 7.000000000000000000, 4.375000000000000000, 9.227722283113839907 ) ) ;
#563 = CONICAL_SURFACE ( 'NONE', #4, 1.415941433679299477, 0.7853981633974490562 ) ;
#564 = ORIENTED_EDGE ( 'NONE', *, *, #760, .F. ) ;
#565 = VECTOR ( 'NONE', #84, 1000.000000000000000 ) ;
#566 = CIRCLE ( 'NONE', #1174, 1.650000000000000133 ) ;
#567 = ORIENTED_EDGE ( 'NONE', *, *, #88, .T. ) ;
#568 = DIRECTION ( 'NONE',  ( -1.000000000000000000, -0.000000000000000000, -0.000000000000000000 ) ) ;
#569 = ORIENTED_EDGE ( 'NONE', *, *, #284, .T. ) ;
#570 = CIRCLE ( 'NONE', #75, 1.650000000000000355 ) ;
#571 = EDGE_LOOP ( 'NONE', ( #276, #725, #197, #1112 ) ) ;
#572 = ORIENTED_EDGE ( 'NONE', *, *, #689, .T. ) ;
#573 = EDGE_CURVE ( 'NONE', #648, #330, #287, .T. ) ;
#574 = FACE_OUTER_BOUND ( 'NONE', #1209, .T. ) ;
#575 = CIRCLE ( 'NONE', #735, 2.999999999999999112 ) ;
#576 = ORIENTED_EDGE ( 'NONE', *, *, #1101, .F. ) ;
#577 = DIRECTION ( 'NONE',  ( 1.000000000000000000, 0.000000000000000000, 0.000000000000000000 ) ) ;
#578 = VECTOR ( 'NONE', #720, 1000.000000000000000 ) ;
#579 = CARTESIAN_POINT ( 'NONE',  ( 1.650000000000000355, 4.375000000000000000, 7.577722283113839552 ) ) ;
#580 = CARTESIAN_POINT ( 'NONE',  ( 2.999999999999999112, 69.99999999999998579, 3.000000000000011990 ) ) ;
#581 = VERTEX_POINT ( 'NONE', #1213 ) ;
#582 = MANIFOLD_SOLID_BREP ( '\X2\52079664\X0\-\X2\62c94f38\X0\2', #70 ) ;
#583 = CIRCLE ( 'NONE', #684, 3.000000000000000000 ) ;
#584 = CARTESIAN_POINT ( 'NONE',  ( -3.000000000000000000, 9.542756901161899563, -14.06896551724140032 ) ) ;
#585 = CARTESIAN_POINT ( 'NONE',  ( -3.000000000000000000, 2.081899558550500280E-15, 17.00000000000000000 ) ) ;
#586 = CARTESIAN_POINT ( 'NONE',  ( 3.000000000000000000, 0.000000000000000000, 0.000000000000000000 ) ) ;
#587 = ADVANCED_FACE ( 'NONE', ( #1230 ), #25, .T. ) ;
#588 = VERTEX_POINT ( 'NONE', #346 ) ;
#589 = DIRECTION ( 'NONE',  ( 1.000000000000000000, 0.000000000000000000, 0.000000000000000000 ) ) ;
#590 = LINE ( 'NONE', #771, #120 ) ;
#591 = DIRECTION ( 'NONE',  ( 1.000000000000000000, 0.000000000000000000, 0.000000000000000000 ) ) ;
#592 = DIRECTION ( 'NONE',  ( -1.000000000000000000, 0.000000000000000000, 0.000000000000000000 ) ) ;
#593 = ORIENTED_EDGE ( 'NONE', *, *, #801, .F. ) ;
#594 = CARTESIAN_POINT ( 'NONE',  ( 2.999999986629780402, -8.750000183186449121, -2.999999986629780402 ) ) ;
#595 = AXIS2_PLACEMENT_3D ( 'NONE', #442, #1131, #61 ) ;
#596 = EDGE_CURVE ( 'NONE', #31, #1110, #371, .T. ) ;
#597 = FACE_OUTER_BOUND ( 'NONE', #267, .T. ) ;
#598 = DIRECTION ( 'NONE',  ( 1.000000000000000000, 0.000000000000000000, 0.000000000000000000 ) ) ;
#599 = LINE ( 'NONE', #300, #820 ) ;
#600 = VERTEX_POINT ( 'NONE', #737 ) ;
#601 = CARTESIAN_POINT ( 'NONE',  ( -3.000000000000000000, 110.0000000000000000, 6.017516462317565123E-15 ) ) ;
#602 = LINE ( 'NONE', #912, #620 ) ;
#603 = FACE_OUTER_BOUND ( 'NONE', #952, .T. ) ;
#604 = DIRECTION ( 'NONE',  ( 0.000000000000000000, 0.000000000000000000, -1.000000000000000000 ) ) ;
#605 = VECTOR ( 'NONE', #466, 1000.000000000000000 ) ;
#606 = ORIENTED_EDGE ( 'NONE', *, *, #969, .F. ) ;
#607 = DIRECTION ( 'NONE',  ( 0.000000000000000000, 0.000000000000000000, 1.000000000000000000 ) ) ;
#608 = DIRECTION ( 'NONE',  ( -1.000000000000000000, -0.000000000000000000, -0.000000000000000000 ) ) ;
#609 = ADVANCED_FACE ( 'NONE', ( #746 ), #141, .F. ) ;
#610 = CARTESIAN_POINT ( 'NONE',  ( -18.03600000000000136, 16.27882059609969900, -24.00000000000000000 ) ) ;
#611 = CIRCLE ( 'NONE', #385, 3.000000000000000000 ) ;
#612 = CARTESIAN_POINT ( 'NONE',  ( 7.000000000000000000, 0.000000000000000000, 0.000000000000000000 ) ) ;
#613 = CARTESIAN_POINT ( 'NONE',  ( 3.000000000000000000, 0.000000000000000000, 0.000000000000000000 ) ) ;
#614 = ORIENTED_EDGE ( 'NONE', *, *, #1090, .F. ) ;
#615 = DIRECTION ( 'NONE',  ( 0.000000000000000000, 1.000000000000000000, 0.000000000000000000 ) ) ;
#616 = AXIS2_PLACEMENT_3D ( 'NONE', #392, #592, #309 ) ;
#617 = FACE_BOUND ( 'NONE', #1162, .T. ) ;
#618 = CIRCLE ( 'NONE', #1106, 2.649999999999999911 ) ;
#619 = FACE_OUTER_BOUND ( 'NONE', #636, .T. ) ;
#620 = VECTOR ( 'NONE', #427, 1000.000000000000000 ) ;
#621 = CIRCLE ( 'NONE', #645, 1.650000000000000355 ) ;
#622 = FACE_BOUND ( 'NONE', #827, .T. ) ;
#623 = VECTOR ( 'NONE', #742, 1000.000000000000000 ) ;
#624 = EDGE_CURVE ( 'NONE', #1028, #528, #982, .T. ) ;
#625 = ORIENTED_EDGE ( 'NONE', *, *, #383, .T. ) ;
#626 = LINE ( 'NONE', #708, #62 ) ;
#627 = ORIENTED_EDGE ( 'NONE', *, *, #179, .T. ) ;
#628 = DIRECTION ( 'NONE',  ( 1.000000000000000000, 0.000000000000000000, 0.000000000000000000 ) ) ;
#629 = VERTEX_POINT ( 'NONE', #941 ) ;
#630 = ADVANCED_FACE ( 'NONE', ( #249 ), #1241, .T. ) ;
#631 = DIRECTION ( 'NONE',  ( -1.000000000000000000, -0.000000000000000000, -0.000000000000000000 ) ) ;
#632 = EDGE_LOOP ( 'NONE', ( #191, #871, #1088, #37 ) ) ;
#633 = CYLINDRICAL_SURFACE ( 'NONE', #393, 17.00000000000000000 ) ;
#634 = ORIENTED_EDGE ( 'NONE', *, *, #762, .F. ) ;
#635 = DIRECTION ( 'NONE',  ( -1.000000000000000000, -0.000000000000000000, -0.000000000000000000 ) ) ;
#636 = EDGE_LOOP ( 'NONE', ( #77, #1108, #854, #250 ) ) ;
#637 = LINE ( 'NONE', #837, #666 ) ;
#638 = EDGE_CURVE ( 'NONE', #256, #985, #34, .T. ) ;
#639 = ORIENTED_EDGE ( 'NONE', *, *, #383, .F. ) ;
#640 = DIRECTION ( 'NONE',  ( -1.000000000000000000, 0.000000000000000000, 0.000000000000000000 ) ) ;
#641 = ORIENTED_EDGE ( 'NONE', *, *, #743, .T. ) ;
#642 = CARTESIAN_POINT ( 'NONE',  ( -3.000000000000000000, 0.000000000000000000, -17.00000000000000000 ) ) ;
#643 = DIRECTION ( 'NONE',  ( -1.000000000000000000, -0.000000000000000000, -0.000000000000000000 ) ) ;
#644 = AXIS2_PLACEMENT_3D ( 'NONE', #579, #975, #1071 ) ;
#645 = AXIS2_PLACEMENT_3D ( 'NONE', #206, #999, #1184 ) ;
#646 = ORIENTED_EDGE ( 'NONE', *, *, #815, .T. ) ;
#647 = PLANE ( 'NONE',  #274 ) ;
#648 = VERTEX_POINT ( 'NONE', #925 ) ;
#649 = DIRECTION ( 'NONE',  ( 0.000000000000000000, 0.000000000000000000, 1.000000000000000000 ) ) ;
#650 = PRODUCT_RELATED_PRODUCT_CATEGORY ( 'part', '', ( #846 ) ) ;
#651 = DIRECTION ( 'NONE',  ( 0.000000000000000000, 0.000000000000000000, 1.000000000000000000 ) ) ;
#652 = FACE_OUTER_BOUND ( 'NONE', #1135, .T. ) ;
#653 = ORIENTED_EDGE ( 'NONE', *, *, #323, .T. ) ;
#654 = CIRCLE ( 'NONE', #484, 3.000000000000000000 ) ;
#655 = EDGE_LOOP ( 'NONE', ( #1202, #454, #792, #847 ) ) ;
#656 = DIRECTION ( 'NONE',  ( 0.000000000000000000, 0.000000000000000000, -1.000000000000000000 ) ) ;
#657 = CARTESIAN_POINT ( 'NONE',  ( -3.000000000000000000, 160.0000000000000000, 12.00000000000000000 ) ) ;
#658 = AXIS2_PLACEMENT_3D ( 'NONE', #163, #1139, #649 ) ;
#659 = FACE_OUTER_BOUND ( 'NONE', #893, .T. ) ;
#660 = VERTEX_POINT ( 'NONE', #1030 ) ;
#661 = ORIENTED_EDGE ( 'NONE', *, *, #1178, .F. ) ;
#662 = CARTESIAN_POINT ( 'NONE',  ( -3.000000000000000000, 129.9999999999999716, -3.000000000000002665 ) ) ;
#663 = CIRCLE ( 'NONE', #886, 12.00000000000000000 ) ;
#664 = ORIENTED_EDGE ( 'NONE', *, *, #1167, .T. ) ;
#665 = CIRCLE ( 'NONE', #1244, 3.000000000000000000 ) ;
#666 = VECTOR ( 'NONE', #631, 1000.000000000000000 ) ;
#667 = ORIENTED_EDGE ( 'NONE', *, *, #546, .T. ) ;
#668 = ORIENTED_EDGE ( 'NONE', *, *, #998, .F. ) ;
#669 = CARTESIAN_POINT ( 'NONE',  ( -3.000000000000000000, 160.0000000000000000, 6.649999999999996803 ) ) ;
#670 = ORIENTED_EDGE ( 'NONE', *, *, #946, .T. ) ;
#671 = VECTOR ( 'NONE', #673, 1000.000000000000000 ) ;
#672 = VERTEX_POINT ( 'NONE', #153 ) ;
#673 = DIRECTION ( 'NONE',  ( 0.000000000000000000, 1.000000000000000000, 0.000000000000000000 ) ) ;
#674 = CARTESIAN_POINT ( 'NONE',  ( 3.000000000000000000, 160.0000000000000000, -12.00000000000000000 ) ) ;
#675 = CIRCLE ( 'NONE', #220, 2.999999999999999112 ) ;
#676 = ORIENTED_EDGE ( 'NONE', *, *, #302, .F. ) ;
#677 = COLOUR_RGB ( '',0.7921568627450980005, 0.8196078431372548767, 0.9333333333333333481 ) ;
#678 = EDGE_CURVE ( 'NONE', #1028, #696, #544, .T. ) ;
#679 = CARTESIAN_POINT ( 'NONE',  ( 1.649999999999999911, -8.750000000000000000, 0.000000000000000000 ) ) ;
#680 = CARTESIAN_POINT ( 'NONE',  ( 2.999999999999999112, 50.00000000000000000, 1.237225175534340487E-14 ) ) ;
#681 = CARTESIAN_POINT ( 'NONE',  ( 3.000000000000000000, 9.542756901161899563, -14.06896551724140032 ) ) ;
#682 = ORIENTED_EDGE ( 'NONE', *, *, #145, .T. ) ;
#683 = CARTESIAN_POINT ( 'NONE',  ( 3.000000000000000000, 4.375000000000000000, 7.577722283113839552 ) ) ;
#684 = AXIS2_PLACEMENT_3D ( 'NONE', #92, #1093, #507 ) ;
#685 = DIRECTION ( 'NONE',  ( 0.000000000000000000, 1.000000000000000000, 0.000000000000000000 ) ) ;
#686 = DIRECTION ( 'NONE',  ( 0.000000000000000000, 0.000000000000000000, -1.000000000000000000 ) ) ;
#687 = FACE_OUTER_BOUND ( 'NONE', #64, .T. ) ;
#688 = EDGE_CURVE ( 'NONE', #1253, #539, #529, .T. ) ;
#689 = EDGE_CURVE ( 'NONE', #539, #375, #1045, .T. ) ;
#690 = ORIENTED_EDGE ( 'NONE', *, *, #39, .F. ) ;
#691 = FACE_OUTER_BOUND ( 'NONE', #851, .T. ) ;
#692 = AXIS2_PLACEMENT_3D ( 'NONE', #219, #1096, #90 ) ;
#693 = DIRECTION ( 'NONE',  ( 0.000000000000000000, 0.000000000000000000, 1.000000000000000000 ) ) ;
#694 = DIRECTION ( 'NONE',  ( 0.000000000000000000, -1.000000000000000000, 0.000000000000000000 ) ) ;
#695 = CYLINDRICAL_SURFACE ( 'NONE', #1164, 12.00000000000000000 ) ;
#696 = VERTEX_POINT ( 'NONE', #662 ) ;
#697 = CARTESIAN_POINT ( 'NONE',  ( -3.000000000000000000, 0.000000000000000000, 0.000000000000000000 ) ) ;
#698 = AXIS2_PLACEMENT_3D ( 'NONE', #1048, #1054, #740 ) ;
#699 = DIRECTION ( 'NONE',  ( -1.000000000000000000, 0.000000000000000000, 0.000000000000000000 ) ) ;
#700 = FACE_OUTER_BOUND ( 'NONE', #1043, .T. ) ;
#701 = LINE ( 'NONE', #402, #106 ) ;
#702 = EDGE_LOOP ( 'NONE', ( #441, #48 ) ) ;
#703 = CARTESIAN_POINT ( 'NONE',  ( 3.000000000000000000, 0.000000000000000000, 2.999999999999997335 ) ) ;
#704 = AXIS2_PLACEMENT_3D ( 'NONE', #1046, #552, #1236 ) ;
#705 = ADVANCED_FACE ( 'NONE', ( #55 ), #1033, .F. ) ;
#706 = EDGE_CURVE ( 'NONE', #368, #588, #876, .T. ) ;
#707 = FACE_BOUND ( 'NONE', #431, .T. ) ;
#708 = CARTESIAN_POINT ( 'NONE',  ( 12.99999999999999822, 30.00000000000000355, 3.000000000000011990 ) ) ;
#709 = DIRECTION ( 'NONE',  ( 1.000000000000000000, 0.000000000000000000, 0.000000000000000000 ) ) ;
#710 = CARTESIAN_POINT ( 'NONE',  ( 2.999999986629790172, 4.375000183186450009, -4.577722296484060038 ) ) ;
#711 = CIRCLE ( 'NONE', #833, 12.00000000000000000 ) ;
#712 = CARTESIAN_POINT ( 'NONE',  ( 12.99999999999999822, 110.0000000000000000, -3.000000000000002665 ) ) ;
#713 =( NAMED_UNIT ( * ) SI_UNIT ( $, .STERADIAN. ) SOLID_ANGLE_UNIT ( ) );
#714 = ORIENTED_EDGE ( 'NONE', *, *, #302, .T. ) ;
#715 = ADVANCED_FACE ( 'NONE', ( #659 ), #867, .F. ) ;
#716 = DIRECTION ( 'NONE',  ( 0.000000000000000000, 0.000000000000000000, 1.000000000000000000 ) ) ;
#717 = DIRECTION ( 'NONE',  ( 0.000000000000000000, 0.000000000000000000, 1.000000000000000000 ) ) ;
#718 = CIRCLE ( 'NONE', #496, 1.650000000000000355 ) ;
#719 = VERTEX_POINT ( 'NONE', #275 ) ;
#720 = DIRECTION ( 'NONE',  ( -1.000000000000000000, -0.000000000000000000, -0.000000000000000000 ) ) ;
#721 = ORIENTED_EDGE ( 'NONE', *, *, #910, .F. ) ;
#722 = CONICAL_SURFACE ( 'NONE', #520, 1.415941433679299477, 0.7853981633974490562 ) ;
#723 = CYLINDRICAL_SURFACE ( 'NONE', #1181, 1.650000000000000355 ) ;
#724 = EDGE_CURVE ( 'NONE', #339, #1247, #76, .T. ) ;
#725 = ORIENTED_EDGE ( 'NONE', *, *, #781, .F. ) ;
#726 = DIRECTION ( 'NONE',  ( 0.000000000000000000, 0.000000000000000000, 1.000000000000000000 ) ) ;
#727 = ORIENTED_EDGE ( 'NONE', *, *, #917, .T. ) ;
#728 =( NAMED_UNIT ( * ) PLANE_ANGLE_UNIT ( ) SI_UNIT ( $, .RADIAN. ) );
#729 = VERTEX_POINT ( 'NONE', #1249 ) ;
#730 = VECTOR ( 'NONE', #482, 1000.000000000000000 ) ;
#731 = CYLINDRICAL_SURFACE ( 'NONE', #15, 3.000000000000000000 ) ;
#732 = ADVANCED_FACE ( 'NONE', ( #1061 ), #63, .F. ) ;
#733 = ORIENTED_EDGE ( 'NONE', *, *, #724, .T. ) ;
#734 = CARTESIAN_POINT ( 'NONE',  ( 2.999999999999999112, 90.00000000000000000, -2.999999999999987566 ) ) ;
#735 = AXIS2_PLACEMENT_3D ( 'NONE', #316, #495, #1187 ) ;
#736 = EDGE_LOOP ( 'NONE', ( #1245, #1218, #1044, #60 ) ) ;
#737 = CARTESIAN_POINT ( 'NONE',  ( 2.999999995394410313, 4.374999944857320244, 4.577722287719430128 ) ) ;
#738 = VERTEX_POINT ( 'NONE', #165 ) ;
#739 = CARTESIAN_POINT ( 'NONE',  ( -3.000000000000000000, 4.375000000000000000, 7.577722283113839552 ) ) ;
#740 = DIRECTION ( 'NONE',  ( 0.000000000000000000, 0.5613386412448176932, 0.8275862068965516016 ) ) ;
#741 = ORIENTED_EDGE ( 'NONE', *, *, #196, .T. ) ;
#742 = DIRECTION ( 'NONE',  ( -1.000000000000000000, -0.000000000000000000, -0.000000000000000000 ) ) ;
#743 = EDGE_CURVE ( 'NONE', #158, #143, #376, .T. ) ;
#744 = ORIENTED_EDGE ( 'NONE', *, *, #801, .T. ) ;
#745 = APPLICATION_CONTEXT ( 'automotive_design' ) ;
#746 = FACE_OUTER_BOUND ( 'NONE', #36, .T. ) ;
#747 = CARTESIAN_POINT ( 'NONE',  ( 12.99999999999999822, 130.0000000000000000, 2.999999999999997335 ) ) ;
#748 = CARTESIAN_POINT ( 'NONE',  ( -3.000000000000000000, 160.0000000000000000, 12.00000000000000000 ) ) ;
#749 = VECTOR ( 'NONE', #555, 1000.000000000000000 ) ;
#750 = CIRCLE ( 'NONE', #195, 3.000000000000000000 ) ;
#751 = VERTEX_POINT ( 'NONE', #252 ) ;
#752 = ORIENTED_EDGE ( 'NONE', *, *, #861, .T. ) ;
#753 = DIRECTION ( 'NONE',  ( 1.000000000000000000, 0.000000000000000000, 0.000000000000000000 ) ) ;
#754 = DIRECTION ( 'NONE',  ( -0.7071067811865477948, 4.317745980395088701E-08, 0.7071067811865459074 ) ) ;
#755 = LINE ( 'NONE', #950, #78 ) ;
#756 = ORIENTED_EDGE ( 'NONE', *, *, #1038, .F. ) ;
#757 = CYLINDRICAL_SURFACE ( 'NONE', #360, 3.000000000000000000 ) ;
#758 = LINE ( 'NONE', #947, #623 ) ;
#759 = AXIS2_PLACEMENT_3D ( 'NONE', #364, #640, #45 ) ;
#760 = EDGE_CURVE ( 'NONE', #394, #751, #755, .T. ) ;
#761 = CARTESIAN_POINT ( 'NONE',  ( 12.99999999999999822, 110.0000000000000000, 2.999999999999997335 ) ) ;
#762 = EDGE_CURVE ( 'NONE', #823, #1257, #963, .T. ) ;
#763 = VERTEX_POINT ( 'NONE', #669 ) ;
#764 = ORIENTED_EDGE ( 'NONE', *, *, #1042, .F. ) ;
#765 = CYLINDRICAL_SURFACE ( 'NONE', #1057, 1.650000000000000133 ) ;
#766 = DIRECTION ( 'NONE',  ( 0.000000000000000000, 0.000000000000000000, 1.000000000000000000 ) ) ;
#767 = ORIENTED_EDGE ( 'NONE', *, *, #292, .T. ) ;
#768 = ADVANCED_FACE ( 'NONE', ( #652 ), #471, .F. ) ;
#769 = EDGE_CURVE ( 'NONE', #1124, #819, #862, .T. ) ;
#770 = FACE_OUTER_BOUND ( 'NONE', #836, .T. ) ;
#771 = CARTESIAN_POINT ( 'NONE',  ( 2.999999986629780402, -8.749999816813550879, 2.999999986629780402 ) ) ;
#772 = DIRECTION ( 'NONE',  ( -0.7071067811865473507, -4.317745980395092010E-08, -0.7071067811865463515 ) ) ;
#773 = ORIENTED_EDGE ( 'NONE', *, *, #1140, .T. ) ;
#774 = AXIS2_PLACEMENT_3D ( 'NONE', #304, #589, #417 ) ;
#775 = CARTESIAN_POINT ( 'NONE',  ( 1.415941433679299921, 4.375000000000000000, -7.577722283113839552 ) ) ;
#776 = DIRECTION ( 'NONE',  ( 1.000000000000000000, 0.000000000000000000, 0.000000000000000000 ) ) ;
#777 = DIRECTION ( 'NONE',  ( -1.000000000000000000, 0.000000000000000000, 0.000000000000000000 ) ) ;
#778 = ORIENTED_EDGE ( 'NONE', *, *, #66, .F. ) ;
#779 = CARTESIAN_POINT ( 'NONE',  ( 7.000000000000000000, 4.375000000000000000, 7.577722283113839552 ) ) ;
#780 = CARTESIAN_POINT ( 'NONE',  ( 12.99999999999999822, 50.00000000000000000, 3.000000000000011990 ) ) ;
#781 = EDGE_CURVE ( 'NONE', #738, #751, #157, .T. ) ;
#782 = DIRECTION ( 'NONE',  ( 0.000000000000000000, 0.000000000000000000, 1.000000000000000000 ) ) ;
#783 = FACE_OUTER_BOUND ( 'NONE', #381, .T. ) ;
#784 = ORIENTED_EDGE ( 'NONE', *, *, #855, .F. ) ;
#785 = APPLICATION_CONTEXT ( 'automotive_design' ) ;
#786 = DIRECTION ( 'NONE',  ( -1.000000000000000000, 0.000000000000000000, 0.000000000000000000 ) ) ;
#787 = VECTOR ( 'NONE', #170, 1000.000000000000000 ) ;
#788 = DIRECTION ( 'NONE',  ( 0.000000000000000000, -1.000000000000000000, 0.000000000000000000 ) ) ;
#789 = ADVANCED_FACE ( 'NONE', ( #574 ), #355, .T. ) ;
#790 = DIRECTION ( 'NONE',  ( 1.000000000000000000, 0.000000000000000000, 0.000000000000000000 ) ) ;
#791 = CARTESIAN_POINT ( 'NONE',  ( -3.000000000000000000, 3.245314017740485962E-16, -2.649999999999999911 ) ) ;
#792 = ORIENTED_EDGE ( 'NONE', *, *, #74, .T. ) ;
#793 = LINE ( 'NONE', #1180, #1100 ) ;
#794 = VECTOR ( 'NONE', #635, 1000.000000000000000 ) ;
#795 = FACE_OUTER_BOUND ( 'NONE', #655, .T. ) ;
#796 = CARTESIAN_POINT ( 'NONE',  ( 12.99999999999999822, 69.99999999999998579, 3.000000000000011990 ) ) ;
#797 = CARTESIAN_POINT ( 'NONE',  ( 12.99999999999999822, 30.00000000000000355, -2.999999999999987566 ) ) ;
#798 = ORIENTED_EDGE ( 'NONE', *, *, #1255, .F. ) ;
#799 = DIRECTION ( 'NONE',  ( -1.000000000000000000, 0.000000000000000000, 0.000000000000000000 ) ) ;
#800 = AXIS2_PLACEMENT_3D ( 'NONE', #102, #786, #198 ) ;
#801 = EDGE_CURVE ( 'NONE', #248, #1247, #1183, .T. ) ;
#802 = CARTESIAN_POINT ( 'NONE',  ( 3.000000000000000000, 0.000000000000000000, 0.000000000000000000 ) ) ;
#803 = FACE_OUTER_BOUND ( 'NONE', #736, .T. ) ;
#804 = DIRECTION ( 'NONE',  ( 0.000000000000000000, 0.000000000000000000, 1.000000000000000000 ) ) ;
#805 = DIRECTION ( 'NONE',  ( 0.000000000000000000, 0.000000000000000000, 1.000000000000000000 ) ) ;
#806 = UNCERTAINTY_MEASURE_WITH_UNIT (LENGTH_MEASURE( 1.000000000000000082E-05 ), #525, 'distance_accuracy_value', 'NONE');
#807 = AXIS2_PLACEMENT_3D ( 'NONE', #802, #122, #114 ) ;
#808 = CARTESIAN_POINT ( 'NONE',  ( -3.000000000000000000, 69.99999999999998579, 3.000000000000011990 ) ) ;
#809 = DIRECTION ( 'NONE',  ( -1.000000000000000000, -0.000000000000000000, -0.000000000000000000 ) ) ;
#810 = EDGE_CURVE ( 'NONE', #719, #1047, #848, .T. ) ;
#811 = DIRECTION ( 'NONE',  ( 0.000000000000000000, 0.000000000000000000, 1.000000000000000000 ) ) ;
#812 = DIRECTION ( 'NONE',  ( 0.000000000000000000, 0.000000000000000000, 1.000000000000000000 ) ) ;
#813 = DIRECTION ( 'NONE',  ( 0.000000000000000000, 0.000000000000000000, -1.000000000000000000 ) ) ;
#814 = VERTEX_POINT ( 'NONE', #8 ) ;
#815 = EDGE_CURVE ( 'NONE', #528, #1124, #986, .T. ) ;
#816 = FACE_OUTER_BOUND ( 'NONE', #840, .T. ) ;
#817 = VERTEX_POINT ( 'NONE', #972 ) ;
#818 = CARTESIAN_POINT ( 'NONE',  ( -3.000000000000000000, -8.750000000000000000, -1.650000000000000133 ) ) ;
#819 = VERTEX_POINT ( 'NONE', #95 ) ;
#820 = VECTOR ( 'NONE', #772, 1000.000000000000114 ) ;
#821 = EDGE_LOOP ( 'NONE', ( #1022, #168, #281, #929 ) ) ;
#822 = CARTESIAN_POINT ( 'NONE',  ( 7.000000000000000000, 160.0000000000000000, 0.000000000000000000 ) ) ;
#823 = VERTEX_POINT ( 'NONE', #894 ) ;
#824 = EDGE_CURVE ( 'NONE', #1019, #971, #1118, .T. ) ;
#825 = DIRECTION ( 'NONE',  ( -1.000000000000000000, -0.000000000000000000, -0.000000000000000000 ) ) ;
#826 = PRODUCT_DEFINITION_CONTEXT ( 'detailed design', #785, 'design' ) ;
#827 = EDGE_LOOP ( 'NONE', ( #1179, #69, #296, #1060 ) ) ;
#828 = CYLINDRICAL_SURFACE ( 'NONE', #1076, 11.99999999999999822 ) ;
#829 = ORIENTED_EDGE ( 'NONE', *, *, #400, .T. ) ;
#830 = CARTESIAN_POINT ( 'NONE',  ( -3.000000000000000000, 12.04159457879229933, -12.00000000000000000 ) ) ;
#831 = ORIENTED_EDGE ( 'NONE', *, *, #39, .T. ) ;
#832 = PRODUCT_DEFINITION_SHAPE ( 'NONE', 'NONE',  #873 ) ;
#833 = AXIS2_PLACEMENT_3D ( 'NONE', #1032, #199, #981 ) ;
#834 = CARTESIAN_POINT ( 'NONE',  ( -3.000000000000000000, -8.750000000000000000, 1.650000000000000133 ) ) ;
#835 = EDGE_CURVE ( 'NONE', #814, #863, #575, .T. ) ;
#836 = EDGE_LOOP ( 'NONE', ( #938, #670, #535, #1064 ) ) ;
#837 = CARTESIAN_POINT ( 'NONE',  ( 7.000000000000000000, 4.375000000000000000, -9.227722283113839907 ) ) ;
#838 = AXIS2_PLACEMENT_3D ( 'NONE', #856, #1147, #1233 ) ;
#839 = VERTEX_POINT ( 'NONE', #289 ) ;
#840 = EDGE_LOOP ( 'NONE', ( #865, #741, #537, #955 ) ) ;
#841 = DIRECTION ( 'NONE',  ( -1.000000000000000000, -0.000000000000000000, -0.000000000000000000 ) ) ;
#842 = CARTESIAN_POINT ( 'NONE',  ( -3.000000000000000000, 30.00000000000000355, -2.999999999999987566 ) ) ;
#843 = VERTEX_POINT ( 'NONE', #1172 ) ;
#844 = ORIENTED_EDGE ( 'NONE', *, *, #898, .T. ) ;
#845 = DIRECTION ( 'NONE',  ( 0.000000000000000000, 0.000000000000000000, 1.000000000000000000 ) ) ;
#846 = PRODUCT ( '\X2\8fde6746\X0\1', '\X2\8fde6746\X0\1', '', ( #24 ) ) ;
#847 = ORIENTED_EDGE ( 'NONE', *, *, #861, .F. ) ;
#848 = LINE ( 'NONE', #1243, #961 ) ;
#849 = VECTOR ( 'NONE', #962, 1000.000000000000000 ) ;
#850 = CIRCLE ( 'NONE', #1013, 11.99999999999999822 ) ;
#851 = EDGE_LOOP ( 'NONE', ( #44, #844, #858, #1263 ) ) ;
#852 = CARTESIAN_POINT ( 'NONE',  ( -3.000000000000000000, 90.00000000000000000, -2.999999999999987566 ) ) ;
#853 = ADVANCED_FACE ( 'NONE', ( #1192 ), #306, .F. ) ;
#854 = ORIENTED_EDGE ( 'NONE', *, *, #596, .F. ) ;
#855 = EDGE_CURVE ( 'NONE', #660, #600, #675, .T. ) ;
#856 = CARTESIAN_POINT ( 'NONE',  ( 2.999999999999999112, 70.00000000000000000, 1.604619215278546562E-14 ) ) ;
#857 = AXIS2_PLACEMENT_3D ( 'NONE', #110, #900, #805 ) ;
#858 = ORIENTED_EDGE ( 'NONE', *, *, #1042, .T. ) ;
#859 = EDGE_LOOP ( 'NONE', ( #377, #202, #714, #1056, #450, #13, #1121, #572 ) ) ;
#860 = AXIS2_PLACEMENT_3D ( 'NONE', #477, #942, #460 ) ;
#861 = EDGE_CURVE ( 'NONE', #56, #146, #389, .T. ) ;
#862 = LINE ( 'NONE', #1254, #18 ) ;
#863 = VERTEX_POINT ( 'NONE', #411 ) ;
#864 = ORIENTED_EDGE ( 'NONE', *, *, #987, .F. ) ;
#865 = ORIENTED_EDGE ( 'NONE', *, *, #1038, .T. ) ;
#866 = FACE_OUTER_BOUND ( 'NONE', #1158, .T. ) ;
#867 = CYLINDRICAL_SURFACE ( 'NONE', #282, 3.000000000000000000 ) ;
#868 = CARTESIAN_POINT ( 'NONE',  ( 1.649999999999999911, -8.750000000000000000, 0.000000000000000000 ) ) ;
#869 = CARTESIAN_POINT ( 'NONE',  ( 2.999999986629780402, 4.374999816813549991, 4.577722296484060038 ) ) ;
#870 = CARTESIAN_POINT ( 'NONE',  ( -3.000000000000000000, 160.0000000000000000, -12.00000000000000000 ) ) ;
#871 = ORIENTED_EDGE ( 'NONE', *, *, #1193, .F. ) ;
#872 = CARTESIAN_POINT ( 'NONE',  ( 12.99999999999999822, 70.00000000000000000, 1.604619215278546562E-14 ) ) ;
#873 = PRODUCT_DEFINITION ( 'æœ', '', #333, #826 ) ;
#874 = CIRCLE ( 'NONE', #183, 3.000000000000000000 ) ;
#875 = CARTESIAN_POINT ( 'NONE',  ( 7.000000000000000000, 3.245314017740485962E-16, -2.649999999999999911 ) ) ;
#876 = CIRCLE ( 'NONE', #838, 3.000000000000000000 ) ;
#877 = DIRECTION ( 'NONE',  ( -0.7071067811865473507, 4.317746021282912915E-08, 0.7071067811865463515 ) ) ;
#878 = FACE_OUTER_BOUND ( 'NONE', #1186, .T. ) ;
#879 = ORIENTED_EDGE ( 'NONE', *, *, #424, .T. ) ;
#880 = FACE_OUTER_BOUND ( 'NONE', #1171, .T. ) ;
#881 = DIRECTION ( 'NONE',  ( -1.000000000000000000, -0.000000000000000000, -0.000000000000000000 ) ) ;
#882 = DIRECTION ( 'NONE',  ( 0.000000000000000000, 0.000000000000000000, 1.000000000000000000 ) ) ;
#883 = PLANE ( 'NONE',  #943 ) ;
#884 = ORIENTED_EDGE ( 'NONE', *, *, #1082, .T. ) ;
#885 = LINE ( 'NONE', #215, #730 ) ;
#886 = AXIS2_PLACEMENT_3D ( 'NONE', #308, #598, #386 ) ;
#887 = AXIS2_PLACEMENT_3D ( 'NONE', #413, #497, #506 ) ;
#888 = VECTOR ( 'NONE', #1027, 1000.000000000000000 ) ;
#889 = DIRECTION ( 'NONE',  ( 0.000000000000000000, -1.000000000000000000, 0.000000000000000000 ) ) ;
#890 = EDGE_CURVE ( 'NONE', #863, #814, #469, .T. ) ;
#891 = DIRECTION ( 'NONE',  ( -1.000000000000000000, -0.000000000000000000, -0.000000000000000000 ) ) ;
#892 = DIRECTION ( 'NONE',  ( 1.000000000000000000, 0.000000000000000000, 0.000000000000000000 ) ) ;
#893 = EDGE_LOOP ( 'NONE', ( #1146, #1223, #543, #173 ) ) ;
#894 = CARTESIAN_POINT ( 'NONE',  ( 3.000000000000000000, 160.0000000000000000, 12.00000000000000000 ) ) ;
#895 = FACE_BOUND ( 'NONE', #1270, .T. ) ;
#896 = LINE ( 'NONE', #796, #422 ) ;
#897 = CARTESIAN_POINT ( 'NONE',  ( -3.000000000000000000, 90.00000000000000000, 3.000000000000011990 ) ) ;
#898 = EDGE_CURVE ( 'NONE', #978, #362, #885, .T. ) ;
#899 = ORIENTED_EDGE ( 'NONE', *, *, #1141, .F. ) ;
#900 = DIRECTION ( 'NONE',  ( -1.000000000000000000, 0.000000000000000000, 0.000000000000000000 ) ) ;
#901 = AXIS2_PLACEMENT_3D ( 'NONE', #452, #264, #259 ) ;
#902 = DIRECTION ( 'NONE',  ( 0.000000000000000000, 1.000000000000000000, 0.000000000000000000 ) ) ;
#903 = VECTOR ( 'NONE', #32, 1000.000000000000000 ) ;
#904 = LINE ( 'NONE', #710, #226 ) ;
#905 = FACE_OUTER_BOUND ( 'NONE', #1227, .T. ) ;
#906 = ADVANCED_FACE ( 'NONE', ( #880 ), #297, .F. ) ;
#907 = CIRCLE ( 'NONE', #1132, 12.00000000000000000 ) ;
#908 = SURFACE_STYLE_USAGE ( .BOTH. , #532 ) ;
#909 = LINE ( 'NONE', #1111, #1083 ) ;
#910 = EDGE_CURVE ( 'NONE', #1221, #1211, #957, .T. ) ;
#911 = ADVANCED_FACE ( 'NONE', ( #691 ), #1081, .F. ) ;
#912 = CARTESIAN_POINT ( 'NONE',  ( -3.000000000000000000, 69.99999999999998579, -2.999999999999987566 ) ) ;
#913 = EDGE_LOOP ( 'NONE', ( #864, #1252, #561, #468 ) ) ;
#914 = FACE_BOUND ( 'NONE', #913, .T. ) ;
#915 = VECTOR ( 'NONE', #467, 1000.000000000000000 ) ;
#916 = ORIENTED_EDGE ( 'NONE', *, *, #465, .T. ) ;
#917 = EDGE_CURVE ( 'NONE', #1130, #672, #611, .T. ) ;
#918 = ORIENTED_EDGE ( 'NONE', *, *, #231, .F. ) ;
#919 = DIRECTION ( 'NONE',  ( -1.000000000000000000, -0.000000000000000000, -0.000000000000000000 ) ) ;
#920 = EDGE_LOOP ( 'NONE', ( #388, #916, #1031, #343 ) ) ;
#921 = FACE_OUTER_BOUND ( 'NONE', #366, .T. ) ;
#922 = ORIENTED_EDGE ( 'NONE', *, *, #1194, .F. ) ;
#923 = PLANE ( 'NONE',  #112 ) ;
#924 = ORIENTED_EDGE ( 'NONE', *, *, #890, .T. ) ;
#925 = CARTESIAN_POINT ( 'NONE',  ( -3.000000000000000000, 0.000000000000000000, 2.649999999999999911 ) ) ;
#926 = EDGE_LOOP ( 'NONE', ( #559, #46, #614, #1026 ) ) ;
#927 = EDGE_CURVE ( 'NONE', #256, #1149, #395, .T. ) ;
#928 = DIRECTION ( 'NONE',  ( 0.000000000000000000, 0.000000000000000000, 1.000000000000000000 ) ) ;
#929 = ORIENTED_EDGE ( 'NONE', *, *, #638, .F. ) ;
#930 = CARTESIAN_POINT ( 'NONE',  ( -3.000000000000000000, 160.0000000000000000, 12.00000000000000000 ) ) ;
#931 = EDGE_LOOP ( 'NONE', ( #72, #265, #181, #549 ) ) ;
#932 = DIRECTION ( 'NONE',  ( 0.000000000000000000, 0.000000000000000000, -1.000000000000000000 ) ) ;
#933 = EDGE_LOOP ( 'NONE', ( #944, #1034 ) ) ;
#934 = AXIS2_PLACEMENT_3D ( 'NONE', #779, #1163, #1089 ) ;
#935 = CARTESIAN_POINT ( 'NONE',  ( 7.000000000000000000, -8.750000000000000000, 1.650000000000000133 ) ) ;
#936 = CARTESIAN_POINT ( 'NONE',  ( 3.000000000000000000, 160.0000000000000000, 12.00000000000000000 ) ) ;
#937 = ORIENTED_EDGE ( 'NONE', *, *, #688, .F. ) ;
#938 = ORIENTED_EDGE ( 'NONE', *, *, #1129, .F. ) ;
#939 = CARTESIAN_POINT ( 'NONE',  ( 1.415941433679299921, 4.375000000000000000, 7.577722283113839552 ) ) ;
#940 = CARTESIAN_POINT ( 'NONE',  ( 12.99999999999999822, 69.99999999999998579, -2.999999999999987566 ) ) ;
#941 = CARTESIAN_POINT ( 'NONE',  ( -3.000000000000000000, 9.542756901161899563, 14.06896551724140032 ) ) ;
#942 = DIRECTION ( 'NONE',  ( -1.000000000000000000, 0.000000000000000000, 0.000000000000000000 ) ) ;
#943 = AXIS2_PLACEMENT_3D ( 'NONE', #1000, #1170, #294 ) ;
#944 = ORIENTED_EDGE ( 'NONE', *, *, #57, .F. ) ;
#945 = ORIENTED_EDGE ( 'NONE', *, *, #980, .T. ) ;
#946 = EDGE_CURVE ( 'NONE', #1149, #1019, #793, .T. ) ;
#947 = CARTESIAN_POINT ( 'NONE',  ( 7.000000000000000000, 0.000000000000000000, 2.649999999999999911 ) ) ;
#948 = EDGE_LOOP ( 'NONE', ( #167, #721 ) ) ;
#949 = AXIS2_PLACEMENT_3D ( 'NONE', #984, #407, #1073 ) ;
#950 = CARTESIAN_POINT ( 'NONE',  ( 12.99999999999999822, 50.00000000000000000, -2.999999999999987566 ) ) ;
#951 = AXIS2_PLACEMENT_3D ( 'NONE', #989, #996, #104 ) ;
#952 = EDGE_LOOP ( 'NONE', ( #1052, #214, #345, #185 ) ) ;
#953 = VECTOR ( 'NONE', #266, 1000.000000000000000 ) ;
#954 = EDGE_CURVE ( 'NONE', #273, #1110, #550, .T. ) ;
#955 = ORIENTED_EDGE ( 'NONE', *, *, #1188, .F. ) ;
#956 = DIRECTION ( 'NONE',  ( -1.000000000000000000, -0.000000000000000000, -0.000000000000000000 ) ) ;
#957 = CIRCLE ( 'NONE', #774, 6.649999999999996803 ) ;
#958 = EDGE_LOOP ( 'NONE', ( #473, #73, #162, #433 ) ) ;
#959 = EDGE_LOOP ( 'NONE', ( #778, #899, #733, #625 ) ) ;
#960 = ORIENTED_EDGE ( 'NONE', *, *, #1206, .F. ) ;
#961 = VECTOR ( 'NONE', #504, 1000.000000000000000 ) ;
#962 = DIRECTION ( 'NONE',  ( 0.000000000000000000, 1.000000000000000000, 0.000000000000000000 ) ) ;
#963 = LINE ( 'NONE', #936, #511 ) ;
#964 = ORIENTED_EDGE ( 'NONE', *, *, #988, .T. ) ;
#965 = CIRCLE ( 'NONE', #616, 3.000000000000000000 ) ;
#966 = LINE ( 'NONE', #940, #787 ) ;
#967 = CARTESIAN_POINT ( 'NONE',  ( 3.000000000000000000, 0.000000000000000000, -2.999999999999987566 ) ) ;
#968 = DIRECTION ( 'NONE',  ( 1.000000000000000000, 0.000000000000000000, 0.000000000000000000 ) ) ;
#969 = EDGE_CURVE ( 'NONE', #839, #819, #874, .T. ) ;
#970 = EDGE_CURVE ( 'NONE', #330, #648, #1039, .T. ) ;
#971 = VERTEX_POINT ( 'NONE', #834 ) ;
#972 = CARTESIAN_POINT ( 'NONE',  ( 2.999999999999999112, 30.00000000000000355, -2.999999999999987566 ) ) ;
#973 = VECTOR ( 'NONE', #881, 1000.000000000000000 ) ;
#974 = AXIS2_PLACEMENT_3D ( 'NONE', #401, #5, #1268 ) ;
#975 = DIRECTION ( 'NONE',  ( -1.000000000000000000, -0.000000000000000000, -0.000000000000000000 ) ) ;
#976 = LINE ( 'NONE', #299, #1242 ) ;
#977 = CYLINDRICAL_SURFACE ( 'NONE', #1231, 1.650000000000000355 ) ;
#978 = VERTEX_POINT ( 'NONE', #1215 ) ;
#979 = CARTESIAN_POINT ( 'NONE',  ( -3.000000000000000000, 70.00000000000000000, 1.604619215278546562E-14 ) ) ;
#980 = EDGE_CURVE ( 'NONE', #53, #823, #909, .T. ) ;
#981 = DIRECTION ( 'NONE',  ( 0.000000000000000000, 0.000000000000000000, -1.000000000000000000 ) ) ;
#982 = CIRCLE ( 'NONE', #595, 3.000000000000000000 ) ;
#983 = CARTESIAN_POINT ( 'NONE',  ( 3.000000000000000000, 16.27882059609969900, -24.00000000000000000 ) ) ;
#984 = CARTESIAN_POINT ( 'NONE',  ( 3.000000000000000000, 160.0000000000000000, 0.000000000000000000 ) ) ;
#985 = VERTEX_POINT ( 'NONE', #540 ) ;
#986 = LINE ( 'NONE', #703, #412 ) ;
#987 = EDGE_CURVE ( 'NONE', #1124, #729, #1197, .T. ) ;
#988 = EDGE_CURVE ( 'NONE', #600, #660, #654, .T. ) ;
#989 = CARTESIAN_POINT ( 'NONE',  ( -3.000000000000000000, 0.000000000000000000, 0.000000000000000000 ) ) ;
#990 = CYLINDRICAL_SURFACE ( 'NONE', #229, 17.00000000000000000 ) ;
#991 = FACE_OUTER_BOUND ( 'NONE', #260, .T. ) ;
#992 = ORIENTED_EDGE ( 'NONE', *, *, #88, .F. ) ;
#993 = DIRECTION ( 'NONE',  ( 0.000000000000000000, 0.000000000000000000, 1.000000000000000000 ) ) ;
#994 = CIRCLE ( 'NONE', #1012, 1.650000000000000355 ) ;
#995 = AXIS2_PLACEMENT_3D ( 'NONE', #939, #560, #1128 ) ;
#996 = DIRECTION ( 'NONE',  ( 1.000000000000000000, 0.000000000000000000, 0.000000000000000000 ) ) ;
#997 = EDGE_CURVE ( 'NONE', #143, #362, #1114, .T. ) ;
#998 = EDGE_CURVE ( 'NONE', #763, #253, #1248, .T. ) ;
#999 = DIRECTION ( 'NONE',  ( -1.000000000000000000, -0.000000000000000000, -0.000000000000000000 ) ) ;
#1000 = CARTESIAN_POINT ( 'NONE',  ( 12.99999999999999822, 69.99999999999998579, -2.999999999999987566 ) ) ;
#1001 = ORIENTED_EDGE ( 'NONE', *, *, #1091, .T. ) ;
#1002 = DIRECTION ( 'NONE',  ( -1.000000000000000000, -0.000000000000000000, -0.000000000000000000 ) ) ;
#1003 = AXIS2_PLACEMENT_3D ( 'NONE', #872, #1264, #510 ) ;
#1004 = CYLINDRICAL_SURFACE ( 'NONE', #887, 3.000000000000000000 ) ;
#1005 = LINE ( 'NONE', #338, #578 ) ;
#1006 = CARTESIAN_POINT ( 'NONE',  ( -3.000000000000000000, 16.27882059609969900, 12.00000000000000000 ) ) ;
#1007 = CARTESIAN_POINT ( 'NONE',  ( 0.000000000000000000, 0.000000000000000000, 0.000000000000000000 ) ) ;
#1008 = FILL_AREA_STYLE ('',( #1199 ) ) ;
#1009 = DIRECTION ( 'NONE',  ( 0.000000000000000000, 0.000000000000000000, 1.000000000000000000 ) ) ;
#1010 = ADVANCED_FACE ( 'NONE', ( #921 ), #723, .F. ) ;
#1011 = ADVANCED_FACE ( 'NONE', ( #622, #914, #47, #149, #527, #1014, #617, #534, #348 ), #432, .T. ) ;
#1012 = AXIS2_PLACEMENT_3D ( 'NONE', #380, #280, #604 ) ;
#1013 = AXIS2_PLACEMENT_3D ( 'NONE', #983, #293, #485 ) ;
#1014 = FACE_BOUND ( 'NONE', #1127, .T. ) ;
#1015 = EDGE_LOOP ( 'NONE', ( #576, #922, #1153, #152 ) ) ;
#1016 = DIRECTION ( 'NONE',  ( 0.000000000000000000, 0.000000000000000000, -1.000000000000000000 ) ) ;
#1017 = EDGE_LOOP ( 'NONE', ( #221, #557 ) ) ;
#1018 = DIRECTION ( 'NONE',  ( 0.000000000000000000, 0.000000000000000000, 1.000000000000000000 ) ) ;
#1019 = VERTEX_POINT ( 'NONE', #818 ) ;
#1020 = FACE_OUTER_BOUND ( 'NONE', #959, .T. ) ;
#1021 = ADVANCED_FACE ( 'NONE', ( #1201 ), #1125, .F. ) ;
#1022 = ORIENTED_EDGE ( 'NONE', *, *, #927, .T. ) ;
#1023 = DIRECTION ( 'NONE',  ( -1.000000000000000000, -0.000000000000000000, -0.000000000000000000 ) ) ;
#1024 = ORIENTED_EDGE ( 'NONE', *, *, #74, .F. ) ;
#1025 = DIRECTION ( 'NONE',  ( -1.000000000000000000, -0.000000000000000000, -0.000000000000000000 ) ) ;
#1026 = ORIENTED_EDGE ( 'NONE', *, *, #96, .F. ) ;
#1027 = DIRECTION ( 'NONE',  ( 1.000000000000000000, 0.000000000000000000, 0.000000000000000000 ) ) ;
#1028 = VERTEX_POINT ( 'NONE', #437 ) ;
#1029 = AXIS2_PLACEMENT_3D ( 'NONE', #868, #258, #1040 ) ;
#1030 = CARTESIAN_POINT ( 'NONE',  ( 2.999999995394410313, 4.375000055142679756, 10.57772227850819924 ) ) ;
#1031 = ORIENTED_EDGE ( 'NONE', *, *, #397, .T. ) ;
#1032 = CARTESIAN_POINT ( 'NONE',  ( 3.000000000000000000, 16.27882059609969900, 24.00000000000000000 ) ) ;
#1033 = PLANE ( 'NONE',  #166 ) ;
#1034 = ORIENTED_EDGE ( 'NONE', *, *, #824, .F. ) ;
#1035 = VERTEX_POINT ( 'NONE', #1006 ) ;
#1036 = DIRECTION ( 'NONE',  ( -1.000000000000000000, 0.000000000000000000, 0.000000000000000000 ) ) ;
#1037 = DIRECTION ( 'NONE',  ( 0.000000000000000000, 0.000000000000000000, -1.000000000000000000 ) ) ;
#1038 = EDGE_CURVE ( 'NONE', #629, #581, #1062, .T. ) ;
#1039 = CIRCLE ( 'NONE', #857, 2.649999999999999911 ) ;
#1040 = DIRECTION ( 'NONE',  ( 0.000000000000000000, 0.000000000000000000, -1.000000000000000000 ) ) ;
#1041 = CARTESIAN_POINT ( 'NONE',  ( 12.99999999999999822, 30.00000000000000000, 1.604619215278546562E-14 ) ) ;
#1042 = EDGE_CURVE ( 'NONE', #362, #143, #570, .T. ) ;
#1043 = EDGE_LOOP ( 'NONE', ( #446, #208, #109, #241 ) ) ;
#1044 = ORIENTED_EDGE ( 'NONE', *, *, #478, .T. ) ;
#1045 = CIRCLE ( 'NONE', #698, 17.00000000000001066 ) ;
#1046 = CARTESIAN_POINT ( 'NONE',  ( 7.000000000000000000, 4.375000000000000000, -7.577722283113839552 ) ) ;
#1047 = VERTEX_POINT ( 'NONE', #134 ) ;
#1048 = CARTESIAN_POINT ( 'NONE',  ( 3.000000000000000000, 0.000000000000000000, 0.000000000000000000 ) ) ;
#1049 = ORIENTED_EDGE ( 'NONE', *, *, #3, .T. ) ;
#1050 = ADVANCED_FACE ( 'NONE', ( #340 ), #731, .F. ) ;
#1051 = EDGE_CURVE ( 'NONE', #729, #839, #326, .T. ) ;
#1052 = ORIENTED_EDGE ( 'NONE', *, *, #1067, .F. ) ;
#1053 = AXIS2_PLACEMENT_3D ( 'NONE', #108, #777, #213 ) ;
#1054 = DIRECTION ( 'NONE',  ( 1.000000000000000000, 0.000000000000000000, 0.000000000000000000 ) ) ;
#1055 = VECTOR ( 'NONE', #479, 1000.000000000000000 ) ;
#1056 = ORIENTED_EDGE ( 'NONE', *, *, #762, .T. ) ;
#1057 = AXIS2_PLACEMENT_3D ( 'NONE', #1155, #277, #187 ) ;
#1058 = ADVANCED_FACE ( 'NONE', ( #905 ), #423, .F. ) ;
#1059 = EDGE_LOOP ( 'NONE', ( #58, #773, #236, #690 ) ) ;
#1060 = ORIENTED_EDGE ( 'NONE', *, *, #210, .T. ) ;
#1061 = FACE_OUTER_BOUND ( 'NONE', #448, .T. ) ;
#1062 = CIRCLE ( 'NONE', #238, 17.00000000000001066 ) ;
#1063 = VERTEX_POINT ( 'NONE', #291 ) ;
#1064 = ORIENTED_EDGE ( 'NONE', *, *, #1148, .F. ) ;
#1065 = AXIS2_PLACEMENT_3D ( 'NONE', #1041, #184, #556 ) ;
#1066 = DIRECTION ( 'NONE',  ( 0.000000000000000000, 0.000000000000000000, -1.000000000000000000 ) ) ;
#1067 = EDGE_CURVE ( 'NONE', #273, #539, #251, .T. ) ;
#1068 = LINE ( 'NONE', #1177, #67 ) ;
#1069 = ORIENTED_EDGE ( 'NONE', *, *, #1193, .T. ) ;
#1070 = AXIS2_PLACEMENT_3D ( 'NONE', #415, #319, #1190 ) ;
#1071 = DIRECTION ( 'NONE',  ( 0.000000000000000000, 0.000000000000000000, -1.000000000000000000 ) ) ;
#1072 = LINE ( 'NONE', #585, #295 ) ;
#1073 = DIRECTION ( 'NONE',  ( 0.000000000000000000, 0.000000000000000000, -1.000000000000000000 ) ) ;
#1074 = EDGE_LOOP ( 'NONE', ( #234, #606, #884, #178 ) ) ;
#1075 = CARTESIAN_POINT ( 'NONE',  ( 1.415941433679299921, -8.750000000000000000, 0.000000000000000000 ) ) ;
#1076 = AXIS2_PLACEMENT_3D ( 'NONE', #1219, #1176, #193 ) ;
#1077 = DIRECTION ( 'NONE',  ( -0.7071067811865473507, -4.317746103058562004E-08, -0.7071067811865463515 ) ) ;
#1078 = CARTESIAN_POINT ( 'NONE',  ( -3.000000000000000000, 30.00000000000000000, 1.604619215278546562E-14 ) ) ;
#1079 = DIRECTION ( 'NONE',  ( 0.000000000000000000, 0.000000000000000000, -1.000000000000000000 ) ) ;
#1080 = EDGE_LOOP ( 'NONE', ( #154, #667, #567, #960 ) ) ;
#1081 = CYLINDRICAL_SURFACE ( 'NONE', #934, 1.650000000000000355 ) ;
#1082 = EDGE_CURVE ( 'NONE', #839, #696, #188, .T. ) ;
#1083 = VECTOR ( 'NONE', #332, 1000.000000000000000 ) ;
#1084 = FACE_BOUND ( 'NONE', #182, .T. ) ;
#1085 = AXIS2_PLACEMENT_3D ( 'NONE', #554, #1122, #932 ) ;
#1086 = CARTESIAN_POINT ( 'NONE',  ( -3.000000000000000000, 130.0000000000000000, 2.999999999999997335 ) ) ;
#1087 = CARTESIAN_POINT ( 'NONE',  ( 1.650000000000000355, 4.375000100752547638, -5.927722283113847190 ) ) ;
#1088 = ORIENTED_EDGE ( 'NONE', *, *, #1148, .T. ) ;
#1089 = DIRECTION ( 'NONE',  ( 0.000000000000000000, 0.000000000000000000, 1.000000000000000000 ) ) ;
#1090 = EDGE_CURVE ( 'NONE', #89, #357, #1258, .T. ) ;
#1091 = EDGE_CURVE ( 'NONE', #985, #334, #590, .T. ) ;
#1092 = CARTESIAN_POINT ( 'NONE',  ( 3.000000000000000000, 2.081899558550500280E-15, 17.00000000000000000 ) ) ;
#1093 = DIRECTION ( 'NONE',  ( 1.000000000000000000, 0.000000000000000000, 0.000000000000000000 ) ) ;
#1094 = DIRECTION ( 'NONE',  ( 1.000000000000000000, 0.000000000000000000, 0.000000000000000000 ) ) ;
#1095 = ORIENTED_EDGE ( 'NONE', *, *, #3, .F. ) ;
#1096 = DIRECTION ( 'NONE',  ( -1.000000000000000000, 0.000000000000000000, 0.000000000000000000 ) ) ;
#1097 = CARTESIAN_POINT ( 'NONE',  ( 3.000000000000000000, 0.000000000000000000, -3.000000000000002665 ) ) ;
#1098 = FACE_OUTER_BOUND ( 'NONE', #920, .T. ) ;
#1099 = DIRECTION ( 'NONE',  ( 0.000000000000000000, -1.000000000000000000, 0.000000000000000000 ) ) ;
#1100 = VECTOR ( 'NONE', #1002, 1000.000000000000000 ) ;
#1101 = EDGE_CURVE ( 'NONE', #1257, #322, #711, .T. ) ;
#1102 = CARTESIAN_POINT ( 'NONE',  ( 7.000000000000000000, 160.0000000000000000, -6.649999999999996803 ) ) ;
#1103 = DIRECTION ( 'NONE',  ( 0.000000000000000000, 0.000000000000000000, -1.000000000000000000 ) ) ;
#1104 = DIRECTION ( 'NONE',  ( -1.000000000000000000, 0.000000000000000000, 0.000000000000000000 ) ) ;
#1105 = DIRECTION ( 'NONE',  ( -1.000000000000000000, 0.000000000000000000, 0.000000000000000000 ) ) ;
#1106 = AXIS2_PLACEMENT_3D ( 'NONE', #586, #1094, #480 ) ;
#1107 = AXIS2_PLACEMENT_3D ( 'NONE', #613, #505, #813 ) ;
#1108 = ORIENTED_EDGE ( 'NONE', *, *, #382, .F. ) ;
#1109 = FACE_OUTER_BOUND ( 'NONE', #571, .T. ) ;
#1110 = VERTEX_POINT ( 'NONE', #584 ) ;
#1111 = CARTESIAN_POINT ( 'NONE',  ( -3.000000000000000000, 160.0000000000000000, 12.00000000000000000 ) ) ;
#1112 = ORIENTED_EDGE ( 'NONE', *, *, #210, .F. ) ;
#1113 = CARTESIAN_POINT ( 'NONE',  ( 1.650000000000000355, 4.375000100752549415, 9.227722283113822144 ) ) ;
#1114 = CIRCLE ( 'NONE', #136, 1.650000000000000355 ) ;
#1115 = ORIENTED_EDGE ( 'NONE', *, *, #954, .F. ) ;
#1116 = ORIENTED_EDGE ( 'NONE', *, *, #341, .F. ) ;
#1117 = CARTESIAN_POINT ( 'NONE',  ( -3.000000000000000000, 0.000000000000000000, 0.000000000000000000 ) ) ;
#1118 = CIRCLE ( 'NONE', #800, 1.650000000000000133 ) ;
#1119 = ORIENTED_EDGE ( 'NONE', *, *, #1140, .F. ) ;
#1120 = DIRECTION ( 'NONE',  ( 0.000000000000000000, 0.000000000000000000, 1.000000000000000000 ) ) ;
#1121 = ORIENTED_EDGE ( 'NONE', *, *, #688, .T. ) ;
#1122 = DIRECTION ( 'NONE',  ( 1.000000000000000000, 0.000000000000000000, 0.000000000000000000 ) ) ;
#1123 = VECTOR ( 'NONE', #1023, 1000.000000000000000 ) ;
#1124 = VERTEX_POINT ( 'NONE', #54 ) ;
#1125 = CYLINDRICAL_SURFACE ( 'NONE', #279, 2.649999999999999911 ) ;
#1126 = DIRECTION ( 'NONE',  ( -1.000000000000000000, -0.000000000000000000, -0.000000000000000000 ) ) ;
#1127 = EDGE_LOOP ( 'NONE', ( #924, #403 ) ) ;
#1128 = DIRECTION ( 'NONE',  ( 0.000000000000000000, 0.000000000000000000, -1.000000000000000000 ) ) ;
#1129 = EDGE_CURVE ( 'NONE', #1149, #334, #254, .T. ) ;
#1130 = VERTEX_POINT ( 'NONE', #156 ) ;
#1131 = DIRECTION ( 'NONE',  ( 1.000000000000000000, 0.000000000000000000, 0.000000000000000000 ) ) ;
#1132 = AXIS2_PLACEMENT_3D ( 'NONE', #414, #591, #686 ) ;
#1133 = CARTESIAN_POINT ( 'NONE',  ( -3.000000000000000000, 9.542756901161899563, 14.06896551724140032 ) ) ;
#1134 = DIRECTION ( 'NONE',  ( 0.000000000000000000, -1.000000000000000000, 0.000000000000000000 ) ) ;
#1135 = EDGE_LOOP ( 'NONE', ( #682, #1138, #569, #118 ) ) ;
#1136 = ORIENTED_EDGE ( 'NONE', *, *, #596, .T. ) ;
#1137 = DIRECTION ( 'NONE',  ( 0.000000000000000000, 0.000000000000000000, 1.000000000000000000 ) ) ;
#1138 = ORIENTED_EDGE ( 'NONE', *, *, #361, .T. ) ;
#1139 = DIRECTION ( 'NONE',  ( 1.000000000000000000, 0.000000000000000000, 0.000000000000000000 ) ) ;
#1140 = EDGE_CURVE ( 'NONE', #239, #330, #98, .T. ) ;
#1141 = EDGE_CURVE ( 'NONE', #339, #1250, #315, .T. ) ;
#1142 = CARTESIAN_POINT ( 'NONE',  ( 7.000000000000000000, 4.375000000000000000, -5.927722283113839197 ) ) ;
#1143 = ORIENTED_EDGE ( 'NONE', *, *, #270, .F. ) ;
#1144 = MECHANICAL_DESIGN_GEOMETRIC_PRESENTATION_REPRESENTATION (  '', ( #126 ), #204 ) ;
#1145 = DIRECTION ( 'NONE',  ( -1.000000000000000000, -0.000000000000000000, -0.000000000000000000 ) ) ;
#1146 = ORIENTED_EDGE ( 'NONE', *, *, #987, .T. ) ;
#1147 = DIRECTION ( 'NONE',  ( 1.000000000000000000, 0.000000000000000000, 0.000000000000000000 ) ) ;
#1148 = EDGE_CURVE ( 'NONE', #334, #971, #283, .T. ) ;
#1149 = VERTEX_POINT ( 'NONE', #354 ) ;
#1150 = ORIENTED_EDGE ( 'NONE', *, *, #1225, .F. ) ;
#1151 = ORIENTED_EDGE ( 'NONE', *, *, #781, .T. ) ;
#1152 = CARTESIAN_POINT ( 'NONE',  ( 12.99999999999999822, 110.0000000000000000, 6.017516462317565123E-15 ) ) ;
#1153 = ORIENTED_EDGE ( 'NONE', *, *, #312, .F. ) ;
#1154 = EDGE_CURVE ( 'NONE', #978, #158, #85, .T. ) ;
#1155 = CARTESIAN_POINT ( 'NONE',  ( 7.000000000000000000, -8.750000000000000000, 0.000000000000000000 ) ) ;
#1156 = CARTESIAN_POINT ( 'NONE',  ( 7.000000000000000000, -8.750000000000000000, 0.000000000000000000 ) ) ;
#1157 = DIRECTION ( 'NONE',  ( 0.000000000000000000, -0.5613386412448169160, -0.8275862068965521567 ) ) ;
#1158 = EDGE_LOOP ( 'NONE', ( #310, #767, #51, #470 ) ) ;
#1159 = LINE ( 'NONE', #780, #9 ) ;
#1160 = DIRECTION ( 'NONE',  ( 0.000000000000000000, 0.000000000000000000, -1.000000000000000000 ) ) ;
#1161 = CARTESIAN_POINT ( 'NONE',  ( -3.000000000000000000, 160.0000000000000000, 0.000000000000000000 ) ) ;
#1162 = EDGE_LOOP ( 'NONE', ( #175, #964 ) ) ;
#1163 = DIRECTION ( 'NONE',  ( -1.000000000000000000, -0.000000000000000000, -0.000000000000000000 ) ) ;
#1164 = AXIS2_PLACEMENT_3D ( 'NONE', #1161, #286, #1079 ) ;
#1165 = ADVANCED_FACE ( 'NONE', ( #192 ), #1267, .F. ) ;
#1166 = DIRECTION ( 'NONE',  ( 1.000000000000000000, 0.000000000000000000, 0.000000000000000000 ) ) ;
#1167 = EDGE_CURVE ( 'NONE', #528, #261, #1, .T. ) ;
#1168 = CIRCLE ( 'NONE', #290, 11.99999999999999822 ) ;
#1169 = DIRECTION ( 'NONE',  ( 0.000000000000000000, 0.000000000000000000, -1.000000000000000000 ) ) ;
#1170 = DIRECTION ( 'NONE',  ( 0.000000000000000000, 0.000000000000000000, 1.000000000000000000 ) ) ;
#1171 = EDGE_LOOP ( 'NONE', ( #303, #1049, #727, #1256 ) ) ;
#1172 = CARTESIAN_POINT ( 'NONE',  ( 3.000000000000000000, 90.00000000000000000, 3.000000000000011990 ) ) ;
#1173 =( GEOMETRIC_REPRESENTATION_CONTEXT ( 3 ) GLOBAL_UNCERTAINTY_ASSIGNED_CONTEXT ( ( #372 ) ) GLOBAL_UNIT_ASSIGNED_CONTEXT ( ( #318, #327, #713 ) ) REPRESENTATION_CONTEXT ( 'NONE', 'WORKASPACE' ) );
#1174 = AXIS2_PLACEMENT_3D ( 'NONE', #447, #49, #1137 ) ;
#1175 = CARTESIAN_POINT ( 'NONE',  ( 3.000000000000000000, 160.0000000000000000, -6.649999999999996803 ) ) ;
#1176 = DIRECTION ( 'NONE',  ( 1.000000000000000000, 0.000000000000000000, 0.000000000000000000 ) ) ;
#1177 = CARTESIAN_POINT ( 'NONE',  ( -3.000000000000000000, 9.542756901161899563, -14.06896551724140032 ) ) ;
#1178 = EDGE_CURVE ( 'NONE', #56, #588, #398, .T. ) ;
#1179 = ORIENTED_EDGE ( 'NONE', *, *, #145, .F. ) ;
#1180 = CARTESIAN_POINT ( 'NONE',  ( 7.000000000000000000, -8.750000000000000000, -1.650000000000000133 ) ) ;
#1181 = AXIS2_PLACEMENT_3D ( 'NONE', #230, #225, #35 ) ;
#1182 = FACE_BOUND ( 'NONE', #1074, .T. ) ;
#1183 = CIRCLE ( 'NONE', #860, 1.650000000000000355 ) ;
#1184 = DIRECTION ( 'NONE',  ( 0.000000000000000000, 0.000000000000000000, -1.000000000000000000 ) ) ;
#1185 = DIRECTION ( 'NONE',  ( 0.000000000000000000, 0.000000000000000000, 1.000000000000000000 ) ) ;
#1186 = EDGE_LOOP ( 'NONE', ( #945, #676, #429, #627 ) ) ;
#1187 = DIRECTION ( 'NONE',  ( 0.000000000000000000, 0.000000000000000000, -1.000000000000000000 ) ) ;
#1188 = EDGE_CURVE ( 'NONE', #629, #322, #476, .T. ) ;
#1189 = FACE_BOUND ( 'NONE', #1017, .T. ) ;
#1190 = DIRECTION ( 'NONE',  ( 0.000000000000000000, 0.000000000000000000, 1.000000000000000000 ) ) ;
#1191 = CIRCLE ( 'NONE', #105, 3.000000000000000000 ) ;
#1192 = FACE_OUTER_BOUND ( 'NONE', #821, .T. ) ;
#1193 = EDGE_CURVE ( 'NONE', #334, #1149, #130, .T. ) ;
#1194 = EDGE_CURVE ( 'NONE', #1035, #1257, #164, .T. ) ;
#1195 = PLANE ( 'NONE',  #457 ) ;
#1196 = CARTESIAN_POINT ( 'NONE',  ( 3.000000000000000000, 0.000000000000000000, 0.000000000000000000 ) ) ;
#1197 = CIRCLE ( 'NONE', #408, 3.000000000000000000 ) ;
#1198 = EDGE_CURVE ( 'NONE', #819, #261, #384, .T. ) ;
#1199 = FILL_AREA_STYLE_COLOUR ( '', #677 ) ;
#1200 = AXIS2_PLACEMENT_3D ( 'NONE', #1222, #52, #1037 ) ;
#1201 = FACE_OUTER_BOUND ( 'NONE', #1059, .T. ) ;
#1202 = ORIENTED_EDGE ( 'NONE', *, *, #231, .T. ) ;
#1203 = ADVANCED_FACE ( 'NONE', ( #866 ), #722, .F. ) ;
#1204 = LINE ( 'NONE', #147, #903 ) ;
#1205 = ORIENTED_EDGE ( 'NONE', *, *, #66, .T. ) ;
#1206 = EDGE_CURVE ( 'NONE', #719, #1063, #1159, .T. ) ;
#1207 = DIRECTION ( 'NONE',  ( 1.000000000000000000, 0.000000000000000000, 0.000000000000000000 ) ) ;
#1208 = VECTOR ( 'NONE', #201, 1000.000000000000000 ) ;
#1209 = EDGE_LOOP ( 'NONE', ( #634, #551, #1235, #458 ) ) ;
#1210 = AXIS2_PLACEMENT_3D ( 'NONE', #491, #841, #91 ) ;
#1211 = VERTEX_POINT ( 'NONE', #217 ) ;
#1212 = VECTOR ( 'NONE', #754, 1000.000000000000114 ) ;
#1213 = CARTESIAN_POINT ( 'NONE',  ( -3.000000000000000000, 2.081899558550500280E-15, 17.00000000000000000 ) ) ;
#1214 = ORIENTED_EDGE ( 'NONE', *, *, #103, .T. ) ;
#1215 = CARTESIAN_POINT ( 'NONE',  ( 1.650000000000000355, 4.374999899247451474, 5.927722283113837420 ) ) ;
#1216 = ADVANCED_FACE ( 'NONE', ( #795 ), #1004, .F. ) ;
#1217 = EDGE_CURVE ( 'NONE', #322, #1253, #111, .T. ) ;
#1218 = ORIENTED_EDGE ( 'NONE', *, *, #910, .T. ) ;
#1219 = CARTESIAN_POINT ( 'NONE',  ( -18.03600000000000136, 16.27882059609969900, 24.00000000000000000 ) ) ;
#1220 = VECTOR ( 'NONE', #1166, 1000.000000000000000 ) ;
#1221 = VERTEX_POINT ( 'NONE', #1175 ) ;
#1222 = CARTESIAN_POINT ( 'NONE',  ( -3.000000000000000000, 0.000000000000000000, 0.000000000000000000 ) ) ;
#1223 = ORIENTED_EDGE ( 'NONE', *, *, #1051, .T. ) ;
#1224 = DIRECTION ( 'NONE',  ( -1.000000000000000000, 0.000000000000000000, 0.000000000000000000 ) ) ;
#1225 = EDGE_CURVE ( 'NONE', #985, #256, #665, .T. ) ;
#1226 = VECTOR ( 'NONE', #548, 1000.000000000000000 ) ;
#1227 = EDGE_LOOP ( 'NONE', ( #1119, #349, #831, #272 ) ) ;
#1228 = CARTESIAN_POINT ( 'NONE',  ( -3.000000000000000000, 90.00000000000000000, 1.237225175534340802E-14 ) ) ;
#1229 = ORIENTED_EDGE ( 'NONE', *, *, #624, .T. ) ;
#1230 = FACE_OUTER_BOUND ( 'NONE', #7, .T. ) ;
#1231 = AXIS2_PLACEMENT_3D ( 'NONE', #93, #486, #1185 ) ;
#1232 = CARTESIAN_POINT ( 'NONE',  ( -3.000000000000000000, 110.0000000000000000, -3.000000000000002665 ) ) ;
#1233 = DIRECTION ( 'NONE',  ( 0.000000000000000000, 0.000000000000000000, -1.000000000000000000 ) ) ;
#1234 = ORIENTED_EDGE ( 'NONE', *, *, #224, .T. ) ;
#1235 = ORIENTED_EDGE ( 'NONE', *, *, #38, .T. ) ;
#1236 = DIRECTION ( 'NONE',  ( 0.000000000000000000, 0.000000000000000000, 1.000000000000000000 ) ) ;
#1237 = ADVANCED_FACE ( 'NONE', ( #17, #1182, #1084, #597, #1189, #211, #313, #707, #895 ), #205, .F. ) ;
#1238 = EDGE_CURVE ( 'NONE', #1028, #729, #307, .T. ) ;
#1239 = CARTESIAN_POINT ( 'NONE',  ( -3.000000000000000000, 16.27882059609969900, -12.00000000000000000 ) ) ;
#1240 = AXIS2_PLACEMENT_3D ( 'NONE', #1007, #16, #517 ) ;
#1241 = PLANE ( 'NONE',  #428 ) ;
#1242 = VECTOR ( 'NONE', #694, 1000.000000000000000 ) ;
#1243 = CARTESIAN_POINT ( 'NONE',  ( 3.000000000000000000, 0.000000000000000000, 3.000000000000011990 ) ) ;
#1244 = AXIS2_PLACEMENT_3D ( 'NONE', #298, #699, #693 ) ;
#1245 = ORIENTED_EDGE ( 'NONE', *, *, #465, .F. ) ;
#1246 = LINE ( 'NONE', #344, #953 ) ;
#1247 = VERTEX_POINT ( 'NONE', #10 ) ;
#1248 = CIRCLE ( 'NONE', #301, 6.649999999999996803 ) ;
#1249 = CARTESIAN_POINT ( 'NONE',  ( 2.999999999999999112, 110.0000000000000000, -3.000000000000002665 ) ) ;
#1250 = VERTEX_POINT ( 'NONE', #405 ) ;
#1251 = AXIS2_PLACEMENT_3D ( 'NONE', #1259, #268, #71 ) ;
#1252 = ORIENTED_EDGE ( 'NONE', *, *, #815, .F. ) ;
#1253 = VERTEX_POINT ( 'NONE', #1092 ) ;
#1254 = CARTESIAN_POINT ( 'NONE',  ( 12.99999999999999822, 110.0000000000000000, 2.999999999999997335 ) ) ;
#1255 = EDGE_CURVE ( 'NONE', #1130, #146, #602, .T. ) ;
#1256 = ORIENTED_EDGE ( 'NONE', *, *, #224, .F. ) ;
#1257 = VERTEX_POINT ( 'NONE', #512 ) ;
#1258 = LINE ( 'NONE', #278, #671 ) ;
#1259 = CARTESIAN_POINT ( 'NONE',  ( 3.000000000000000000, 0.000000000000000000, 0.000000000000000000 ) ) ;
#1260 = CARTESIAN_POINT ( 'NONE',  ( -3.000000000000000000, 16.27882059609969900, 12.00000000000000000 ) ) ;
#1261 = CARTESIAN_POINT ( 'NONE',  ( -3.000000000000000000, 0.000000000000000000, -17.00000000000000000 ) ) ;
#1262 = DIRECTION ( 'NONE',  ( 1.000000000000000000, 0.000000000000000000, 0.000000000000000000 ) ) ;
#1263 = ORIENTED_EDGE ( 'NONE', *, *, #743, .F. ) ;
#1264 = DIRECTION ( 'NONE',  ( -1.000000000000000000, -0.000000000000000000, -0.000000000000000000 ) ) ;
#1265 = EDGE_CURVE ( 'NONE', #239, #481, #421, .T. ) ;
#1266 = EDGE_CURVE ( 'NONE', #31, #347, #227, .T. ) ;
#1267 = CYLINDRICAL_SURFACE ( 'NONE', #232, 1.650000000000000133 ) ;
#1268 = DIRECTION ( 'NONE',  ( 0.000000000000000000, 0.000000000000000000, -1.000000000000000000 ) ) ;
#1269 = DIRECTION ( 'NONE',  ( 0.000000000000000000, 0.000000000000000000, 1.000000000000000000 ) ) ;
#1270 = EDGE_LOOP ( 'NONE', ( #668, #475 ) ) ;
#1271 = DIRECTION ( 'NONE',  ( -1.000000000000000000, -0.000000000000000000, -0.000000000000000000 ) ) ;
ENDSEC;
END-ISO-10303-21;
